<svg width="92" height="97" viewBox="0 0 92 97" fill="none" xmlns="http://www.w3.org/2000/svg">
<g clip-path="url(#clip0_678_63)">
<mask id="mask0_678_63" style="mask-type:luminance" maskUnits="userSpaceOnUse" x="0" y="0" width="92" height="97">
<path d="M91.6559 0H0V96.9964H91.6559V0Z" fill="white"/>
</mask>
<g mask="url(#mask0_678_63)">
<path d="M89.1711 76.0137V93.6432" stroke="#181828" stroke-width="2" stroke-linecap="round" stroke-linejoin="round"/>
<path d="M86.1105 76.0137V93.6432" stroke="#181828" stroke-width="2" stroke-linecap="round" stroke-linejoin="round"/>
<path d="M82.9702 95.929C87.5669 95.929 91.2937 92.2192 91.2937 87.6426C91.2937 83.0663 87.5669 79.3561 82.9702 79.3561C78.3731 79.3561 74.6467 83.0663 74.6467 87.6426C74.6467 92.2192 78.3731 95.929 82.9702 95.929Z" fill="#86FF33"/>
<path d="M87.3384 81.2168C87.3384 81.2168 91.3226 83.9753 90.7141 88.0104" stroke="#EEFFE1" stroke-width="3" stroke-linecap="round" stroke-linejoin="round"/>
<path d="M82.9702 95.929C87.5669 95.929 91.2937 92.2192 91.2937 87.6426C91.2937 83.0663 87.5669 79.3561 82.9702 79.3561C78.3731 79.3561 74.6467 83.0663 74.6467 87.6426C74.6467 92.2192 78.3731 95.929 82.9702 95.929Z" stroke="#181828" stroke-width="2" stroke-miterlimit="10"/>
<path d="M81.8075 81.3578C82.4627 81.3578 83.0908 81.617 83.554 82.0782C84.0173 82.5394 84.2777 83.1647 84.2777 83.817V94.1733H81.8075V81.3578Z" fill="#54CA01"/>
<path d="M69.2065 57.5178C69.2065 57.5178 52.1828 50.533 53.7946 34.3424" stroke="#181828" stroke-width="2" stroke-linecap="round" stroke-linejoin="round"/>
<path d="M75.8456 56.084C75.8456 56.084 53.0267 40.2575 55.2506 21.0413" stroke="#181828" stroke-width="2" stroke-linecap="round" stroke-linejoin="round"/>
<path d="M84.3429 52.3483H57.5181" stroke="#181828" stroke-width="2" stroke-linecap="round" stroke-linejoin="round"/>
<path d="M82.1734 65.1991V57.5798H56.4967V95.5035H82.1734V68.3435" fill="#FBB63A"/>
<path d="M56.4967 60.0967H82.1734V57.5834H56.4967V60.0967Z" fill="#ED7D00"/>
<path d="M68.8551 87.5528H82.1697V85.0394H68.8551V87.5528Z" fill="#ED7D00"/>
<path d="M79.8806 95.0095H82.1734V59.2205H79.8806V95.0095Z" fill="#ED7D00"/>
<path d="M59.6768 95.0095H57.0581V66.7533C57.0581 66.062 57.3341 65.3989 57.8253 64.9099C58.3164 64.421 58.9825 64.1462 59.6768 64.1462V95.0095Z" fill="#FFDB9C"/>
<path d="M82.1734 65.1991V57.5798H56.4967V95.5035H82.1734V68.3435" stroke="#181828" stroke-width="2" stroke-linecap="round" stroke-linejoin="round"/>
<path d="M50.1835 57.8246H84.9551V54.9398H50.1835V57.8246Z" fill="#889FAA"/>
<path d="M84.9298 56.891H54.3561C53.8758 56.891 53.4151 56.701 53.0753 56.3628C52.7359 56.0245 52.545 55.5662 52.545 55.0881H84.9298V56.891Z" fill="#C5D5DC"/>
<path d="M82.4631 55.929H79.9857C79.7705 55.929 79.5641 55.8439 79.4119 55.6921C79.2598 55.5406 79.1743 55.3354 79.1743 55.1212H83.2745C83.2745 55.3354 83.189 55.5406 83.0369 55.6921C82.8847 55.8439 82.6783 55.929 82.4631 55.929Z" fill="white"/>
<path d="M77.9899 55.929H75.5124C75.4059 55.929 75.3005 55.9081 75.202 55.8673C75.1035 55.8266 75.014 55.7671 74.9387 55.6921C74.8633 55.6171 74.8036 55.5284 74.763 55.4303C74.7221 55.3322 74.701 55.2273 74.701 55.1212H78.8012C78.8012 55.3354 78.7157 55.5406 78.5636 55.6921C78.4115 55.8439 78.205 55.929 77.9899 55.929Z" fill="white"/>
<path d="M58.8511 54.9398H50.0314V57.8246H84.803V54.9398H58.5033" stroke="#181828" stroke-width="2" stroke-miterlimit="10"/>
<path d="M81.4852 52.4016V54.8248" stroke="#181828" stroke-width="1.5" stroke-linecap="round" stroke-linejoin="round"/>
<path d="M76.7982 52.4016V54.8248" stroke="#181828" stroke-width="1.5" stroke-linecap="round" stroke-linejoin="round"/>
<path d="M72.1077 52.4016V54.8248" stroke="#181828" stroke-width="1.5" stroke-linecap="round" stroke-linejoin="round"/>
<path d="M67.7793 57.1326C68.1075 57.1326 68.3733 56.868 68.3733 56.5413C68.3733 56.2146 68.1075 55.9499 67.7793 55.9499C67.4512 55.9499 67.1853 56.2146 67.1853 56.5413C67.1853 56.868 67.4512 57.1326 67.7793 57.1326Z" fill="#889FAA"/>
<path d="M69.6158 57.1839C69.8639 57.1839 70.0649 56.9834 70.0649 56.7367C70.0649 56.4897 69.8639 56.2896 69.6158 56.2896C69.3676 56.2896 69.1666 56.4897 69.1666 56.7367C69.1666 56.9834 69.3676 57.1839 69.6158 57.1839Z" fill="#889FAA"/>
<path d="M66.7978 56.3433C66.934 56.3433 67.0441 56.2333 67.0441 56.0981C67.0441 55.9625 66.934 55.8529 66.7978 55.8529C66.662 55.8529 66.5515 55.9625 66.5515 56.0981C66.5515 56.2333 66.662 56.3433 66.7978 56.3433Z" fill="#889FAA"/>
<path d="M84.7124 56.3754H80.0291" stroke="#181828" stroke-linecap="round" stroke-linejoin="round"/>
<path d="M67.5186 74.9064H84.9044V72.0216H67.5186V74.9064Z" fill="#889FAA"/>
<path d="M82.1625 73.936H68.9746C68.4943 73.936 68.0336 73.746 67.6938 73.4081C67.3545 73.0698 67.1636 72.6112 67.1636 72.133H82.1625V73.936Z" fill="#C5D5DC"/>
<path d="M70.4235 73.0093H67.946C67.7308 73.0093 67.5244 72.9242 67.3722 72.7727C67.2201 72.6213 67.1346 72.4157 67.1346 72.2015H71.2348C71.2348 72.4157 71.1493 72.6213 70.9972 72.7727C70.8451 72.9242 70.6386 73.0093 70.4235 73.0093Z" fill="white"/>
<path d="M82.7059 72.0216H67.3701V74.9064H84.7559V72.0216H72.9408" stroke="#181828" stroke-width="2" stroke-miterlimit="10"/>
<path d="M60.557 58.694V60.497" stroke="white" stroke-linecap="round" stroke-linejoin="round"/>
<path d="M59.2168 60.9517V62.3941" stroke="white" stroke-linecap="round" stroke-linejoin="round"/>
<path d="M61.774 62.6252V64.0676" stroke="white" stroke-linecap="round" stroke-linejoin="round"/>
<path d="M64.8129 62.5773V64.3802" stroke="white" stroke-linecap="round" stroke-linejoin="round"/>
<path d="M62.9512 60.9517V62.3941" stroke="white" stroke-linecap="round" stroke-linejoin="round"/>
<path d="M57.2972 60.894H69.0869C69.159 60.894 69.2282 60.8655 69.2789 60.8147C69.33 60.7642 69.3586 60.6953 69.3586 60.6236C69.3586 60.5518 69.33 60.4829 69.2789 60.4325C69.2282 60.3816 69.159 60.3531 69.0869 60.3531H57.2972C57.2251 60.3531 57.1559 60.3816 57.1052 60.4325C57.0541 60.4829 57.0255 60.5518 57.0255 60.6236C57.0255 60.6953 57.0541 60.7642 57.1052 60.8147C57.1559 60.8655 57.2251 60.894 57.2972 60.894Z" fill="white"/>
<path d="M57.2972 62.8152H72.709C72.7811 62.8152 72.8502 62.7868 72.9009 62.7363C72.952 62.6854 72.9806 62.6166 72.9806 62.5448C72.9806 62.473 72.952 62.4045 72.9009 62.3537C72.8502 62.3028 72.7811 62.2744 72.709 62.2744H57.2972C57.2251 62.2744 57.1559 62.3028 57.1052 62.3537C57.0541 62.4045 57.0255 62.473 57.0255 62.5448C57.0255 62.6166 57.0541 62.6854 57.1052 62.7363C57.1559 62.7868 57.2251 62.8152 57.2972 62.8152Z" fill="white"/>
<path d="M58.3837 64.7379H69.0869C69.1589 64.7379 69.2281 64.7095 69.2788 64.659C69.3299 64.6081 69.3585 64.5393 69.3585 64.4675C69.3585 64.3957 69.3299 64.3272 69.2788 64.2764C69.2281 64.2255 69.1589 64.1971 69.0869 64.1971H58.3837C58.3116 64.1971 58.2425 64.2255 58.1917 64.2764C58.1407 64.3272 58.1121 64.3957 58.1121 64.4675C58.1121 64.5393 58.1407 64.6081 58.1917 64.659C58.2425 64.7095 58.3116 64.7379 58.3837 64.7379Z" fill="white"/>
<path d="M82.1226 75.043H69.0035V85.0495H82.1226V75.043Z" fill="#C8EEFD"/>
<path d="M81.6663 75.3925H69.46V84.703H81.6663V75.3925Z" stroke="#4FCDFF" stroke-width="3" stroke-miterlimit="10"/>
<path opacity="0.8" d="M82.2205 78.1943L73.0458 85.1321L68.7573 85.1357L82.1263 74.7289L82.2205 78.1943Z" fill="white"/>
<path opacity="0.8" d="M79.7176 75.1509L68.9529 83.4986L68.7573 81.1187L76.5991 75.122L79.7176 75.1509Z" fill="white"/>
<path d="M82.1226 75.043H69.0035V85.0495H82.1226V75.043Z" stroke="#202020" stroke-width="2" stroke-miterlimit="10"/>
<path d="M72.3649 74.8883V85.1581" stroke="#202020" stroke-width="2" stroke-miterlimit="10"/>
<path d="M78.0692 80.8695C78.1996 80.7671 78.222 80.5789 78.1195 80.4491C78.0167 80.3193 77.8276 80.2969 77.6972 80.3993L75.1419 82.4024C75.0115 82.5048 74.989 82.6931 75.0915 82.8229C75.1944 82.9527 75.3834 82.975 75.5138 82.873L78.0692 80.8695Z" fill="white"/>
<path d="M79.7372 78.1341C79.8676 78.0316 79.89 77.8434 79.7875 77.7136C79.6846 77.5838 79.4956 77.5614 79.3652 77.6638L76.8098 79.6673C76.6794 79.7694 76.657 79.9576 76.7595 80.0874C76.8623 80.2172 77.0514 80.2396 77.1818 80.1375L79.7372 78.1341Z" fill="white"/>
<path d="M75.9015 76.4183C76.0319 76.3163 76.0543 76.1281 75.9518 75.9982C75.849 75.8681 75.6599 75.8457 75.5295 75.9481L72.9741 77.9516C72.8437 78.0536 72.8213 78.2419 72.9238 78.3717C73.0267 78.5015 73.2157 78.5242 73.3461 78.4218L75.9015 76.4183Z" fill="white"/>
<path d="M61.1764 85.9294C61.1764 85.2305 60.6081 84.6637 59.9069 84.6637C59.2056 84.6637 58.6373 85.2305 58.6373 85.9294V92.1749C58.6373 92.8741 59.2056 93.4406 59.9069 93.4406C60.6081 93.4406 61.1764 92.8741 61.1764 92.1749V85.9294Z" fill="#FBDB9E"/>
<path d="M61.1764 72.3072C61.1764 71.608 60.6081 71.0415 59.9069 71.0415C59.2056 71.0415 58.6373 71.608 58.6373 72.3072V78.5527C58.6373 79.2515 59.2056 79.8184 59.9069 79.8184C60.6081 79.8184 61.1764 79.2515 61.1764 78.5527V72.3072Z" fill="#FBDB9E"/>
<path d="M56.7755 90.7404H59.3109" stroke="#181828" stroke-width="2" stroke-linecap="round" stroke-linejoin="round"/>
<path d="M60.7996 91.2666C61.0778 91.2666 61.3031 91.0423 61.3031 90.7653C61.3031 90.4887 61.0778 90.2641 60.7996 90.2641C60.5218 90.2641 60.2961 90.4887 60.2961 90.7653C60.2961 91.0423 60.5218 91.2666 60.7996 91.2666Z" fill="#181828"/>
<path d="M56.7755 68.6172H59.3109" stroke="#181828" stroke-width="2" stroke-linecap="round" stroke-linejoin="round"/>
<path d="M60.7996 69.1477C61.0778 69.1477 61.3031 68.9234 61.3031 68.6464C61.3031 68.3699 61.0778 68.1452 60.7996 68.1452C60.5218 68.1452 60.2961 68.3699 60.2961 68.6464C60.2961 68.9234 60.5218 69.1477 60.7996 69.1477Z" fill="#181828"/>
<path d="M81.9307 64.6802H79.3953" stroke="#181828" stroke-linecap="round" stroke-linejoin="round"/>
<path d="M78.4753 64.946C78.6372 64.946 78.7687 64.8155 78.7687 64.6539C78.7687 64.4927 78.6372 64.3618 78.4753 64.3618C78.3134 64.3618 78.1819 64.4927 78.1819 64.6539C78.1819 64.8155 78.3134 64.946 78.4753 64.946Z" fill="#181828"/>
<path d="M82.0393 91.9517H79.5039" stroke="#181828" stroke-width="2" stroke-linecap="round" stroke-linejoin="round"/>
<path d="M78.0188 92.4244C78.297 92.4244 78.5223 92.2001 78.5223 91.9232C78.5223 91.6466 78.297 91.422 78.0188 91.422C77.741 91.422 77.5154 91.6466 77.5154 91.9232C77.5154 92.2001 77.741 92.4244 78.0188 92.4244Z" fill="#181828"/>
<path d="M91.0039 89.8458H88.4685" stroke="#181828" stroke-width="2" stroke-linecap="round" stroke-linejoin="round"/>
<path d="M86.9834 90.3214C87.2616 90.3214 87.4869 90.0971 87.4869 89.8202C87.4869 89.5436 87.2616 89.319 86.9834 89.319C86.7056 89.319 86.48 89.5436 86.48 89.8202C86.48 90.0971 86.7056 90.3214 86.9834 90.3214Z" fill="#181828"/>
<path d="M11.022 62.7435C11.022 62.7435 19.3527 60.479 19.3527 53.2454" stroke="#181828" stroke-width="2" stroke-linecap="round" stroke-linejoin="round"/>
<path d="M3.21277 62.7687H30.034" stroke="#181828" stroke-width="2" stroke-linecap="round" stroke-linejoin="round"/>
<path d="M5.37878 75.6203V67.9974H31.0555V95.1069H5.37878V78.7611" fill="white"/>
<path d="M31.0555 68.0002H5.37878V70.5136H31.0555V68.0002Z" fill="#C5D5DC"/>
<path d="M5.37878 75.6203V67.9974H31.0555V95.1069H5.37878V78.7611" stroke="#181828" stroke-width="2" stroke-linecap="round" stroke-linejoin="round"/>
<path d="M37.3686 65.3578H2.59692V68.2426H37.3686V65.3578Z" fill="#889FAA"/>
<path d="M2.6405 65.5168H35.0143C35.0143 65.7538 34.9675 65.9881 34.8765 66.207C34.7855 66.4255 34.6521 66.6246 34.4839 66.7919C34.3158 66.9592 34.1161 67.0923 33.8964 67.1828C33.6767 67.2733 33.4411 67.3198 33.2033 67.3198H2.6405V65.5168Z" fill="#C5D5DC"/>
<path d="M4.28137 65.5424H8.38153C8.38153 65.7566 8.29605 65.9622 8.14389 66.1136C7.99176 66.2651 7.78538 66.3502 7.57019 66.3502H5.09271C4.87752 66.3502 4.67118 66.2651 4.51901 66.1136C4.36685 65.9622 4.28137 65.7566 4.28137 65.5424Z" fill="white"/>
<path d="M8.75085 65.5424H12.851C12.851 65.7566 12.7655 65.9622 12.6134 66.1136C12.4612 66.2651 12.2548 66.3502 12.0397 66.3502H9.56219C9.34701 66.3502 9.14062 66.2651 8.98846 66.1136C8.83633 65.9622 8.75085 65.7566 8.75085 65.5424Z" fill="white"/>
<path d="M28.701 65.3578H37.5207V68.2426H2.74902V65.3578H29.0487" stroke="#181828" stroke-width="2" stroke-miterlimit="10"/>
<path d="M6.06689 62.8196V65.2428" stroke="#181828" stroke-width="1.5" stroke-linecap="round" stroke-linejoin="round"/>
<path d="M10.7576 62.8196V65.2428" stroke="#181828" stroke-width="1.5" stroke-linecap="round" stroke-linejoin="round"/>
<path d="M32.4681 72.433H8.02649V91.9196H32.4681V72.433Z" fill="#F68E2A"/>
<path d="M31.7653 72.9923H8.72913V91.3574H31.7653V72.9923Z" stroke="#DE761B" stroke-width="3" stroke-miterlimit="10"/>
<path d="M15.4445 62.8196V65.2428" stroke="#181828" stroke-width="1.5" stroke-linecap="round" stroke-linejoin="round"/>
<path d="M19.7728 67.5506C20.1009 67.5506 20.3669 67.2859 20.3669 66.9592C20.3669 66.6325 20.1009 66.3678 19.7728 66.3678C19.4448 66.3678 19.1788 66.6325 19.1788 66.9592C19.1788 67.2859 19.4448 67.5506 19.7728 67.5506Z" fill="#889FAA"/>
<path d="M17.9364 67.6043C18.1845 67.6043 18.3856 67.4042 18.3856 67.1572C18.3856 66.9102 18.1845 66.71 17.9364 66.71C17.6884 66.71 17.4873 66.9102 17.4873 67.1572C17.4873 67.4042 17.6884 67.6043 17.9364 67.6043Z" fill="#889FAA"/>
<path d="M20.7579 66.7609C20.8939 66.7609 21.0042 66.6513 21.0042 66.5157C21.0042 66.3805 20.8939 66.2705 20.7579 66.2705C20.6219 66.2705 20.5116 66.3805 20.5116 66.5157C20.5116 66.6513 20.6219 66.7609 20.7579 66.7609Z" fill="#889FAA"/>
<path d="M8.396 84.0186H17.8495C17.9456 84.0186 18.0377 84.0564 18.1057 84.1242C18.1736 84.1917 18.2117 84.2836 18.2117 84.3792C18.2117 84.4747 18.1736 84.5667 18.1057 84.6341C18.0377 84.7019 17.9456 84.7398 17.8495 84.7398H8.396V84.0186Z" fill="#AE5601"/>
<path d="M11.413 91.4573V84.469C11.413 84.3886 11.4451 84.3114 11.5021 84.2548C11.5592 84.1978 11.6366 84.1661 11.7173 84.1661H11.8115C11.8922 84.1661 11.9695 84.1978 12.0266 84.2548C12.0837 84.3114 12.1157 84.3886 12.1157 84.469V91.4573H11.4094H11.413Z" fill="#AE5601"/>
<path d="M14.9228 91.4573V84.469C14.9228 84.4293 14.9307 84.3896 14.946 84.3529C14.9613 84.3164 14.9837 84.2829 15.0119 84.2548C15.0402 84.2267 15.0737 84.2043 15.1107 84.1892C15.1476 84.174 15.1871 84.1661 15.2271 84.1661H15.3212C15.3612 84.1661 15.4008 84.174 15.4377 84.1892C15.4746 84.2043 15.5081 84.2267 15.5364 84.2548C15.5646 84.2829 15.5871 84.3164 15.6023 84.3529C15.6176 84.3896 15.6255 84.4293 15.6255 84.469V91.4573H14.9192H14.9228Z" fill="#AE5601"/>
<path opacity="0.8" d="M12.4308 91.8936H9.15283L14.5859 72.2484H17.8639L12.4308 91.8936Z" fill="#FFC38C"/>
<path opacity="0.8" d="M17.3713 91.8936H14.0897L19.5228 72.2484H22.8044L17.3713 91.8936Z" fill="#FFC38C"/>
<path d="M32.4681 72.3526H8.02649V91.8392H32.4681V72.3526Z" stroke="#181828" stroke-width="2" stroke-linecap="round" stroke-linejoin="round"/>
<path d="M18.5339 49.4375V43.9926H26.5024V69.2342H18.5339V61.4922" fill="white"/>
<path d="M26.4302 43.7109V68.9526H18.4617V67.5499H25.1588V43.7109H26.4302Z" fill="#D6E6FF"/>
<path d="M57.471 22.5372H29.219V93.9349H57.471V22.5372Z" fill="#D15F39"/>
<path d="M55.3955 25.8586V27.301" stroke="#F7A387" stroke-linecap="round" stroke-linejoin="round"/>
<path d="M54.7437 27.5418V28.9842" stroke="#F7A387" stroke-linecap="round" stroke-linejoin="round"/>
<path d="M53.7837 29.3025H57.2283C57.3003 29.3025 57.3695 29.2741 57.4206 29.2233C57.4713 29.1726 57.4999 29.1038 57.4999 29.0321C57.4999 28.9604 57.4713 28.8916 57.4206 28.8409C57.3695 28.7901 57.3003 28.7617 57.2283 28.7617H53.7692C53.6971 28.7617 53.6283 28.7901 53.5772 28.8409C53.5262 28.8916 53.4976 28.9604 53.4976 29.0321C53.4976 29.1038 53.5262 29.1726 53.5772 29.2233C53.6283 29.2741 53.6971 29.3025 53.7692 29.3025H53.7837Z" fill="#F7A387"/>
<path d="M50.0458 25.898H57.1269C57.199 25.898 57.2682 25.8696 57.3189 25.8188C57.37 25.7681 57.3986 25.6993 57.3986 25.6276C57.3986 25.5559 57.37 25.4871 57.3189 25.4364C57.2682 25.3856 57.199 25.3571 57.1269 25.3571H50.0458C49.9737 25.3571 49.9046 25.3856 49.8539 25.4364C49.8028 25.4871 49.7742 25.5559 49.7742 25.6276C49.7742 25.6993 49.8028 25.7681 49.8539 25.8188C49.9046 25.8696 49.9737 25.898 50.0458 25.898Z" fill="#F7A387"/>
<path d="M52.219 27.6362H57.1269C57.199 27.6362 57.2682 27.6077 57.3189 27.557C57.37 27.5063 57.3986 27.4375 57.3986 27.3658C57.3986 27.294 57.37 27.2253 57.3189 27.1745C57.2682 27.1238 57.199 27.0953 57.1269 27.0953H52.219C52.147 27.0953 52.0778 27.1238 52.0271 27.1745C51.976 27.2253 51.9474 27.294 51.9474 27.3658C51.9474 27.4375 51.976 27.5063 52.0271 27.557C52.0778 27.6077 52.147 27.6362 52.219 27.6362Z" fill="#F7A387"/>
<path d="M57.5217 22.4146H29.2698V25.1263H57.5217V22.4146Z" fill="#A72E08"/>
<path d="M57.471 33.355H29.219V36.4201H57.471V33.355Z" fill="#A72E08"/>
<path d="M57.4347 36.5214H55.276V94.3969H57.4347V36.5214Z" fill="#A72E08"/>
<path d="M29.2155 38.2231C29.8879 38.2231 30.5328 38.4892 31.0083 38.9623C31.4838 39.4357 31.7509 40.0776 31.7509 40.7472V94.1152H29.2155V38.2231Z" fill="#F7A387"/>
<path d="M29.3676 25.5842V22.7175H57.2573V40.7328" stroke="#181828" stroke-width="3" stroke-linecap="round" stroke-linejoin="round"/>
<path d="M29.3676 43.8234V28.2856" stroke="#181828" stroke-width="3" stroke-linecap="round" stroke-linejoin="round"/>
<path d="M26.8646 50.1227H29.0379" stroke="#181828" stroke-width="4" stroke-miterlimit="10"/>
<path d="M18.5339 49.4375V43.9926H26.5024V69.2342H18.5339V61.1316" stroke="#181828" stroke-width="2" stroke-linecap="round" stroke-linejoin="round"/>
<path d="M18.5339 59.2309V54.3737" stroke="#181828" stroke-width="2" stroke-linecap="round" stroke-linejoin="round"/>
<path d="M18.5339 52.4839V51.5932" stroke="#181828" stroke-width="2" stroke-linecap="round" stroke-linejoin="round"/>
<path d="M43.3124 37.8625C45.6178 37.8625 47.8291 38.7744 49.4594 40.3971C51.0896 42.0201 52.0053 44.2215 52.0053 46.5167V65.9889H34.6195V46.5167C34.6195 44.2215 35.5353 42.0201 37.1658 40.3971C38.7957 38.7744 41.007 37.8625 43.3124 37.8625Z" fill="#C8EEFD"/>
<path d="M43.3124 38.8281C45.4577 38.8281 47.5151 39.6759 49.0327 41.185C50.5507 42.6941 51.4048 44.7412 51.4077 46.8766V65.0073H35.2208V46.8766C35.2208 44.7394 36.0737 42.6894 37.5917 41.1781C39.1101 39.6665 41.1692 38.8173 43.316 38.8173L43.3124 38.8281Z" stroke="#4FCDFF" stroke-width="4" stroke-miterlimit="10"/>
<path d="M43.4284 71.8204C45.782 71.8204 48.0389 72.7511 49.7032 74.408C51.3675 76.0646 52.3024 78.3118 52.3024 80.6549V94.1772H34.5543V80.6549C34.5543 78.3118 35.4892 76.0646 37.1535 74.408C38.8175 72.7511 41.0748 71.8204 43.4284 71.8204Z" fill="#C8EEFD"/>
<path d="M43.3124 72.4402C45.4596 72.4402 47.5187 73.2891 49.0367 74.8007C50.5551 76.3119 51.4077 78.3619 51.4077 80.4995V93.1204H35.2208V80.4995C35.2208 78.3627 36.0732 76.313 37.5907 74.8018C39.1079 73.2905 41.166 72.441 43.3124 72.4402Z" stroke="#4FCDFF" stroke-width="3" stroke-miterlimit="10"/>
<path d="M29.7623 39.3048H32.2978" stroke="#181828" stroke-width="2" stroke-linecap="round" stroke-linejoin="round"/>
<path d="M33.7828 39.8313C34.0608 39.8313 34.2862 39.6067 34.2862 39.3301C34.2862 39.0531 34.0608 38.8289 33.7828 38.8289C33.5047 38.8289 33.2793 39.0531 33.2793 39.3301C33.2793 39.6067 33.5047 39.8313 33.7828 39.8313Z" fill="#181828"/>
<path d="M34.6521 22.8978V25.0613" stroke="#F7A387" stroke-linecap="round" stroke-linejoin="round"/>
<path d="M33.312 25.5163V26.9587" stroke="#F7A387" stroke-linecap="round" stroke-linejoin="round"/>
<path d="M35.8693 27.1925V28.6349" stroke="#F7A387" stroke-linecap="round" stroke-linejoin="round"/>
<path d="M38.908 27.1418V28.9448" stroke="#F7A387" stroke-linecap="round" stroke-linejoin="round"/>
<path d="M37.0426 25.5163V26.9587" stroke="#F7A387" stroke-linecap="round" stroke-linejoin="round"/>
<path d="M31.9356 80.0521H29.4001" stroke="#202020" stroke-width="2" stroke-miterlimit="10"/>
<path d="M57.2899 80.0521H54.7545" stroke="#202020" stroke-width="2" stroke-miterlimit="10"/>
<path d="M57.2899 62.3829H54.7545" stroke="#202020" stroke-width="2" stroke-miterlimit="10"/>
<path d="M57.2899 36.4201H54.7545" stroke="#202020" stroke-width="2" stroke-miterlimit="10"/>
<path d="M22.5182 51.2045C23.5184 51.2045 24.3292 50.3971 24.3292 49.4015C24.3292 48.4059 23.5184 47.5985 22.5182 47.5985C21.518 47.5985 20.7072 48.4059 20.7072 49.4015C20.7072 50.3971 21.518 51.2045 22.5182 51.2045Z" fill="#FA4040"/>
<path d="M22.5182 64.9071C23.5184 64.9071 24.3292 64.0997 24.3292 63.1041C24.3292 62.1085 23.5184 61.3011 22.5182 61.3011C21.518 61.3011 20.7072 62.1085 20.7072 63.1041C20.7072 64.0997 21.518 64.9071 22.5182 64.9071Z" fill="#FA4040"/>
<path d="M60.5498 30.6506H25.7781V33.5353H60.5498V30.6506Z" fill="#889FAA"/>
<path d="M25.7781 30.6506H58.152C58.152 30.8873 58.1053 31.1218 58.014 31.3405C57.9231 31.5593 57.7898 31.758 57.6213 31.9255C57.4533 32.0929 57.2537 32.2257 57.0338 32.3163C56.8143 32.4069 56.5789 32.4535 56.3409 32.4535H25.7781V30.6506Z" fill="#C5D5DC"/>
<path d="M59.8254 1.63041V16.4148C59.8214 16.6533 59.7236 16.8807 59.553 17.048C59.382 17.2153 59.152 17.3091 58.9126 17.3091H27.763C27.5209 17.3091 27.2887 17.2133 27.1176 17.0429C26.9464 16.8725 26.8502 16.6414 26.8502 16.4004V14.6695C30.3163 11.8321 34.7708 10.4783 39.2377 10.9049C43.0625 11.2943 46.652 12.9783 50.466 13.4291C51.951 13.6094 53.6136 13.5481 54.7255 12.5456C55.555 11.7992 55.9136 10.6561 56.0331 9.54906C56.1599 8.36991 56.0331 7.11504 55.3847 6.12341C55.1167 5.71954 54.769 5.37337 54.4973 4.9695C54.0142 4.19055 53.7443 3.29913 53.715 2.38405C53.6516 1.83064 53.7186 1.27011 53.9106 0.746954L53.9287 0.707289H58.8945C59.0169 0.704851 59.139 0.727035 59.2527 0.772517C59.3665 0.817999 59.4701 0.885848 59.557 0.972009C59.6439 1.05817 59.7124 1.16088 59.7584 1.274C59.8047 1.38712 59.8272 1.50834 59.8254 1.63041Z" fill="#D6E6FF"/>
<path d="M60.6983 20.1933H25.9266V23.0781H60.6983V20.1933Z" fill="#C5D5DC"/>
<path d="M26.1403 20.1398H45.185C45.185 20.5223 45.0322 20.8892 44.7605 21.1597C44.4889 21.4302 44.1205 21.5822 43.7362 21.5822H26.1403V20.1398Z" fill="white"/>
<path d="M40.4075 20.1933H60.6983V23.0781H25.9266V20.1933H33.5655" stroke="#181828" stroke-width="2" stroke-miterlimit="10"/>
<path d="M35.047 20.1933H39.1434" stroke="#181828" stroke-width="2" stroke-miterlimit="10"/>
<path d="M41.8817 0.360603H58.88C59.1219 0.360603 59.3541 0.456341 59.5254 0.626755C59.6968 0.797168 59.7927 1.0283 59.7927 1.2693V16.0537C59.7891 16.2922 59.691 16.5196 59.5204 16.6869C59.3498 16.8542 59.1198 16.948 58.88 16.948H27.7485C27.6284 16.9484 27.5093 16.9253 27.3981 16.8798C27.2869 16.8344 27.1859 16.7675 27.1008 16.6831C27.0156 16.5986 26.9481 16.4983 26.902 16.3878C26.8559 16.2774 26.8322 16.1589 26.8322 16.0393V1.25488C26.836 1.01576 26.9343 0.787775 27.1058 0.620369C27.2774 0.452959 27.5083 0.359625 27.7485 0.360603H34.3189" stroke="#181828" stroke-width="2" stroke-miterlimit="10"/>
<path d="M35.9053 0.360596H40.3749" stroke="#181828" stroke-width="2" stroke-miterlimit="10"/>
<path d="M30.8598 16.948H29.3856V19.8327H30.8598V16.948Z" fill="#181828"/>
<path d="M57.366 16.948H55.8918V19.8327H57.366V16.948Z" fill="#181828"/>
<path d="M44.1128 16.948H42.6387V19.8327H44.1128V16.948Z" fill="#181828"/>
<path d="M30.4868 4.68774C31.0869 4.68774 31.5734 4.20342 31.5734 3.60595C31.5734 3.0085 31.0869 2.52417 30.4868 2.52417C29.8867 2.52417 29.4001 3.0085 29.4001 3.60595C29.4001 4.20342 29.8867 4.68774 30.4868 4.68774Z" fill="#FA4040"/>
<path d="M30.4868 14.4238C31.0869 14.4238 31.5734 13.9395 31.5734 13.342C31.5734 12.7445 31.0869 12.2602 30.4868 12.2602C29.8867 12.2602 29.4001 12.7445 29.4001 13.342C29.4001 13.9395 29.8867 14.4238 30.4868 14.4238Z" fill="#FA4040"/>
<path d="M56.2033 4.68774C56.8035 4.68774 57.2899 4.20342 57.2899 3.60595C57.2899 3.0085 56.8035 2.52417 56.2033 2.52417C55.6031 2.52417 55.1167 3.0085 55.1167 3.60595C55.1167 4.20342 55.6031 4.68774 56.2033 4.68774Z" fill="#FA4040"/>
<path d="M56.2033 14.4238C56.8035 14.4238 57.2899 13.9395 57.2899 13.342C57.2899 12.7445 56.8035 12.2602 56.2033 12.2602C55.6031 12.2602 55.1167 12.7445 55.1167 13.342C55.1167 13.9395 55.6031 14.4238 56.2033 14.4238Z" fill="#FA4040"/>
<path d="M56.0077 40.4007H52.65C52.328 40.4007 52.0669 40.66 52.0669 40.9794C52.0669 41.2989 52.328 41.5582 52.65 41.5582H56.0077C56.3297 41.5582 56.5908 41.2989 56.5908 40.9794C56.5908 40.66 56.3297 40.4007 56.0077 40.4007Z" fill="#A72E08"/>
<path d="M55.4536 69.068H48.8361C48.5141 69.068 48.2529 69.3272 48.2529 69.6467C48.2529 69.9662 48.5141 70.2255 48.8361 70.2255H55.4536C55.7756 70.2255 56.0367 69.9662 56.0367 69.6467C56.0367 69.3272 55.7756 69.068 55.4536 69.068Z" fill="#A72E08"/>
<path d="M46.862 70.2399C47.2119 70.2399 47.4959 69.9575 47.4959 69.6089C47.4959 69.2605 47.2119 68.9778 46.862 68.9778C46.5118 68.9778 46.2281 69.2605 46.2281 69.6089C46.2281 69.9575 46.5118 70.2399 46.862 70.2399Z" fill="#A72E08"/>
<path opacity="0.8" d="M51.7554 77.0158L34.547 91.4396V87.1161L49.9444 74.4953L51.7554 77.0158Z" fill="white"/>
<path opacity="0.8" d="M51.7554 84.8797L40.3423 94.2551L34.547 94.2588L52.1176 80.1956L51.7554 84.8797Z" fill="white"/>
<path opacity="0.7" d="M51.7554 48.8894L34.547 63.3132V58.9897L51.7952 44.7715L51.7554 48.8894Z" fill="white"/>
<path opacity="0.7" d="M51.7554 56.7576L40.3423 66.1331L34.547 66.1367L52.1176 52.0735L51.7554 56.7576Z" fill="white"/>
<path d="M57.2573 45.7195V94.1149H29.3676V87.4367" stroke="#181828" stroke-width="3" stroke-linecap="round" stroke-linejoin="round"/>
<path d="M43.3125 71.7584C45.6661 71.7584 47.9233 72.6891 49.5873 74.346C51.2516 76.0029 52.1865 78.2498 52.1865 80.5929V94.1152H34.4385V80.5929C34.4385 78.2498 35.3734 76.0029 37.0376 74.346C38.702 72.6891 40.9589 71.7584 43.3125 71.7584Z" stroke="#181828" stroke-width="2" stroke-miterlimit="10"/>
<path d="M43.1639 71.7584V93.7546" stroke="#202020" stroke-width="2" stroke-miterlimit="10"/>
<path d="M52.219 78.9703H34.4709" stroke="#202020" stroke-width="2" stroke-miterlimit="10"/>
<path d="M39.1797 77.2502V78.9703" stroke="#202020" stroke-width="2" stroke-miterlimit="10"/>
<path d="M39.1797 72.4796V75.8439" stroke="#202020" stroke-width="2" stroke-miterlimit="10"/>
<path d="M47.1482 72.4796V78.9703" stroke="#202020" stroke-width="2" stroke-miterlimit="10"/>
<path d="M29.574 49.1592C29.9929 49.1621 30.3936 49.3297 30.6888 49.6258C30.9839 49.9215 31.1496 50.3217 31.1496 50.7386V54.1787C31.1496 54.5977 30.9824 54.9994 30.6849 55.2954C30.3874 55.5918 29.9839 55.7581 29.5631 55.7581V49.1592H29.574Z" fill="white"/>
<path d="M42.0316 54.1566C42.2511 53.9742 42.2808 53.6489 42.0975 53.4304C41.9146 53.2115 41.5879 53.182 41.368 53.3644L37.0701 56.9321C36.8503 57.1146 36.8206 57.4395 37.0038 57.6584C37.1871 57.8769 37.5138 57.9065 37.7333 57.724L42.0316 54.1566Z" fill="white"/>
<path d="M49.2971 49.4505C49.5166 49.2681 49.5463 48.9428 49.363 48.7243C49.1801 48.5054 48.8534 48.4758 48.6335 48.6583L44.3356 52.226C44.1158 52.4085 44.0861 52.7334 44.2693 52.9523C44.4526 53.1711 44.7793 53.2004 44.9988 53.0183L49.2971 49.4505Z" fill="white"/>
<path d="M50.6399 56.8932C50.8594 56.7111 50.8891 56.3858 50.7058 56.167C50.5229 55.9484 50.1962 55.9189 49.9763 56.1013L45.6784 59.6691C45.4585 59.8512 45.4288 60.1764 45.6121 60.3953C45.7954 60.6138 46.1221 60.6434 46.3416 60.4609L50.6399 56.8932Z" fill="white"/>
<path d="M43.4505 60.2738C43.6703 60.0917 43.7 59.7664 43.5167 59.5475C43.3335 59.329 43.0068 59.2995 42.7873 59.4819L38.489 63.0496C38.2695 63.2317 38.2398 63.557 38.4231 63.7759C38.606 63.9944 38.9327 64.024 39.1525 63.8415L43.4505 60.2738Z" fill="white"/>
<path d="M29.574 71.5597C29.9935 71.5626 30.3948 71.7306 30.69 72.0274C30.9853 72.3242 31.1505 72.7251 31.1496 73.1427V76.5828C31.1496 77.0018 30.9824 77.4035 30.6849 77.6995C30.3874 77.9959 29.9839 78.1622 29.5631 78.1622V71.5597H29.574Z" fill="white"/>
<path d="M29.3676 84.5346V46.1673" stroke="#181828" stroke-width="3" stroke-linecap="round" stroke-linejoin="round"/>
<path d="M43.3124 37.8625C45.6178 37.8625 47.8291 38.7744 49.4594 40.3971C51.0896 42.0201 52.0053 44.2215 52.0053 46.5167V65.9889H34.6195V46.5167C34.6195 44.2215 35.5353 42.0201 37.1658 40.3971C38.7957 38.7744 41.007 37.8625 43.3124 37.8625Z" stroke="#181828" stroke-width="2" stroke-miterlimit="10"/>
<path d="M43.1639 46.1561V66.3494" stroke="#202020" stroke-width="2" stroke-miterlimit="10"/>
<path d="M52.219 46.1561H34.4709" stroke="#202020" stroke-width="2" stroke-miterlimit="10"/>
<path d="M36.9665 47.3717H36.9629C36.6228 47.3717 36.3472 47.6461 36.3472 47.9847V52.8347C36.3472 53.1733 36.6228 53.4477 36.9629 53.4477H36.9665C37.3066 53.4477 37.5823 53.1733 37.5823 52.8347V47.9847C37.5823 47.6461 37.3066 47.3717 36.9665 47.3717Z" fill="white"/>
<path d="M10.6271 77.1925H10.6234C10.2834 77.1925 10.0077 77.4669 10.0077 77.8055V82.6555C10.0077 82.9941 10.2834 83.2686 10.6234 83.2686H10.6271C10.9671 83.2686 11.2428 82.9941 11.2428 82.6555V77.8055C11.2428 77.4669 10.9671 77.1925 10.6271 77.1925Z" fill="white"/>
<path d="M31.3923 25.4586H43.1821C43.2541 25.4586 43.3233 25.43 43.374 25.3793C43.4251 25.3286 43.4537 25.2598 43.4537 25.1881C43.4537 25.1164 43.4251 25.0476 43.374 24.9968C43.3233 24.9461 43.2541 24.9177 43.1821 24.9177H31.3923C31.3202 24.9177 31.2511 24.9461 31.2002 24.9968C31.1492 25.0476 31.1206 25.1164 31.1206 25.1881C31.1206 25.2598 31.1492 25.3286 31.2002 25.3793C31.2511 25.43 31.3202 25.4586 31.3923 25.4586Z" fill="#F7A387"/>
<path d="M31.3923 27.3799H46.8041C46.8762 27.3799 46.9454 27.3514 46.9961 27.3006C47.0471 27.2499 47.0758 27.1811 47.0758 27.1094C47.0758 27.0377 47.0471 26.9689 46.9961 26.9182C46.9454 26.8674 46.8762 26.839 46.8041 26.839H31.3923C31.3202 26.839 31.2511 26.8674 31.2002 26.9182C31.1492 26.9689 31.1206 27.0377 31.1206 27.1094C31.1206 27.1811 31.1492 27.2499 31.2002 27.3006C31.2511 27.3514 31.3202 27.3799 31.3923 27.3799Z" fill="#F7A387"/>
<path d="M32.4788 29.3025H43.182C43.2541 29.3025 43.3233 29.2741 43.374 29.2233C43.425 29.1726 43.4536 29.1038 43.4536 29.0321C43.4536 28.9604 43.425 28.8916 43.374 28.8409C43.3233 28.7901 43.2541 28.7617 43.182 28.7617H32.4788C32.4068 28.7617 32.3377 28.7901 32.2867 28.8409C32.2358 28.8916 32.2072 28.9604 32.2072 29.0321C32.2072 29.1038 32.2358 29.1726 32.2867 29.2233C32.3377 29.2741 32.4068 29.3025 32.4788 29.3025Z" fill="#F7A387"/>
<path d="M42.9539 32.8433C43.282 32.8433 43.5479 32.5785 43.5479 32.2519C43.5479 31.9253 43.282 31.6605 42.9539 31.6605C42.6257 31.6605 42.3599 31.9253 42.3599 32.2519C42.3599 32.5785 42.6257 32.8433 42.9539 32.8433Z" fill="#889FAA"/>
<path d="M41.1175 32.8971C41.3656 32.8971 41.5666 32.6968 41.5666 32.4499C41.5666 32.203 41.3656 32.0028 41.1175 32.0028C40.8694 32.0028 40.6683 32.203 40.6683 32.4499C40.6683 32.6968 40.8694 32.8971 41.1175 32.8971Z" fill="#889FAA"/>
<path d="M43.9354 32.0537C44.0716 32.0537 44.1817 31.9439 44.1817 31.8085C44.1817 31.6731 44.0716 31.5633 43.9354 31.5633C43.7996 31.5633 43.6891 31.6731 43.6891 31.8085C43.6891 31.9439 43.7996 32.0537 43.9354 32.0537Z" fill="#889FAA"/>
<path d="M26.0137 30.7618H30.1138C30.1138 30.978 30.0276 31.1853 29.8741 31.3381C29.7205 31.4909 29.5124 31.5768 29.2952 31.5768H26.0137V30.7618Z" fill="white"/>
<path d="M30.4832 30.7618H34.5833C34.5833 30.978 34.497 31.1853 34.3435 31.3381C34.19 31.4909 33.9818 31.5768 33.7647 31.5768H31.3017C31.1942 31.5768 31.0878 31.5557 30.9885 31.5148C30.8891 31.4738 30.7989 31.4138 30.7229 31.3381C30.6469 31.2624 30.5866 31.1726 30.5455 31.0737C30.5043 30.9748 30.4832 30.8689 30.4832 30.7618Z" fill="white"/>
<path d="M51.8822 30.6506H60.6983V33.5353H25.9266V30.6506H50.0567" stroke="#181828" stroke-width="2" stroke-miterlimit="10"/>
<path d="M23.0508 70.9654V93.6432" stroke="#181828" stroke-width="2" stroke-linecap="round" stroke-linejoin="round"/>
<path d="M10.627 76.1937C11.0071 76.1937 11.3152 75.8868 11.3152 75.5086C11.3152 75.1303 11.0071 74.8234 10.627 74.8234C10.247 74.8234 9.93884 75.1303 9.93884 75.5086C9.93884 75.8868 10.247 76.1937 10.627 76.1937Z" fill="white"/>
<path d="M21.3918 44.0326C21.3918 44.0326 29.23 42.7705 29.23 35.5369" stroke="#181828" stroke-width="2" stroke-linecap="round" stroke-linejoin="round"/>
<path d="M2.8396 66.793H7.52289" stroke="#181828" stroke-linecap="round" stroke-linejoin="round"/>
<path d="M29.7623 68.6821H32.2978" stroke="#181828" stroke-width="2" stroke-linecap="round" stroke-linejoin="round"/>
<path d="M33.7828 69.2082C34.0608 69.2082 34.2862 68.9839 34.2862 68.707C34.2862 68.4304 34.0608 68.2058 33.7828 68.2058C33.5047 68.2058 33.2793 68.4304 33.2793 68.707C33.2793 68.9839 33.5047 69.2082 33.7828 69.2082Z" fill="#181828"/>
<path d="M89.3124 93.7503H0.210083V96.6351H89.3124V93.7503Z" fill="#889FAA"/>
<path d="M83.5171 93.7503H0.210083V95.1927H83.5171V93.7503Z" fill="#C5D5DC"/>
<path d="M80.6485 93.7503H89.4645V96.6351H0.362183V93.7503H80.9962" stroke="#181828" stroke-width="2" stroke-miterlimit="10"/>
<path d="M82.0176 57.984H74.0817V63.0576H82.0176V57.984Z" fill="white"/>
<path d="M82.0176 57.9036H74.0817V59.0503H82.0176V57.9036Z" fill="#C5D5DC"/>
<path d="M82.0176 57.9036H74.0817V62.9772H82.0176V57.9036Z" stroke="#181828" stroke-width="2" stroke-linecap="round" stroke-linejoin="round"/>
<path d="M78.095 61.4886C78.5651 61.4886 78.9461 61.1093 78.9461 60.6412C78.9461 60.1732 78.5651 59.7938 78.095 59.7938C77.6248 59.7938 77.2438 60.1732 77.2438 60.6412C77.2438 61.1093 77.6248 61.4886 78.095 61.4886Z" stroke="#181828" stroke-width="1.5" stroke-linecap="round" stroke-linejoin="round"/>
</g>
</g>
<defs>
<clipPath id="clip0_678_63">
<rect width="92" height="97" fill="white"/>
</clipPath>
</defs>
</svg>
