<svg width="236" height="137" viewBox="0 0 236 137" fill="none" xmlns="http://www.w3.org/2000/svg">
<g clip-path="url(#clip0_601_1091)">
<mask id="mask0_601_1091" style="mask-type:luminance" maskUnits="userSpaceOnUse" x="0" y="0" width="236" height="137">
<path d="M235.824 0H0V136.842H235.824V0Z" fill="white"/>
</mask>
<g mask="url(#mask0_601_1091)">
<path d="M223.38 82.7631C215.046 104.433 199.377 123.417 177.612 131.761C174.782 132.844 171.891 133.764 168.955 134.514C153.427 138.489 136.44 137.106 122.126 129.862C116.051 126.785 110.511 122.72 104.414 119.687C98.3168 116.654 91.3542 114.669 84.7179 116.166C79.0041 117.455 74.1832 121.149 69.3293 124.439C57.8869 132.197 44.1285 138.337 30.5791 135.672C24.3445 134.447 18.2052 131.056 15.3097 125.386C8.91005 112.852 20.9796 97.9491 18.5353 84.0871C16.9711 75.2152 9.82691 68.5715 5.38564 60.7418C-2.21514 47.3494 -1.31662 29.5596 7.59527 17.0105C16.5072 4.46141 32.9593 -2.19524 48.0435 0.651559C66.4376 4.12444 80.3445 19.756 98.2306 25.2876C109.416 28.7439 121.561 27.7127 132.244 23.1608C149.505 15.8044 173.219 4.52218 192.643 6.35989C202.973 7.33767 213.104 11.9412 219.922 19.802C228.54 29.7253 231.124 43.8139 229.686 56.8988C228.7 65.7565 226.58 74.4496 223.38 82.7631Z" fill="url(#paint0_linear_601_1091)"/>
<path d="M228.926 99.9032C228.542 99.9026 228.161 99.8564 227.789 99.7651C226.611 99.4745 225.59 98.744 224.932 97.7224C224.273 96.7008 224.028 95.4652 224.246 94.2681C224.462 93.0711 225.128 92.0025 226.103 91.2807C227.079 90.559 228.293 90.2384 229.496 90.3846C230.699 90.5308 231.801 91.1326 232.576 92.0671C233.354 93.0016 233.745 94.1985 233.673 95.4133C233.6 96.6281 233.068 97.7692 232.186 98.6035C231.304 99.4381 230.138 99.9028 228.926 99.9032ZM228.926 92.5045C228.295 92.5068 227.688 92.7407 227.216 93.1618C226.745 93.583 226.444 94.1625 226.369 94.7911C226.296 95.4196 226.452 96.0539 226.811 96.5747C227.169 97.0954 227.704 97.4665 228.317 97.618C228.671 97.7036 229.039 97.7128 229.399 97.6451C229.756 97.5775 230.095 97.4344 230.394 97.2253C230.693 97.0163 230.946 96.7459 231.133 96.4322C231.32 96.1184 231.441 95.7683 231.484 95.405C231.528 95.0415 231.493 94.6731 231.385 94.3238C231.276 93.9744 231.095 93.6522 230.853 93.3782C230.611 93.1042 230.315 92.8847 229.982 92.7341C229.65 92.5835 229.29 92.5052 228.926 92.5045Z" fill="#E7F6FF"/>
<path d="M224.585 104.969C224.855 103.849 224.171 102.721 223.054 102.449C221.939 102.178 220.817 102.865 220.545 103.985C220.276 105.105 220.96 106.233 222.075 106.504C223.191 106.776 224.314 106.088 224.585 104.969Z" fill="#E7F6FF"/>
<path d="M10.1203 99.448C8.86077 99.4204 7.66297 98.895 6.78689 97.9859C5.91079 97.0768 5.42713 95.8575 5.4409 94.5926C5.45465 93.3276 5.96474 92.1191 6.8604 91.2295C7.75605 90.3397 8.965 89.8409 10.2248 89.8409C11.4846 89.8409 12.6935 90.3397 13.5892 91.2295C14.4849 92.1191 14.9949 93.3276 15.0087 94.5926C15.0224 95.8575 14.5388 97.0768 13.6627 97.9859C12.7866 98.895 11.5888 99.4204 10.3293 99.448H10.1203ZM10.1203 92.0511H10.0121C9.33184 92.066 8.68486 92.3496 8.21162 92.8405C7.73839 93.3314 7.47708 93.9899 7.48445 94.6733C7.49181 95.3564 7.76725 96.009 8.25097 96.4896C8.73467 96.97 9.3876 97.2396 10.068 97.2396C10.7484 97.2396 11.4013 96.97 11.8851 96.4896C12.3688 96.009 12.6442 95.3564 12.6516 94.6733C12.6589 93.9899 12.3976 93.3314 11.9244 92.8405C11.4511 92.3496 10.8042 92.066 10.1239 92.0511H10.1203Z" fill="#E7F6FF"/>
<path d="M6.70936 107.51C7.85573 107.46 8.74496 106.487 8.6955 105.336C8.64605 104.185 7.67665 103.292 6.53028 103.341C5.38393 103.391 4.4947 104.364 4.54414 105.516C4.5936 106.667 5.56299 107.56 6.70936 107.51Z" fill="#E7F6FF"/>
<path d="M130.026 21.7758C128.884 21.7767 127.78 21.3674 126.913 20.6216C126.045 19.8759 125.473 18.843 125.299 17.71C125.124 16.5771 125.36 15.4189 125.962 14.445C126.564 13.4712 127.494 12.7461 128.583 12.401C129.671 12.0559 130.847 12.1136 131.897 12.5636C132.947 13.0136 133.802 13.8262 134.307 14.8543C134.812 15.8825 134.934 17.0582 134.65 18.1687C134.367 19.2793 133.697 20.2511 132.761 20.9085C131.959 21.472 131.004 21.7747 130.026 21.7758ZM130.011 14.3807C129.343 14.38 128.7 14.6382 128.217 15.1015C127.734 15.5648 127.448 16.1974 127.418 16.8675C127.388 17.5376 127.617 18.1935 128.056 18.6985C128.496 19.2034 129.113 19.5185 129.778 19.5779C130.443 19.6374 131.106 19.4369 131.628 19.0178C132.149 18.5989 132.49 17.9939 132.578 17.3291C132.667 16.6642 132.496 15.9907 132.102 15.449C131.708 14.9073 131.121 14.5391 130.464 14.4212C130.314 14.3945 130.163 14.3809 130.011 14.3807Z" fill="#E7F6FF"/>
<path d="M120.271 21.5136C121.21 20.852 121.438 19.5511 120.779 18.6075C120.12 17.6642 118.825 17.4357 117.885 18.0973C116.946 18.7589 116.718 20.0598 117.377 21.0034C118.036 21.9467 119.332 22.1752 120.271 21.5136Z" fill="#E7F6FF"/>
<path d="M235.817 46.5242C235.817 44.4996 235.015 42.5577 233.59 41.126C232.164 39.6941 230.231 38.8898 228.214 38.8898C228.045 38.8898 227.878 38.8898 227.713 38.9063C227.724 38.7406 227.73 38.5731 227.73 38.4036C227.73 37.3187 227.499 36.2461 227.053 35.2576C226.608 34.269 225.959 33.3871 225.146 32.6708C224.334 31.9545 223.38 31.4201 222.346 31.1034C221.314 30.7865 220.224 30.6946 219.154 30.8337C218.081 30.9729 217.052 31.3397 216.132 31.9098C215.213 32.4801 214.424 33.2406 213.821 34.1404C213.218 35.0405 212.813 36.0594 212.631 37.129C212.451 38.1989 212.499 39.2951 212.774 40.3445C211.855 39.6755 210.799 39.2214 209.682 39.0157C208.566 38.81 207.418 38.8581 206.323 39.1562C205.226 39.4542 204.212 39.9948 203.351 40.7384C202.491 41.4819 201.808 42.4094 201.35 43.4528C200.893 44.4963 200.675 45.6291 200.712 46.7684C200.749 47.9077 201.038 49.0241 201.561 50.0363C202.082 51.0483 202.822 51.9302 203.728 52.617C204.634 53.3041 205.681 53.7786 206.794 54.0058C207.249 55.2152 208.001 56.2891 208.982 57.1268C209.961 57.9643 211.138 58.5382 212.398 58.7947C213.66 59.0512 214.967 58.982 216.194 58.5935C217.421 58.2048 218.53 57.5094 219.418 56.5727C220.325 57.2607 221.374 57.7354 222.489 57.9619C223.604 58.1885 224.754 58.1613 225.856 57.8821C226.96 57.603 227.985 57.0789 228.859 56.349C229.734 55.6189 230.433 54.7011 230.908 53.6633C232.351 53.114 233.592 52.137 234.471 50.8618C235.347 49.5866 235.817 48.0739 235.817 46.5242Z" fill="white"/>
<path d="M35.1066 28.173C35.1075 27.17 34.9117 26.1766 34.5303 25.2496C34.1487 24.3226 33.589 23.4802 32.883 22.7705C32.1772 22.0609 31.339 21.4978 30.4163 21.1136C29.4937 20.7293 28.5046 20.5314 27.5058 20.5312C27.3371 20.5312 27.1702 20.5312 27.0052 20.5478C27.0162 20.3821 27.0217 20.2145 27.0217 20.0451C27.0215 18.9601 26.791 17.8875 26.3454 16.8989C25.9 15.9104 25.2498 15.0286 24.4382 14.3122C23.6266 13.5959 22.6721 13.0615 21.6386 12.7448C20.6051 12.428 19.5163 12.3361 18.4447 12.4751C17.3731 12.6142 16.3433 12.9811 15.424 13.5512C14.5046 14.1215 13.7169 14.8819 13.1133 15.7819C12.5097 16.6818 12.1041 17.7007 11.9234 18.7705C11.7428 19.8403 11.7914 20.9365 12.0659 21.9859C11.147 21.3168 10.0906 20.8627 8.97424 20.6572C7.85783 20.4515 6.70974 20.4995 5.6142 20.7975C4.51868 21.0956 3.50351 21.6362 2.64322 22.3798C1.78293 23.1233 1.09933 24.0509 0.642604 25.0942C0.185877 26.1377 -0.0323952 27.2705 0.00380752 28.4098C0.0400102 29.5489 0.329769 30.6655 0.851819 31.6776C1.37387 32.6898 2.11496 33.5716 3.02071 34.2585C3.92646 34.9453 4.97388 35.42 6.08611 35.6472C6.54065 36.8556 7.29306 37.9284 8.27291 38.7651C9.25276 39.602 10.428 40.1754 11.6887 40.4319C12.9494 40.6884 14.2542 40.6194 15.4811 40.2316C16.7081 39.8438 17.8169 39.1496 18.7039 38.2142C19.6115 38.9021 20.6611 39.3768 21.7754 39.6033C22.8898 39.83 24.0406 39.8027 25.1431 39.5234C26.2455 39.2442 27.2716 38.7204 28.1458 37.9902C29.0199 37.2601 29.7198 36.3426 30.194 35.3047C31.6365 34.7566 32.8788 33.7808 33.7562 32.5071C34.6337 31.2334 35.1046 29.7218 35.1066 28.173Z" fill="white"/>
<path d="M174.97 136.803H65.5886V134.409H174.97C175.286 134.409 175.589 134.535 175.813 134.759C176.036 134.984 176.162 135.288 176.162 135.606C176.162 135.923 176.036 136.228 175.813 136.452C175.589 136.677 175.286 136.803 174.97 136.803Z" fill="#426572"/>
<path d="M60.6962 136.803H54.0086C53.6924 136.803 53.3893 136.677 53.1658 136.452C52.9423 136.228 52.8167 135.923 52.8167 135.606C52.8167 135.288 52.9423 134.984 53.1658 134.759C53.3893 134.535 53.6924 134.409 54.0086 134.409H60.6962C61.0123 134.409 61.3154 134.535 61.5389 134.759C61.7625 134.984 61.8881 135.288 61.8881 135.606C61.8881 135.923 61.7625 136.228 61.5389 136.452C61.3154 136.677 61.0123 136.803 60.6962 136.803Z" fill="#426572"/>
<path d="M49.6682 136.803H47.5374C47.2212 136.803 46.9181 136.677 46.6946 136.452C46.4711 136.228 46.3455 135.923 46.3455 135.606C46.3455 135.288 46.4711 134.984 46.6946 134.759C46.9181 134.535 47.2212 134.409 47.5374 134.409H49.6682C49.9843 134.409 50.2874 134.535 50.5109 134.759C50.7345 134.984 50.8601 135.288 50.8601 135.606C50.8601 135.923 50.7345 136.228 50.5109 136.452C50.2874 136.677 49.9843 136.803 49.6682 136.803Z" fill="#426572"/>
<path d="M213.324 136.803H179.705V134.409H213.324C213.64 134.409 213.944 134.535 214.168 134.759C214.391 134.984 214.516 135.288 214.516 135.606C214.516 135.923 214.391 136.228 214.168 136.452C213.944 136.677 213.64 136.803 213.324 136.803Z" fill="#426572"/>
<path d="M41.4421 136.803H7.8208V134.409H41.4421C41.7582 134.409 42.0614 134.535 42.2849 134.759C42.5084 134.984 42.634 135.288 42.634 135.606C42.634 135.923 42.5084 136.228 42.2849 136.452C42.0614 136.677 41.7582 136.803 41.4421 136.803Z" fill="#426572"/>
<path d="M130.561 32.191V135.736H18.858V32.191C18.86 31.6304 19.0826 31.0935 19.4772 30.697C19.872 30.3008 20.4067 30.0772 20.9649 30.0752H128.452C128.579 30.0752 128.705 30.087 128.83 30.1102C129.315 30.1999 129.753 30.4571 130.069 30.837C130.385 31.2169 130.559 31.6958 130.561 32.191Z" fill="white"/>
<path d="M20.6147 40.3042H130.911V32.8649L128.802 30.0752H32.2075H20.9668L19.2101 32.8649V40.3042H20.6147Z" fill="#E2F2FF"/>
<path d="M132.011 136.841H18.1098V32.1909C18.1108 31.3371 18.4491 30.5186 19.0503 29.9148C19.6514 29.311 20.4667 28.9713 21.317 28.9703H128.802C129.653 28.9713 130.468 29.311 131.069 29.9148C131.67 30.5186 132.009 31.3371 132.01 32.1909L132.011 136.841ZM20.3103 134.632H129.811V32.1909C129.81 31.923 129.704 31.6661 129.516 31.4767C129.327 31.2872 129.071 31.1806 128.804 31.18H21.317C21.0502 31.1806 20.7944 31.2872 20.6057 31.4767C20.417 31.6661 20.3108 31.923 20.3103 32.1909V134.632Z" fill="#426572"/>
<path d="M25.6244 36.997C26.4003 36.997 27.029 36.3654 27.029 35.5865C27.029 34.8074 26.4003 34.176 25.6244 34.176C24.8488 34.176 24.2198 34.8074 24.2198 35.5865C24.2198 36.3654 24.8488 36.997 25.6244 36.997Z" fill="#CADCE8"/>
<path d="M29.8383 36.997C30.6142 36.997 31.2429 36.3654 31.2429 35.5865C31.2429 34.8074 30.6142 34.176 29.8383 34.176C29.0627 34.176 28.4337 34.8074 28.4337 35.5865C28.4337 36.3654 29.0627 36.997 29.8383 36.997Z" fill="#CADCE8"/>
<path d="M34.054 36.997C34.8299 36.997 35.4587 36.3654 35.4587 35.5865C35.4587 34.8074 34.8299 34.176 34.054 34.176C33.2784 34.176 32.6494 34.8074 32.6494 35.5865C32.6494 36.3654 33.2784 36.997 34.054 36.997Z" fill="#CADCE8"/>
<path d="M125.419 34.1745H39.988C39.3297 34.1745 38.7961 34.7103 38.7961 35.3714V35.7986C38.7961 36.4597 39.3297 36.9955 39.988 36.9955H125.419C126.078 36.9955 126.611 36.4597 126.611 35.7986V35.3714C126.611 34.7103 126.078 34.1745 125.419 34.1745Z" fill="#CADCE8"/>
<path d="M204.851 12.0845V135.736H93.153V12.0845C93.1551 11.5239 93.3775 10.9869 93.7723 10.5906C94.1669 10.1942 94.7018 9.97067 95.26 9.96872H202.745C202.872 9.96876 202.998 9.98047 203.123 10.0037C203.607 10.0942 204.046 10.3516 204.361 10.7315C204.676 11.1114 204.849 11.5899 204.851 12.0845Z" fill="white"/>
<path d="M94.9061 20.1977H205.203V12.7584L203.094 9.96872H106.499H97.0149L93.5015 12.7584V20.1977H94.9061Z" fill="#E2F2FF"/>
<path d="M206.294 136.841H92.4012V12.0845C92.4022 11.2306 92.7405 10.412 93.3416 9.80827C93.9429 9.2045 94.7581 8.86487 95.6084 8.86389H203.094C203.943 8.86682 204.757 9.20729 205.357 9.81087C205.956 10.4144 206.292 11.2319 206.294 12.0845V136.841ZM94.5925 134.631H204.093V12.0845C204.093 11.8165 203.987 11.5597 203.798 11.3702C203.609 11.1807 203.354 11.0741 203.087 11.0736H95.6084C95.3416 11.0741 95.0858 11.1807 94.8971 11.3702C94.7084 11.5597 94.6023 11.8165 94.6017 12.0845L94.5925 134.631Z" fill="#426572"/>
<path d="M99.9158 16.8912C100.691 16.8912 101.32 16.2597 101.32 15.4807C101.32 14.7017 100.691 14.0702 99.9158 14.0702C99.14 14.0702 98.5112 14.7017 98.5112 15.4807C98.5112 16.2597 99.14 16.8912 99.9158 16.8912Z" fill="#CADCE8"/>
<path d="M104.13 16.8912C104.906 16.8912 105.534 16.2597 105.534 15.4807C105.534 14.7017 104.906 14.0702 104.13 14.0702C103.354 14.0702 102.725 14.7017 102.725 15.4807C102.725 16.2597 103.354 16.8912 104.13 16.8912Z" fill="#CADCE8"/>
<path d="M108.345 16.8912C109.121 16.8912 109.75 16.2597 109.75 15.4807C109.75 14.7017 109.121 14.0702 108.345 14.0702C107.57 14.0702 106.941 14.7017 106.941 15.4807C106.941 16.2597 107.57 16.8912 108.345 16.8912Z" fill="#CADCE8"/>
<path d="M199.711 14.0702H114.279C113.621 14.0702 113.087 14.606 113.087 15.2671V15.6943C113.087 16.3553 113.621 16.8912 114.279 16.8912H199.711C200.369 16.8912 200.903 16.3553 200.903 15.6943V15.2671C200.903 14.606 200.369 14.0702 199.711 14.0702Z" fill="#CADCE8"/>
<path d="M129.925 33.4451H106.957V59.7237H129.925V33.4451Z" fill="#E8837E"/>
<path d="M186.55 33.4451H132.092V59.7237H186.55V33.4451Z" fill="#E8837E"/>
<path d="M186.55 62.6328H160.838V88.9113H186.55V62.6328Z" fill="#DDE4ED"/>
<path d="M158.67 62.6328H107.247V88.9113H158.67V62.6328Z" fill="#DDE4ED"/>
<path d="M186.695 91.821H107.247V118.1H186.695V91.821Z" fill="#DDE4ED"/>
<path d="M47.9133 97.6027H30.0327V99.4441H47.9133V97.6027Z" fill="#DDE4ED"/>
<path d="M47.9133 102.541H30.0327V104.383H47.9133V102.541Z" fill="#DDE4ED"/>
<path d="M47.9133 107.479H30.0327V109.32H47.9133V107.479Z" fill="#DDE4ED"/>
<path d="M47.9133 112.417H30.0327V114.259H47.9133V112.417Z" fill="#DDE4ED"/>
<path d="M47.9133 117.355H30.0327V119.197H47.9133V117.355Z" fill="#DDE4ED"/>
<path d="M47.9133 122.294H30.0327V124.135H47.9133V122.294Z" fill="#DDE4ED"/>
<path d="M39.2985 84.3815L42.8339 78.294L48.3112 82.9084V87.1235H33.1133L36.8248 81.9768L39.2985 84.3815Z" fill="#DDE4ED"/>
<path d="M55.3069 81.5073H50.0056V75.0292L51.0655 74.0091L55.3069 78.3566V81.5073Z" fill="#DDE4ED"/>
<path d="M35.6219 80.9773C36.1947 80.9769 36.7546 80.8059 37.2306 80.486C37.7066 80.166 38.0774 79.7115 38.2962 79.1797C38.5147 78.6481 38.5716 78.0633 38.4592 77.4993C38.3468 76.9353 38.0704 76.4173 37.6648 76.0111C37.2592 75.6049 36.7428 75.3286 36.1808 75.2172C35.6189 75.1058 35.0365 75.1642 34.5077 75.3852C33.9788 75.6061 33.5272 75.9798 33.2098 76.4585C32.8924 76.9373 32.7235 77.5 32.7246 78.0753C32.7284 78.845 33.0352 79.5819 33.5778 80.1255C34.1206 80.6692 34.8554 80.9753 35.6219 80.9773Z" fill="#DDE4ED"/>
<path opacity="0.2" d="M164.105 58.199V134.326H52.4041V58.199C52.3973 57.6299 52.615 57.081 53.0098 56.6725C53.4046 56.2639 53.9442 56.029 54.511 56.0188H161.996C162.564 56.0284 163.104 56.2634 163.499 56.6718C163.894 57.0804 164.112 57.6295 164.105 58.199Z" fill="#606060"/>
<path d="M160.066 61.8209V135.736H48.3644V61.8209C48.3664 61.2604 48.5889 60.7234 48.9837 60.3269C49.3783 59.9307 49.9132 59.7071 50.4714 59.7051H157.957C158.084 59.7051 158.21 59.7169 158.335 59.7401C158.819 59.83 159.258 60.087 159.574 60.4669C159.89 60.847 160.064 61.3259 160.066 61.8209Z" fill="white"/>
<path d="M50.1211 69.9321H160.416V62.4928L158.309 59.7031H61.712H49.5948L48.7165 62.4928V69.9321H50.1211Z" fill="#E2F2FF"/>
<path d="M55.129 66.2738C55.9047 66.2738 56.5336 65.6422 56.5336 64.8632C56.5336 64.0841 55.9047 63.4527 55.129 63.4527C54.3531 63.4527 53.7244 64.0841 53.7244 64.8632C53.7244 65.6422 54.3531 66.2738 55.129 66.2738Z" fill="#CADCE8"/>
<path d="M59.3447 66.2738C60.1204 66.2738 60.7494 65.6422 60.7494 64.8632C60.7494 64.0841 60.1204 63.4527 59.3447 63.4527C58.5689 63.4527 57.9401 64.0841 57.9401 64.8632C57.9401 65.6422 58.5689 66.2738 59.3447 66.2738Z" fill="#CADCE8"/>
<path d="M63.5605 66.2738C64.3361 66.2738 64.9651 65.6422 64.9651 64.8632C64.9651 64.0841 64.3361 63.4527 63.5605 63.4527C62.7846 63.4527 62.1558 64.0841 62.1558 64.8632C62.1558 65.6422 62.7846 66.2738 63.5605 66.2738Z" fill="#CADCE8"/>
<path d="M154.926 63.4527H69.4944C68.8361 63.4527 68.3025 63.9886 68.3025 64.6496V65.0768C68.3025 65.7379 68.8361 66.2738 69.4944 66.2738H154.926C155.584 66.2738 156.118 65.7379 156.118 65.0768V64.6496C156.118 63.9886 155.584 63.4527 154.926 63.4527Z" fill="#CADCE8"/>
<path d="M80.35 117.042C83.058 117.042 85.2534 114.838 85.2534 112.118C85.2534 109.399 83.058 107.195 80.35 107.195C77.642 107.195 75.4466 109.399 75.4466 112.118C75.4466 114.838 77.642 117.042 80.35 117.042Z" fill="#DDE4ED"/>
<path d="M104.436 117.042C107.144 117.042 109.339 114.838 109.339 112.118C109.339 109.399 107.144 107.195 104.436 107.195C101.728 107.195 99.5326 109.399 99.5326 112.118C99.5326 114.838 101.728 117.042 104.436 117.042Z" fill="#DDE4ED"/>
<path d="M128.522 117.042C131.23 117.042 133.425 114.838 133.425 112.118C133.425 109.399 131.23 107.195 128.522 107.195C125.814 107.195 123.619 109.399 123.619 112.118C123.619 114.838 125.814 117.042 128.522 117.042Z" fill="#DDE4ED"/>
<path d="M143.773 79.2994H65.1008C63.8856 79.2994 62.9003 80.2888 62.9003 81.5091V99.6653C62.9003 100.886 63.8856 101.875 65.1008 101.875H143.773C144.988 101.875 145.973 100.886 145.973 99.6653V81.5091C145.973 80.2888 144.988 79.2994 143.773 79.2994Z" fill="#A8EF9E"/>
<path d="M103.27 122.992H63.5769V125.202H103.27V122.992Z" fill="#E8EDF7"/>
<path d="M127.332 127.4H63.4027V129.61H127.332V127.4Z" fill="#E8EDF7"/>
<path d="M146.826 122.992H108.89V125.202H146.826V122.992Z" fill="#E8EDF7"/>
<path opacity="0.3" d="M51.2305 135.56H49.5801V70.7112H159.998V72.3684H51.2305V135.56Z" fill="#C1CEDE"/>
<path d="M160.084 68.8272H48.8412V71.0369H160.084V68.8272Z" fill="#426572"/>
<path d="M161.516 136.841H47.6162V61.8209C47.6172 60.967 47.9555 60.1485 48.5566 59.5447C49.1578 58.9409 49.9731 58.6014 50.8234 58.6003H158.309C159.159 58.6014 159.974 58.9409 160.576 59.5447C161.177 60.1485 161.515 60.967 161.516 61.8209V136.841ZM49.8149 134.632H159.316V61.8209C159.315 61.553 159.209 61.2961 159.02 61.1066C158.831 60.9171 158.576 60.8105 158.309 60.81H50.8234C50.5566 60.8105 50.3008 60.9171 50.1121 61.1066C49.9234 61.2961 49.8173 61.553 49.8167 61.8209L49.8149 134.632Z" fill="#426572"/>
<path d="M189.678 122.302H169.306V123.775H189.678V122.302Z" fill="#DDE4ED"/>
</g>
</g>
<defs>
<linearGradient id="paint0_linear_601_1091" x1="0.242044" y1="68.3505" x2="230.059" y2="68.3505" gradientUnits="userSpaceOnUse">
<stop stop-color="#C5E9FA"/>
<stop offset="1" stop-color="#C4F4EA"/>
</linearGradient>
<clipPath id="clip0_601_1091">
<rect width="236" height="137" fill="white"/>
</clipPath>
</defs>
</svg>
