<svg width="238" height="214" viewBox="0 0 238 214" fill="none" xmlns="http://www.w3.org/2000/svg">
<g clip-path="url(#clip0_599_90)">
<mask id="mask0_599_90" style="mask-type:luminance" maskUnits="userSpaceOnUse" x="0" y="0" width="238" height="214">
<path d="M237.965 0H0V213.758H237.965V0Z" fill="white"/>
</mask>
<g mask="url(#mask0_599_90)">
<path d="M91.0476 142.899H131.186C131.186 143.853 130.971 144.797 130.553 145.679C130.135 146.56 129.521 147.361 128.749 148.035C127.976 148.71 127.058 149.245 126.048 149.61C125.038 149.975 123.956 150.163 122.863 150.163H99.3713C98.2783 150.163 97.1959 149.975 96.186 149.61C95.1761 149.245 94.2584 148.71 93.4855 148.035C92.7127 147.361 92.0994 146.56 91.6813 145.679C91.2629 144.797 91.0476 143.853 91.0476 142.899Z" fill="#ECF2FA"/>
<path d="M131.357 143.509C131.268 144.746 130.819 145.943 130.05 146.985C129.282 148.028 128.221 148.881 126.968 149.465C126.473 149.672 125.955 149.834 125.422 149.948L125.451 149.882C125.63 149.437 125.686 148.961 125.615 148.493C125.543 148.025 125.346 147.579 125.039 147.191C124.732 146.802 124.324 146.482 123.849 146.257C123.373 146.032 122.843 145.909 122.302 145.896L92.011 145.141C91.8133 144.606 91.6886 144.053 91.6395 143.493C91.8618 143.52 92.0859 143.534 92.3101 143.534H102.894V144.179H105.114V143.534H110.78C110.72 143.646 110.654 143.759 110.595 143.872L119 143.866V143.542H130.749C130.952 143.543 131.155 143.532 131.357 143.509Z" fill="#8BBACC"/>
<path d="M97.1519 143.869H96.4121V149.679H97.1519V143.869Z" fill="#274B5B"/>
<path opacity="0.2" d="M97.706 143.869H96.9662V148.872H97.706V143.869Z" fill="#274B5B"/>
<path opacity="0.2" d="M102.331 143.869H101.591V148.872H102.331V143.869Z" fill="#274B5B"/>
<path opacity="0.2" d="M111.58 143.869H110.84V148.872H111.58V143.869Z" fill="#274B5B"/>
<path opacity="0.2" d="M116.205 143.869H115.465V148.872H116.205V143.869Z" fill="#274B5B"/>
<path opacity="0.2" d="M120.829 143.869H120.089V148.872H120.829V143.869Z" fill="#274B5B"/>
<path opacity="0.3" d="M119.35 143.869H118.61V148.872H119.35V143.869Z" fill="white"/>
<path opacity="0.3" d="M114.911 143.869H114.171V148.872H114.911V143.869Z" fill="white"/>
<path opacity="0.3" d="M110.286 143.869H109.546V148.872H110.286V143.869Z" fill="white"/>
<path opacity="0.3" d="M105.661 143.869H104.922V148.872H105.661V143.869Z" fill="white"/>
<path opacity="0.3" d="M101.037 143.869H100.297V148.872H101.037V143.869Z" fill="white"/>
<path opacity="0.3" d="M96.4121 143.869H95.6722V148.872H96.4121V143.869Z" fill="white"/>
<path opacity="0.2" d="M106.955 143.869H106.215V148.872H106.955V143.869Z" fill="#274B5B"/>
<path d="M101.745 143.869H101.005V149.679H101.745V143.869Z" fill="#274B5B"/>
<path d="M106.341 143.869H105.602V149.679H106.341V143.869Z" fill="#274B5B"/>
<path d="M110.935 143.869H110.195V149.679H110.935V143.869Z" fill="#274B5B"/>
<path d="M120.121 143.869H119.381V149.679H120.121V143.869Z" fill="#274B5B"/>
<path d="M124.714 143.869H123.974V149.679H124.714V143.869Z" fill="#274B5B"/>
<path d="M115.524 143.869H114.785V149.679H115.524V143.869Z" fill="#274B5B"/>
<path opacity="0.4" d="M234.729 89.1493H189.43C189.372 88.3966 189.3 87.643 189.216 86.8884H206.975C207.834 86.8884 208.656 86.5909 209.263 86.0612C209.87 85.5316 210.211 84.8135 210.211 84.0644C210.211 83.3155 209.87 82.5971 209.263 82.0675C208.656 81.5378 207.834 81.2403 206.975 81.2403H188.259C187.343 77.3559 185.889 73.7187 183.654 70.6447C179.274 64.6231 172.44 61.6287 165.709 61.0024C158.978 60.376 152.235 61.8677 145.611 63.4748C136.797 65.6257 126.423 67.5625 119.778 60.4529C115.846 56.2389 114.278 49.3354 115.685 43.3192C116.058 41.8443 116.518 40.3875 117.064 38.954H140.407C141.266 38.954 142.089 38.6565 142.696 38.1269C143.303 37.5972 143.644 36.8789 143.644 36.13C143.644 35.3811 143.303 34.6628 142.696 34.1331C142.089 33.6035 141.266 33.306 140.407 33.306H118.77C118.933 32.436 119.013 31.5558 119.009 30.6742C118.966 28.5518 118.389 26.4635 117.32 24.5568C116.25 22.65 114.714 20.9713 112.82 19.6391C109.423 17.3068 105.447 16.4827 101.537 15.8948C92.8043 14.5597 83.7975 14.1559 75.2912 16.7574C67.2413 9.1781 55.9049 6.61504 46.0134 10.2C43.1895 11.1835 40.6741 12.7391 38.675 14.7383H57.9732C58.8081 14.7383 59.609 15.0277 60.1993 15.5429C60.7898 16.058 61.1213 16.7568 61.1213 17.4854C61.1213 18.214 60.7898 18.9127 60.1993 19.4279C59.609 19.9431 58.8081 20.2325 57.9732 20.2325H35.3065C33.8521 24.3531 33.8647 29.1661 33.9371 33.7126C33.9371 34.2235 33.9528 34.7345 33.9623 35.2454H43.0982C43.9567 35.2454 44.7796 35.543 45.3866 36.0726C45.9936 36.6022 46.3345 37.3206 46.3345 38.0695C46.3345 38.8183 45.9936 39.5367 45.3866 40.0663C44.7796 40.596 43.9567 40.8935 43.0982 40.8935H34.0788L34.1291 43.9593H55.3067C56.1652 43.9593 56.9881 44.2568 57.5951 44.7864C58.2021 45.3161 58.543 46.0344 58.543 46.7833C58.543 47.5322 58.2021 48.2505 57.5951 48.7802C56.9881 49.3098 56.1652 49.6073 55.3067 49.6073H34.2141C34.2141 50.2529 34.233 50.9095 34.2456 51.5633C34.3212 56.151 34.3778 60.865 33.0115 65.1615C28.7962 78.3943 13.852 81.5892 5.77382 92.0557H39.7738C40.6323 92.0557 41.4552 92.3532 42.0621 92.8829C42.6691 93.4125 43.0101 94.1309 43.0101 94.8797C43.0101 95.6289 42.6691 96.347 42.0621 96.8766C41.4552 97.4063 40.6323 97.7038 39.7738 97.7038H2.47771C2.18388 98.3886 1.91628 99.0883 1.67493 99.8026H25.711C26.5693 99.8026 27.3925 100.1 27.9994 100.63C28.6064 101.159 28.9473 101.878 28.9473 102.627C28.9473 103.375 28.6064 104.094 27.9994 104.623C27.3925 105.153 26.5693 105.451 25.711 105.451H0.314928C-0.549878 111.543 0.288309 117.729 2.75789 123.477C8.24826 135.963 21.0172 142.292 33.0052 142.094C44.9934 141.897 56.4338 136.284 67.191 130.057C75.3195 125.345 83.8289 120.084 92.8767 120.829C102.104 121.587 110.003 128.427 118.352 133.087C131.948 140.674 147.787 142.611 162.426 138.479C168.898 136.652 175.314 133.534 180.055 128.062C184.655 122.735 187.268 115.7 188.555 108.209H200.949C201.784 108.209 202.585 107.919 203.176 107.404C203.766 106.889 204.098 106.19 204.098 105.462C204.098 104.733 203.766 104.034 203.176 103.519C202.585 103.004 201.784 102.715 200.949 102.715H189.298C189.531 100.187 189.638 97.6433 189.645 95.127V94.8028H234.729C235.588 94.8028 236.411 94.5053 237.018 93.9757C237.624 93.446 237.965 92.7279 237.965 91.9788C237.965 91.2299 237.624 90.5116 237.018 89.9819C236.411 89.4523 235.588 89.1548 234.729 89.1548V89.1493Z" fill="url(#paint0_linear_599_90)"/>
<path d="M84.0242 135.957C84.0242 135.957 68.9131 152.38 66.8636 175.409C66.8441 175.642 66.732 175.863 66.5469 176.032C66.3615 176.202 66.1143 176.31 65.8477 176.339C65.5811 176.367 65.3116 176.313 65.0852 176.187C64.8586 176.061 64.6895 175.87 64.6064 175.648C59.4277 161.893 48.4312 122.126 82.7334 97.8658" fill="#26C8BC"/>
<path d="M66.64 176.776C66.7171 176.993 66.8758 177.179 67.0902 177.307C66.9416 177.394 66.7716 177.449 66.5941 177.469C66.4162 177.489 66.2358 177.473 66.0667 177.421C65.8974 177.37 65.7444 177.285 65.6194 177.173C65.4944 177.061 65.4009 176.925 65.3461 176.776C60.1674 163.022 49.1709 123.254 83.4732 98.9946L83.5047 99.9094C50.7387 124.243 61.5274 163.195 66.64 176.776Z" fill="#F6DF9E"/>
<path opacity="0.8" d="M63.259 171.458C63.1708 165.074 65.0377 158.385 67.4838 152.393C68.7431 149.327 70.1408 146.446 71.5166 143.877C75.8254 135.857 77.833 127.043 77.3658 118.194C77.0951 113.074 76.8747 107.33 76.8747 102.215C79.5853 99.2861 78.6629 99.0224 82.3651 96.4044L83.659 134.496C83.659 134.496 68.5479 150.918 66.4984 173.947C66.4896 174.089 66.4455 174.227 66.3697 174.352C66.2935 174.477 66.1871 174.586 66.0577 174.672" fill="#1B5A6E"/>
<path d="M63.2085 149.838C63.0804 149.838 62.9551 149.805 62.8484 149.743C62.7417 149.681 62.6586 149.593 62.6095 149.489C62.5603 149.386 62.5474 149.272 62.5726 149.162C62.5975 149.053 62.6592 148.952 62.7502 148.873C62.8408 148.793 62.9564 148.739 63.082 148.718C63.2079 148.696 63.3382 148.707 63.4569 148.75C63.5753 148.793 63.6767 148.865 63.7478 148.958C63.819 149.051 63.8571 149.161 63.8571 149.273C63.8571 149.423 63.7887 149.567 63.6672 149.673C63.5457 149.779 63.3807 149.838 63.2085 149.838ZM63.2085 149.031C63.1538 149.031 63.1002 149.045 63.0546 149.072C63.0093 149.098 62.9737 149.136 62.9526 149.18C62.9318 149.224 62.9262 149.273 62.9369 149.32C62.9476 149.367 62.974 149.41 63.0127 149.444C63.0515 149.477 63.1009 149.5 63.1547 149.51C63.2082 149.519 63.264 149.514 63.3146 149.496C63.3653 149.478 63.4084 149.447 63.439 149.407C63.4695 149.367 63.4856 149.32 63.4856 149.273C63.485 149.209 63.4554 149.148 63.4034 149.104C63.3515 149.059 63.2816 149.034 63.2085 149.034V149.031Z" fill="#274B5B"/>
<path opacity="0.2" d="M63.2086 150.325C62.9706 150.325 62.7383 150.263 62.5405 150.148C62.3425 150.033 62.1886 149.869 62.0976 149.677C62.0066 149.485 61.9827 149.274 62.029 149.071C62.0756 148.867 62.1902 148.68 62.3583 148.533C62.5264 148.387 62.7408 148.287 62.974 148.246C63.2073 148.206 63.4491 148.226 63.6688 148.306C63.8886 148.385 64.0762 148.52 64.2084 148.692C64.3407 148.865 64.4112 149.068 64.4112 149.275C64.4112 149.554 64.2846 149.821 64.0589 150.017C63.8335 150.214 63.5275 150.325 63.2086 150.325ZM63.2086 148.871C63.117 148.871 63.0276 148.895 62.9514 148.94C62.8755 148.984 62.816 149.047 62.7811 149.121C62.7461 149.195 62.7367 149.276 62.7546 149.354C62.7726 149.432 62.8166 149.504 62.8815 149.561C62.946 149.617 63.0285 149.656 63.1182 149.671C63.208 149.687 63.3011 149.679 63.3858 149.648C63.4702 149.618 63.5426 149.566 63.5933 149.5C63.6443 149.433 63.6714 149.355 63.6714 149.275C63.6714 149.222 63.6594 149.17 63.6361 149.121C63.6128 149.072 63.5788 149.027 63.5357 148.99C63.4929 148.952 63.4419 148.923 63.3858 148.902C63.3295 148.882 63.2693 148.871 63.2086 148.871Z" fill="#274B5B"/>
<path d="M65.7963 129.018C65.6682 129.018 65.5429 128.985 65.4361 128.923C65.3294 128.861 65.2463 128.773 65.1972 128.669C65.1481 128.566 65.1355 128.452 65.1604 128.342C65.1856 128.232 65.2473 128.132 65.3379 128.052C65.4286 127.973 65.5441 127.919 65.6701 127.898C65.7957 127.876 65.926 127.887 66.0447 127.93C66.1631 127.973 66.2644 128.045 66.3356 128.138C66.407 128.231 66.4448 128.341 66.4448 128.452C66.4448 128.603 66.3765 128.747 66.255 128.853C66.1335 128.959 65.9685 129.018 65.7963 129.018ZM65.7963 128.211C65.7415 128.211 65.688 128.225 65.6427 128.252C65.597 128.278 65.5614 128.316 65.5403 128.36C65.5196 128.404 65.5139 128.453 65.5246 128.5C65.5353 128.547 65.5618 128.59 65.6005 128.624C65.6392 128.657 65.6886 128.68 65.7425 128.69C65.796 128.699 65.8517 128.694 65.9024 128.676C65.9531 128.658 65.9962 128.627 66.0267 128.587C66.0573 128.547 66.0733 128.5 66.0733 128.452C66.0733 128.388 66.0444 128.327 65.9924 128.282C65.9405 128.236 65.87 128.211 65.7963 128.211Z" fill="#274B5B"/>
<path opacity="0.2" d="M65.7964 129.502C65.5587 129.502 65.3261 129.44 65.1283 129.325C64.9306 129.209 64.7764 129.045 64.6854 128.854C64.5944 128.662 64.5705 128.451 64.6171 128.247C64.6634 128.044 64.778 127.857 64.9461 127.71C65.1142 127.563 65.3286 127.463 65.5618 127.423C65.7951 127.382 66.0369 127.403 66.2566 127.482C66.4764 127.562 66.6643 127.696 66.7962 127.869C66.9285 128.042 66.999 128.245 66.999 128.452C66.999 128.73 66.8724 128.997 66.6467 129.194C66.4213 129.391 66.1153 129.502 65.7964 129.502ZM65.7964 128.048C65.7048 128.048 65.6154 128.072 65.5392 128.116C65.4633 128.161 65.4038 128.224 65.3689 128.298C65.3339 128.371 65.3248 128.452 65.3424 128.531C65.3604 128.609 65.4044 128.681 65.4693 128.738C65.5338 128.794 65.6163 128.833 65.706 128.848C65.7961 128.864 65.8889 128.856 65.9736 128.825C66.058 128.794 66.1304 128.743 66.1811 128.676C66.2321 128.61 66.2592 128.532 66.2592 128.452C66.2592 128.399 66.2472 128.346 66.2239 128.298C66.2006 128.249 66.1666 128.204 66.1238 128.166C66.0807 128.129 66.0297 128.099 65.9736 128.079C65.9173 128.059 65.8571 128.048 65.7964 128.048Z" fill="#274B5B"/>
<path d="M156.62 129.018C156.492 129.018 156.367 128.985 156.26 128.923C156.154 128.861 156.07 128.773 156.021 128.669C155.972 128.566 155.96 128.452 155.984 128.342C156.01 128.232 156.071 128.132 156.162 128.052C156.253 127.973 156.368 127.919 156.494 127.898C156.62 127.876 156.75 127.887 156.869 127.93C156.987 127.973 157.089 128.045 157.16 128.138C157.231 128.231 157.269 128.341 157.269 128.452C157.269 128.603 157.201 128.747 157.079 128.853C156.958 128.959 156.793 129.018 156.62 129.018ZM156.62 128.211C156.566 128.211 156.512 128.225 156.467 128.252C156.421 128.278 156.386 128.316 156.364 128.36C156.344 128.404 156.338 128.453 156.349 128.5C156.359 128.547 156.386 128.59 156.425 128.624C156.463 128.657 156.513 128.68 156.567 128.69C156.62 128.699 156.676 128.694 156.726 128.676C156.777 128.658 156.82 128.627 156.851 128.587C156.881 128.547 156.897 128.5 156.897 128.452C156.897 128.388 156.868 128.327 156.817 128.282C156.765 128.236 156.694 128.211 156.62 128.211Z" fill="#274B5B"/>
<path opacity="0.2" d="M156.62 129.502C156.383 129.502 156.15 129.44 155.952 129.325C155.755 129.209 155.6 129.045 155.51 128.854C155.419 128.662 155.395 128.451 155.441 128.247C155.487 128.044 155.602 127.857 155.77 127.71C155.938 127.563 156.153 127.463 156.386 127.423C156.619 127.382 156.861 127.403 157.081 127.482C157.3 127.562 157.488 127.696 157.62 127.869C157.753 128.042 157.823 128.245 157.823 128.452C157.823 128.73 157.697 128.997 157.471 129.194C157.245 129.391 156.939 129.502 156.62 129.502ZM156.62 128.048C156.529 128.048 156.439 128.072 156.364 128.116C156.287 128.161 156.228 128.224 156.193 128.298C156.158 128.371 156.149 128.452 156.167 128.531C156.184 128.609 156.229 128.681 156.293 128.738C156.358 128.794 156.44 128.833 156.53 128.848C156.62 128.864 156.713 128.856 156.798 128.825C156.882 128.794 156.954 128.743 157.005 128.676C157.056 128.61 157.083 128.532 157.083 128.452C157.083 128.399 157.071 128.346 157.048 128.298C157.025 128.249 156.991 128.204 156.948 128.166C156.905 128.129 156.854 128.099 156.798 128.079C156.741 128.059 156.681 128.048 156.62 128.048Z" fill="#274B5B"/>
<path d="M156.066 129.018C155.938 129.018 155.813 128.985 155.706 128.923C155.599 128.861 155.516 128.773 155.467 128.669C155.418 128.566 155.405 128.452 155.43 128.342C155.455 128.232 155.517 128.132 155.608 128.052C155.699 127.973 155.814 127.919 155.94 127.898C156.066 127.876 156.196 127.887 156.314 127.93C156.433 127.973 156.534 128.045 156.606 128.138C156.677 128.231 156.715 128.341 156.715 128.452C156.715 128.603 156.647 128.747 156.525 128.853C156.403 128.959 156.239 129.018 156.066 129.018ZM156.066 128.211C156.012 128.211 155.958 128.225 155.912 128.252C155.867 128.278 155.831 128.316 155.81 128.36C155.79 128.404 155.784 128.453 155.795 128.5C155.805 128.547 155.832 128.59 155.871 128.624C155.909 128.657 155.959 128.68 156.012 128.69C156.066 128.699 156.122 128.694 156.172 128.676C156.223 128.658 156.266 128.627 156.297 128.587C156.327 128.547 156.343 128.5 156.343 128.452C156.343 128.388 156.314 128.327 156.262 128.282C156.21 128.236 156.14 128.211 156.066 128.211Z" fill="#274B5B"/>
<path opacity="0.2" d="M156.066 129.502C155.829 129.502 155.596 129.44 155.398 129.325C155.201 129.209 155.046 129.045 154.955 128.854C154.864 128.662 154.841 128.451 154.887 128.247C154.933 128.044 155.048 127.857 155.216 127.71C155.384 127.563 155.599 127.463 155.832 127.423C156.065 127.382 156.307 127.403 156.527 127.482C156.746 127.562 156.934 127.696 157.067 127.869C157.198 128.042 157.269 128.245 157.269 128.452C157.269 128.73 157.142 128.997 156.917 129.194C156.691 129.391 156.386 129.502 156.066 129.502ZM156.066 128.048C155.975 128.048 155.885 128.072 155.81 128.116C155.733 128.161 155.674 128.224 155.639 128.298C155.604 128.371 155.595 128.452 155.613 128.531C155.63 128.609 155.674 128.681 155.739 128.738C155.804 128.794 155.886 128.833 155.976 128.848C156.066 128.864 156.159 128.856 156.244 128.825C156.328 128.794 156.4 128.743 156.451 128.676C156.502 128.61 156.529 128.532 156.529 128.452C156.529 128.399 156.517 128.346 156.494 128.298C156.471 128.249 156.437 128.204 156.394 128.166C156.351 128.129 156.3 128.099 156.244 128.079C156.188 128.059 156.127 128.048 156.066 128.048Z" fill="#274B5B"/>
<path d="M69.593 112.554H68.8531V165.497H69.593V112.554Z" fill="#274B5B"/>
<path opacity="0.2" d="M70.3328 111.264H69.593V165.497H70.3328V111.264Z" fill="#274B5B"/>
<path opacity="0.3" d="M68.8532 112.554H68.1134V165.497H68.8532V112.554Z" fill="white"/>
<path d="M73.8461 105.612H73.1063V153.39H73.8461V105.612Z" fill="#274B5B"/>
<path opacity="0.2" d="M74.586 105.612H73.8462V153.39H74.586V105.612Z" fill="#274B5B"/>
<path opacity="0.3" d="M73.1064 105.612H72.3666V153.39H73.1064V105.612Z" fill="white"/>
<path opacity="0.2" d="M149.301 193.261C145.329 193.256 141.521 191.875 138.714 189.422C135.908 186.968 134.332 183.644 134.332 180.177V167.433H138.402V180.174C138.402 181.775 138.864 183.349 139.744 184.753C140.625 186.157 141.897 187.344 143.442 188.206C144.987 189.068 146.756 189.577 148.586 189.686C150.416 189.794 152.247 189.499 153.912 188.827C155.576 188.155 157.02 187.129 158.11 185.842C159.201 184.555 159.902 183.049 160.15 181.463C160.398 179.878 160.184 178.263 159.529 176.769C158.874 175.274 157.798 173.947 156.4 172.911L159.035 170.205C161.294 171.881 162.933 174.104 163.744 176.593C164.556 179.082 164.503 181.725 163.594 184.188C162.684 186.651 160.958 188.822 158.633 190.429C156.309 192.036 153.491 193.005 150.535 193.215C150.124 193.246 149.712 193.261 149.301 193.261Z" fill="#A7594E"/>
<path opacity="0.2" d="M147.604 187.732C147.164 187.732 146.724 187.704 146.288 187.647L146.88 184.134C147.67 184.234 148.475 184.163 149.226 183.926C149.976 183.689 150.648 183.295 151.182 182.778C151.716 182.261 152.096 181.637 152.287 180.961C152.479 180.285 152.477 179.578 152.28 178.904C152.084 178.229 151.7 177.607 151.163 177.092C150.625 176.578 149.951 176.187 149.199 175.954C148.447 175.722 147.641 175.654 146.852 175.759C146.063 175.863 145.316 176.135 144.676 176.552L142.246 173.703C143.378 172.968 144.693 172.478 146.084 172.273C147.475 172.068 148.901 172.154 150.247 172.524C151.592 172.893 152.818 173.536 153.824 174.399C154.829 175.262 155.586 176.321 156.031 177.489C156.477 178.656 156.599 179.9 156.387 181.117C156.175 182.333 155.635 183.489 154.812 184.489C153.989 185.488 152.906 186.303 151.652 186.866C150.398 187.43 149.009 187.726 147.598 187.73L147.604 187.732Z" fill="#F08778"/>
<path opacity="0.2" d="M148.945 165.497C150.58 165.497 151.904 164.341 151.904 162.915C151.904 161.489 150.58 160.333 148.945 160.333C147.311 160.333 145.986 161.489 145.986 162.915C145.986 164.341 147.311 165.497 148.945 165.497Z" fill="#F08778"/>
<path d="M154.766 177.263C154.689 177.479 154.53 177.666 154.316 177.793C154.465 177.88 154.635 177.936 154.812 177.955C154.99 177.975 155.17 177.959 155.34 177.908C155.509 177.856 155.662 177.771 155.787 177.659C155.912 177.547 156.006 177.411 156.06 177.263C161.239 163.508 172.235 123.741 137.933 99.4809L137.901 100.396C170.667 124.719 159.882 163.678 154.766 177.263Z" fill="white"/>
<path d="M137.536 137.572C137.536 137.572 152.647 153.995 154.697 177.024C154.716 177.257 154.829 177.478 155.014 177.647C155.199 177.817 155.446 177.925 155.713 177.953C155.979 177.982 156.249 177.929 156.476 177.802C156.702 177.676 156.871 177.485 156.954 177.263C162.13 163.508 173.129 123.741 138.833 99.4809" fill="#26C8BC"/>
<path opacity="0.8" d="M158.305 173.068C158.393 166.684 156.526 159.995 154.08 154.003C152.821 150.937 151.423 148.056 150.047 145.487C145.736 137.472 143.725 128.663 144.185 119.818C144.456 114.697 144.676 108.953 144.676 103.838C141.966 100.91 142.888 100.646 139.186 98.0279L137.889 136.119C137.889 136.119 153 152.542 155.049 175.571C155.058 175.712 155.102 175.85 155.179 175.976C155.254 176.101 155.361 176.21 155.49 176.296" fill="#1B5A6E"/>
<path d="M158.286 149.992C158.158 149.992 158.032 149.959 157.926 149.897C157.819 149.834 157.736 149.746 157.687 149.643C157.638 149.539 157.625 149.426 157.65 149.316C157.675 149.206 157.736 149.105 157.827 149.026C157.918 148.947 158.033 148.893 158.159 148.871C158.285 148.849 158.416 148.86 158.534 148.903C158.653 148.946 158.754 149.019 158.825 149.112C158.896 149.205 158.934 149.314 158.934 149.426C158.934 149.576 158.866 149.72 158.745 149.826C158.623 149.932 158.458 149.992 158.286 149.992ZM158.286 149.184C158.231 149.184 158.178 149.199 158.132 149.225C158.086 149.252 158.051 149.289 158.03 149.334C158.009 149.378 158.003 149.426 158.014 149.473C158.025 149.52 158.051 149.563 158.09 149.597C158.129 149.631 158.178 149.654 158.232 149.663C158.286 149.673 158.341 149.668 158.392 149.649C158.443 149.631 158.486 149.6 158.516 149.56C158.546 149.521 158.563 149.474 158.563 149.426C158.56 149.363 158.53 149.304 158.478 149.26C158.427 149.217 158.358 149.193 158.286 149.193V149.184Z" fill="#274B5B"/>
<path opacity="0.2" d="M158.286 150.487C158.048 150.487 157.815 150.425 157.618 150.31C157.42 150.195 157.266 150.031 157.175 149.839C157.084 149.647 157.06 149.436 157.106 149.233C157.153 149.029 157.267 148.842 157.435 148.695C157.604 148.549 157.818 148.449 158.051 148.408C158.285 148.368 158.526 148.389 158.746 148.468C158.966 148.547 159.154 148.682 159.286 148.854C159.418 149.027 159.488 149.23 159.488 149.437C159.488 149.716 159.362 149.983 159.136 150.179C158.911 150.376 158.605 150.487 158.286 150.487ZM158.286 149.034C158.194 149.034 158.105 149.057 158.029 149.102C157.953 149.146 157.893 149.209 157.858 149.283C157.823 149.357 157.814 149.438 157.832 149.516C157.85 149.595 157.894 149.667 157.959 149.723C158.023 149.779 158.106 149.818 158.195 149.834C158.285 149.849 158.378 149.841 158.463 149.81C158.547 149.78 158.62 149.728 158.67 149.662C158.721 149.595 158.749 149.517 158.749 149.437C158.749 149.33 158.7 149.228 158.613 149.152C158.526 149.076 158.409 149.034 158.286 149.034Z" fill="#274B5B"/>
<path d="M152.644 112.392H151.905V166.95H152.644V112.392Z" fill="#274B5B"/>
<path opacity="0.2" d="M151.904 112.23H151.165V162.428H151.904V112.23Z" fill="#274B5B"/>
<path opacity="0.3" d="M153.384 114.008H152.644V166.951H153.384V114.008Z" fill="white"/>
<path d="M148.391 107.065H147.651V154.843H148.391V107.065Z" fill="#274B5B"/>
<path opacity="0.2" d="M147.651 107.065H146.911V153.228H147.651V107.065Z" fill="#274B5B"/>
<path opacity="0.3" d="M149.131 107.065H148.391V154.843H149.131V107.065Z" fill="white"/>
<path d="M155.865 178.04C155.76 178.04 155.655 178.035 155.55 178.024C154.963 177.967 154.418 177.732 154.009 177.36C153.601 176.988 153.355 176.502 153.315 175.988C151.332 153.591 136.605 137.364 136.457 137.202L138.619 135.685C138.777 135.856 142.539 139.971 146.59 146.987C150.227 153.281 154.754 163.148 155.985 174.812C158.503 167.912 162.155 155.154 161.311 141.245C160.241 123.62 152.37 109.494 137.955 99.2916L139.702 97.4098C147.679 102.986 154.001 110.157 158.132 118.315C161.579 125.145 163.581 132.815 164.085 141.116C164.991 156.077 160.836 169.714 158.276 176.51C158.114 176.956 157.792 177.345 157.358 177.62C156.924 177.895 156.401 178.043 155.865 178.04Z" fill="#274B5B"/>
<path opacity="0.2" d="M29.451 213.759H16.3201C15.7803 213.759 15.2626 213.571 14.8809 213.239C14.4992 212.905 14.2848 212.454 14.2848 211.983C14.2848 211.512 14.4992 211.06 14.8809 210.727C15.2626 210.394 15.7803 210.207 16.3201 210.207H29.451C29.9908 210.207 30.5085 210.394 30.8901 210.727C31.2719 211.06 31.4863 211.512 31.4863 211.983C31.4863 212.454 31.2719 212.905 30.8901 213.239C30.5085 213.571 29.9908 213.759 29.451 213.759Z" fill="#F08778"/>
<path opacity="0.2" d="M87.3612 197.932C83.8739 197.941 80.468 197.014 77.6047 195.277C74.7418 193.54 72.5598 191.077 71.3553 188.222C70.1509 185.366 69.9818 182.256 70.8711 179.314C71.7605 176.372 73.6651 173.739 76.3269 171.774L78.9619 174.48C77.306 175.708 76.031 177.28 75.2543 179.052C74.478 180.824 74.2252 182.737 74.5192 184.617C74.8133 186.496 75.6447 188.28 76.937 189.805C78.2293 191.331 79.9407 192.547 81.9136 193.343C83.8865 194.139 86.0572 194.489 88.226 194.361C90.3947 194.232 92.4911 193.63 94.3227 192.608C96.1539 191.586 97.6613 190.179 98.7052 188.515C99.7494 186.852 100.297 184.986 100.297 183.089V155.165H104.367V183.089C104.367 187.023 102.576 190.797 99.3883 193.579C96.2002 196.361 91.8762 197.923 87.3674 197.923L87.3612 197.932Z" fill="#A7594E"/>
<path opacity="0.2" d="M118.509 204.726C115.986 204.722 113.568 203.846 111.785 202.288C110.002 200.731 109 198.62 108.998 196.419V168.893H113.069V196.419C113.07 197.218 113.301 198.004 113.741 198.704C114.181 199.405 114.816 199.998 115.587 200.428C116.359 200.858 117.242 201.112 118.156 201.166C119.07 201.22 119.984 201.072 120.815 200.737C121.646 200.401 122.367 199.889 122.911 199.246C123.456 198.604 123.806 197.852 123.93 197.06C124.054 196.269 123.948 195.463 123.621 194.716C123.294 193.97 122.757 193.307 122.06 192.79L124.695 190.084C126.131 191.149 127.173 192.561 127.689 194.142C128.205 195.724 128.171 197.403 127.594 198.968C127.016 200.533 125.919 201.913 124.442 202.934C122.965 203.955 121.174 204.571 119.296 204.704C119.032 204.719 118.769 204.726 118.509 204.726Z" fill="#F08778"/>
<path opacity="0.2" d="M112.691 155.328H108.621V163.882H112.691V155.328Z" fill="#F08778"/>
<path opacity="0.2" d="M88.4126 190.8C87.9722 190.8 87.5324 190.772 87.0967 190.715L87.6885 187.202C88.4781 187.302 89.2837 187.231 90.0342 186.994C90.7844 186.757 91.4565 186.363 91.9905 185.846C92.5244 185.329 92.9041 184.705 93.0958 184.029C93.2872 183.353 93.285 182.646 93.0888 181.972C92.8927 181.297 92.5086 180.675 91.9713 180.16C91.4339 179.646 90.7592 179.255 90.0071 179.022C89.2553 178.79 88.4491 178.722 87.6602 178.827C86.8716 178.931 86.1242 179.203 85.4848 179.62L83.0544 176.771C84.1862 176.036 85.5015 175.546 86.8923 175.341C88.2832 175.136 89.7099 175.222 91.0551 175.592C92.4007 175.961 93.6266 176.604 94.6321 177.467C95.6376 178.33 96.3944 179.389 96.8399 180.557C97.2853 181.724 97.4072 182.968 97.1953 184.185C96.9834 185.401 96.4435 186.557 95.6206 187.557C94.7973 188.556 93.7144 189.371 92.4602 189.934C91.2063 190.498 89.817 190.794 88.4063 190.798L88.4126 190.8Z" fill="#F08778"/>
<path opacity="0.2" d="M122.68 185.996C121.4 185.996 120.149 185.665 119.084 185.044C118.02 184.424 117.19 183.542 116.7 182.51C116.21 181.478 116.082 180.342 116.332 179.246C116.582 178.151 117.198 177.144 118.103 176.354C119.009 175.565 120.162 175.027 121.417 174.809C122.673 174.591 123.975 174.703 125.157 175.13C126.34 175.558 127.351 176.282 128.062 177.21C128.773 178.139 129.153 179.231 129.153 180.348C129.15 181.846 128.468 183.281 127.254 184.34C126.041 185.398 124.396 185.994 122.68 185.996ZM122.68 178.249C122.205 178.249 121.74 178.372 121.344 178.603C120.948 178.834 120.64 179.162 120.458 179.545C120.276 179.929 120.228 180.351 120.321 180.758C120.414 181.165 120.643 181.539 120.98 181.832C121.316 182.126 121.745 182.326 122.211 182.407C122.678 182.488 123.161 182.446 123.601 182.287C124.04 182.129 124.416 181.859 124.68 181.514C124.944 181.169 125.085 180.763 125.085 180.348C125.085 179.792 124.831 179.258 124.38 178.865C123.929 178.472 123.318 178.25 122.68 178.249Z" fill="#F08778"/>
<path opacity="0.2" d="M90.6667 171.631C89.3873 171.629 88.1372 171.296 87.0744 170.674C86.0119 170.052 85.1842 169.169 84.6963 168.137C84.208 167.105 84.0814 165.97 84.3323 164.875C84.5832 163.78 85.2006 162.775 86.1057 161.986C87.0111 161.197 88.1643 160.66 89.4191 160.443C90.6743 160.226 91.9751 160.338 93.1569 160.765C94.339 161.192 95.3493 161.916 96.0604 162.844C96.7713 163.772 97.1513 164.864 97.1519 165.98C97.1503 167.48 96.4662 168.917 95.2501 169.977C94.034 171.037 92.3853 171.632 90.6667 171.631ZM90.6667 163.884C90.191 163.884 89.7261 164.007 89.3303 164.238C88.9349 164.468 88.6267 164.796 88.4448 165.18C88.2625 165.563 88.2149 165.985 88.3078 166.392C88.4007 166.799 88.6296 167.173 88.9661 167.467C89.3023 167.76 89.7308 167.96 90.1977 168.041C90.6642 168.122 91.1478 168.081 91.5872 167.922C92.0267 167.763 92.4023 167.494 92.6664 167.149C92.9309 166.804 93.0719 166.398 93.0719 165.983C93.0719 165.426 92.8185 164.892 92.3677 164.498C91.9165 164.104 91.3049 163.882 90.6667 163.881V163.884Z" fill="#F08778"/>
<path opacity="0.2" d="M178.541 171.631C177.261 171.631 176.01 171.3 174.945 170.679C173.881 170.058 173.051 169.176 172.561 168.144C172.071 167.112 171.943 165.977 172.193 164.881C172.443 163.785 173.059 162.779 173.964 161.989C174.87 161.199 176.023 160.661 177.278 160.443C178.534 160.225 179.835 160.337 181.018 160.765C182.201 161.192 183.212 161.916 183.923 162.845C184.634 163.774 185.014 164.866 185.014 165.983C185.011 167.48 184.329 168.916 183.115 169.974C181.902 171.033 180.257 171.629 178.541 171.631ZM178.541 163.884C178.065 163.884 177.6 164.007 177.205 164.238C176.809 164.468 176.501 164.796 176.319 165.18C176.137 165.563 176.089 165.985 176.182 166.392C176.275 166.799 176.504 167.173 176.84 167.467C177.177 167.76 177.605 167.96 178.072 168.041C178.539 168.122 179.022 168.081 179.462 167.922C179.901 167.763 180.277 167.494 180.541 167.149C180.805 166.804 180.946 166.398 180.946 165.983C180.946 165.426 180.693 164.892 180.242 164.498C179.791 164.104 179.179 163.882 178.541 163.881V163.884Z" fill="#F08778"/>
<path opacity="0.2" d="M51.8344 179.054C52.6516 179.054 53.314 178.476 53.314 177.763C53.314 177.05 52.6516 176.472 51.8344 176.472C51.0171 176.472 50.3547 177.05 50.3547 177.763C50.3547 178.476 51.0171 179.054 51.8344 179.054Z" fill="#F08778"/>
<path opacity="0.2" d="M134.332 201.169C135.149 201.169 135.811 200.59 135.811 199.877C135.811 199.164 135.149 198.586 134.332 198.586C133.514 198.586 132.852 199.164 132.852 199.877C132.852 200.59 133.514 201.169 134.332 201.169Z" fill="#F08778"/>
<path opacity="0.2" d="M184.091 206.011H180.021C180.018 203.486 178.866 201.065 176.82 199.28C174.774 197.495 172 196.49 169.106 196.487H166.333V192.935H169.106C173.079 192.939 176.888 194.318 179.698 196.769C182.507 199.221 184.087 202.545 184.091 206.011Z" fill="#A7594E"/>
<path opacity="0.2" d="M35.9268 206.696H31.8562C31.8656 199.882 34.9716 193.349 40.4935 188.531C46.015 183.712 53.5016 181.002 61.3103 180.994H67.1847V184.546H61.3134C54.5833 184.552 48.1312 186.888 43.3718 191.04C38.6128 195.193 35.9353 200.823 35.9268 206.696Z" fill="#F08778"/>
<path opacity="0.2" d="M213.445 206.012H209.39C209.383 198.735 206.068 191.758 200.172 186.612C194.277 181.465 186.282 178.571 177.943 178.563H170.771V175.019H177.943C187.357 175.031 196.381 178.301 203.036 184.111C209.692 189.921 213.434 197.797 213.445 206.012Z" fill="#F08778"/>
<path opacity="0.2" d="M55.9049 206.011H51.8344C51.8394 202.545 53.4194 199.222 56.2282 196.771C59.0367 194.321 62.8447 192.942 66.8164 192.937H69.5899V196.489H66.8164C63.9239 196.493 61.151 197.497 59.1056 199.282C57.0603 201.067 55.9093 203.487 55.9049 206.011Z" fill="#A7594E"/>
<path opacity="0.2" d="M191.118 213.759H36.295C35.7555 213.759 35.2376 213.571 34.856 213.239C34.4742 212.905 34.2598 212.454 34.2598 211.983C34.2598 211.512 34.4742 211.06 34.856 210.727C35.2376 210.394 35.7555 210.207 36.295 210.207H191.118C191.658 210.207 192.175 210.394 192.557 210.727C192.939 211.06 193.153 211.512 193.153 211.983C193.153 212.454 192.939 212.905 192.557 213.239C192.175 213.571 191.658 213.759 191.118 213.759Z" fill="#F08778"/>
<path opacity="0.2" d="M9.10445 213.758C8.97116 213.758 8.83821 213.746 8.70778 213.722C8.57754 213.7 8.45004 213.667 8.32686 213.624C8.20411 213.579 8.08615 213.524 7.97426 213.461C7.86156 213.396 7.75616 213.321 7.65945 213.239C7.47006 213.074 7.32021 212.878 7.21871 212.662C7.16928 212.554 7.13132 212.443 7.10538 212.329C7.05098 212.1 7.05098 211.864 7.10538 211.635C7.13132 211.521 7.16928 211.41 7.21871 211.302C7.27024 211.195 7.33239 211.092 7.40445 210.994C7.55336 210.8 7.74486 210.633 7.96797 210.503C8.07985 210.44 8.19781 210.386 8.32056 210.341C8.44375 210.297 8.57125 210.264 8.70149 210.242C8.96426 210.195 9.23519 210.195 9.49797 210.242C9.62818 210.264 9.75571 210.297 9.87889 210.341C10.0016 210.386 10.1196 210.44 10.2315 210.503C10.4546 210.633 10.6461 210.8 10.795 210.994C10.8671 211.092 10.9292 211.195 10.9807 211.302C11.0304 211.41 11.0693 211.521 11.0972 211.635C11.1491 211.864 11.1491 212.1 11.0972 212.329C11.0693 212.443 11.0304 212.554 10.9807 212.662C10.9292 212.769 10.8671 212.872 10.795 212.97C10.7208 213.068 10.6354 213.16 10.54 213.245C10.4433 213.327 10.3379 213.402 10.2252 213.467C10.1133 213.53 9.99531 213.584 9.8726 213.629C9.74941 213.672 9.62188 213.705 9.49167 213.728C9.36411 213.749 9.23437 213.76 9.10445 213.758Z" fill="#F08778"/>
<path opacity="0.2" d="M211.833 213.759H198.702C198.162 213.759 197.644 213.571 197.263 213.239C196.881 212.905 196.667 212.454 196.667 211.983C196.667 211.512 196.881 211.06 197.263 210.727C197.644 210.394 198.162 210.207 198.702 210.207H211.833C212.373 210.207 212.89 210.394 213.272 210.727C213.654 211.06 213.868 211.512 213.868 211.983C213.868 212.454 213.654 212.905 213.272 213.239C212.89 213.571 212.373 213.759 211.833 213.759Z" fill="#F08778"/>
<path opacity="0.2" d="M219.048 213.758C218.915 213.759 218.782 213.746 218.652 213.723C218.521 213.7 218.394 213.667 218.271 213.624C218.148 213.579 218.03 213.524 217.918 213.462C217.805 213.396 217.7 213.322 217.603 213.239C217.508 213.155 217.423 213.063 217.348 212.964C217.276 212.867 217.214 212.764 217.163 212.657C217.113 212.549 217.074 212.438 217.046 212.324C216.994 212.095 216.994 211.859 217.046 211.629C217.074 211.516 217.113 211.405 217.163 211.297C217.214 211.19 217.276 211.087 217.348 210.989C217.497 210.794 217.689 210.627 217.912 210.497C218.024 210.435 218.142 210.38 218.264 210.335C218.387 210.292 218.515 210.259 218.645 210.236C218.908 210.189 219.179 210.189 219.442 210.236C219.572 210.259 219.7 210.292 219.823 210.335C219.945 210.38 220.064 210.435 220.175 210.497C220.399 210.627 220.59 210.794 220.739 210.989C220.811 211.087 220.873 211.19 220.925 211.297C220.974 211.404 221.012 211.516 221.038 211.629C221.092 211.858 221.092 212.095 221.038 212.324C221.012 212.438 220.974 212.549 220.925 212.657C220.873 212.764 220.811 212.867 220.739 212.964C220.665 213.063 220.579 213.155 220.484 213.239C220.387 213.322 220.282 213.396 220.169 213.462C220.057 213.524 219.939 213.579 219.816 213.624C219.693 213.667 219.566 213.7 219.435 213.723C219.308 213.746 219.178 213.758 219.048 213.758Z" fill="#F08778"/>
<path d="M65.513 177.878C64.9778 177.879 64.4562 177.732 64.0236 177.456C63.5914 177.181 63.2706 176.793 63.1078 176.348C60.5453 169.552 56.3897 155.918 57.2964 140.954C57.8001 132.653 59.8149 124.983 63.2495 118.153C67.3805 109.995 73.7017 102.824 81.6788 97.2478L83.426 99.1295C68.998 109.335 61.1371 123.45 60.0667 141.083C59.223 154.992 62.9001 167.75 65.3934 174.65C66.6243 162.989 71.1514 153.119 74.7875 146.825C78.8423 139.809 82.6012 135.694 82.7586 135.523L84.9214 137.04C84.8647 137.103 81.1436 141.188 77.2273 147.979C73.6164 154.242 69.0956 164.156 68.063 175.826C68.023 176.34 67.7775 176.826 67.3689 177.198C66.9602 177.57 66.415 177.805 65.8278 177.862C65.7233 177.873 65.6182 177.878 65.513 177.878Z" fill="#274B5B"/>
<path d="M114.048 2.60995C113.662 2.22904 113.188 1.92405 112.656 1.71515C112.125 1.50626 111.549 1.39824 110.966 1.39824C110.383 1.39824 109.807 1.50626 109.276 1.71515C108.744 1.92405 108.27 2.22904 107.884 2.60995C99.0031 11.3815 73.9816 39.5917 73.9816 79.0209C73.9816 117.615 83.574 134.947 87.314 140.235C88.1136 141.364 89.8545 142.092 91.7529 142.092H130.182C132.09 142.092 133.828 141.369 134.621 140.235C138.361 134.947 147.963 117.615 147.963 79.0209C147.963 39.5917 122.932 11.3815 114.048 2.60995Z" fill="#26C8BC"/>
<path d="M111.211 35.2402H110.472V141.77H111.211V35.2402Z" fill="#274B5B"/>
<path opacity="0.2" d="M110.472 35.2402H109.732V141.77H110.472V35.2402Z" fill="#274B5B"/>
<path opacity="0.3" d="M111.951 35.2402H111.212V141.77H111.951V35.2402Z" fill="white"/>
<path d="M135.443 34.2702H85.7021C88.7351 27.9024 92.2944 21.7353 96.3523 15.8179C96.7071 15.3014 97.0585 14.7968 97.407 14.3042C104.497 5.0437 109.927 0 109.927 0C109.927 0 117.483 7.01338 126.389 19.6913L126.518 19.8781C129.443 24.0977 132.487 28.9106 135.443 34.2702Z" fill="#ECF2FA"/>
<path d="M135.071 33.8038L132.351 33.4631C127.859 27.7299 115.433 16.0299 98.3073 14.4173C98.6221 13.9008 99.8813 12.846 100.196 12.3542C102.655 8.82693 104.893 6.45617 106.722 4.19805C107.209 3.59322 107.854 3.09788 108.603 2.75282C109.352 2.40773 110.184 2.22276 111.031 2.21311C111.879 2.20345 112.716 2.36939 113.475 2.69727C114.234 3.02514 114.894 3.50561 115.399 4.09915C119.264 8.60304 122.781 13.3266 125.926 18.2385C125.964 18.299 126.373 18.3622 126.414 18.4253C129.074 22.6449 133.963 25.2492 135.071 33.8038Z" fill="#8BBACC"/>
<path d="M93.1852 30.1435C93.025 30.1432 92.8676 30.1067 92.7284 30.0375C92.5893 29.9682 92.4731 29.8688 92.3912 29.7487C92.3094 29.6284 92.2647 29.4919 92.2615 29.3521C92.2584 29.2122 92.2968 29.0743 92.373 28.9513C93.2733 27.5063 94.2619 26.0531 95.2472 24.6494C96.1917 23.2758 97.1613 21.8775 98.0302 20.493C98.1527 20.3137 98.35 20.1827 98.5808 20.1276C98.8116 20.0725 99.0578 20.0975 99.2677 20.1973C99.478 20.2972 99.6354 20.4641 99.7075 20.6631C99.7799 20.8622 99.7607 21.0778 99.6546 21.2649C98.77 22.6824 97.7846 24.1054 96.8213 25.4817C95.858 26.858 94.8695 28.3057 93.988 29.7204C93.9096 29.8471 93.7937 29.9529 93.6527 30.0273C93.5113 30.1017 93.3502 30.1419 93.1852 30.1435Z" fill="white"/>
<g opacity="0.4">
<path opacity="0.4" d="M120.2 63.4748C121.39 61.7935 122.234 60.3678 122.363 60.4172C122.492 60.4667 121.809 61.9831 120.6 63.689C119.391 65.395 118.147 66.6092 118.05 66.5405C117.952 66.4719 119.019 65.1615 120.2 63.4748Z" fill="#426270"/>
<path opacity="0.4" d="M122.336 64.9923C123.107 63.8583 123.64 62.8918 123.528 62.8339C123.416 62.7756 122.7 63.6481 121.93 64.7821C121.159 65.9161 120.625 66.8823 120.737 66.9405C120.849 66.9985 121.565 66.1263 122.336 64.9923Z" fill="#426270"/>
<path opacity="0.4" d="M120.669 64.5931C122.406 65.2057 123.858 65.6288 123.817 65.7414C123.776 65.854 122.243 65.6013 120.486 64.975C118.729 64.3486 117.41 63.6014 117.473 63.5135C117.536 63.4256 118.928 63.986 120.669 64.5931Z" fill="#426270"/>
<path opacity="0.4" d="M122.312 64.1802C123.886 64.8258 125.218 65.2324 125.18 65.345C125.142 65.4576 123.725 65.2104 122.114 64.5538C120.502 63.8973 119.372 63.1006 119.444 63.0182C119.516 62.9358 120.738 63.5457 122.312 64.1802Z" fill="#426270"/>
</g>
<path d="M99.0471 142.899H92.3006C90.3928 142.899 88.6551 142.174 87.8617 141.039C84.1249 135.737 74.5325 118.365 74.5325 79.677C74.5325 41.7915 97.514 14.2379 107.273 4.27412C98.5308 13.3121 79.601 37.2396 79.601 74.9437L90.6982 61.3565C90.4684 61.8839 68.0567 118.771 99.0471 142.899Z" fill="#F6DF9E"/>
<path d="M94.52 142.171H92.6689C90.7611 142.171 89.0234 141.446 88.23 140.311C84.4932 135.01 74.9008 117.637 74.9008 78.9492C74.9008 41.0638 97.8822 13.5102 107.623 3.55193C102.658 8.68628 94.3752 18.661 88.1671 33.2208C81.7983 45.69 76.7456 61.1782 76.7456 78.9328C76.7456 117.623 86.338 134.996 90.0748 140.295C90.8776 141.446 92.6154 142.171 94.52 142.171Z" fill="white"/>
<path opacity="0.8" d="M121.761 142.092H128.508C130.415 142.092 132.153 141.369 132.946 140.237C136.683 134.952 146.276 117.629 146.276 79.0509C146.276 41.2808 123.294 13.8016 113.535 3.86526C122.277 12.8758 143.244 36.7289 143.244 74.3313L133.639 60.7826C133.856 61.31 152.755 118.032 121.761 142.092Z" fill="#1B5A6E"/>
<g opacity="0.9">
<path opacity="0.9" d="M87.3958 47.0278C87.7116 45.9493 88.0909 44.8856 88.5323 43.8411C88.8968 42.9865 89.3174 42.1511 89.7915 41.3385C90.6069 39.965 91.3121 39.1821 91.6049 39.2892C91.8977 39.3963 91.756 40.3633 91.3562 41.8385C91.1578 42.5775 90.906 43.4538 90.6164 44.4071L89.6814 47.525L88.7778 50.665C88.5071 51.6347 88.2521 52.4973 88.0254 53.2308C87.5689 54.695 87.1786 55.6043 86.8512 55.5768C86.5238 55.5493 86.3317 54.5796 86.3726 53.022C86.4035 52.1124 86.4939 51.2053 86.6434 50.3051C86.8294 49.2021 87.0807 48.1082 87.3958 47.0278Z" fill="white"/>
</g>
<g opacity="0.9">
<path opacity="0.9" d="M86.5817 59.5719C86.8537 58.2566 86.554 57.1083 85.9124 57.0075C85.2708 56.9064 84.53 57.8907 84.258 59.206C83.986 60.5216 84.2854 61.6699 84.9273 61.7707C85.5689 61.8718 86.3094 60.8875 86.5817 59.5719Z" fill="white"/>
</g>
<g opacity="0.2">
<path opacity="0.2" d="M105.258 10.0876C106.792 9.11791 108.218 8.27455 109.263 7.69491C110.308 7.11527 110.982 6.78012 111.019 6.83232C111.057 6.88451 110.45 7.29108 109.445 7.93116L105.529 10.4036L101.622 12.9117C100.615 13.5435 99.9789 13.9226 99.938 13.8814C99.8971 13.8402 100.461 13.3787 101.418 12.6864C102.375 11.9941 103.725 11.0629 105.258 10.0876Z" fill="#426270"/>
<path opacity="0.2" d="M105.825 11.6594C109.197 10.5303 111.914 9.58255 111.967 9.68969C111.992 9.74189 111.337 10.0468 110.27 10.4809C109.203 10.9149 107.679 11.4781 105.995 12.044C104.311 12.6099 102.749 13.0741 101.616 13.3736C100.483 13.673 99.7648 13.8268 99.746 13.7746C99.6987 13.6648 102.457 12.7884 105.825 11.6594Z" fill="#426270"/>
</g>
<path d="M107.604 53.7198C107.476 53.7198 107.35 53.6865 107.244 53.6244C107.137 53.5621 107.054 53.4736 107.005 53.3703C106.956 53.267 106.943 53.153 106.968 53.0434C106.993 52.9335 107.054 52.8327 107.145 52.7536C107.236 52.6745 107.352 52.6206 107.477 52.5987C107.603 52.577 107.734 52.5882 107.852 52.6308C107.971 52.6737 108.072 52.7462 108.143 52.8393C108.214 52.9324 108.252 53.0418 108.252 53.1539C108.252 53.3039 108.184 53.4478 108.062 53.5538C107.941 53.6602 107.776 53.7198 107.604 53.7198ZM107.604 52.9121C107.549 52.9121 107.496 52.9261 107.45 52.9528C107.405 52.9794 107.369 53.0171 107.348 53.0613C107.327 53.1055 107.321 53.1541 107.332 53.2008C107.343 53.2478 107.369 53.2909 107.408 53.3247C107.447 53.3585 107.496 53.3816 107.55 53.3909C107.603 53.4003 107.659 53.3953 107.71 53.3772C107.761 53.3588 107.804 53.3278 107.834 53.2882C107.865 53.2484 107.881 53.2017 107.881 53.1539C107.881 53.0896 107.852 53.028 107.8 52.9827C107.748 52.9374 107.677 52.9121 107.604 52.9121Z" fill="#274B5B"/>
<path opacity="0.2" d="M107.604 54.2038C107.366 54.2038 107.133 54.1423 106.936 54.0269C106.738 53.9115 106.584 53.7478 106.493 53.556C106.402 53.3643 106.378 53.1533 106.424 52.9498C106.471 52.7462 106.585 52.5591 106.753 52.4124C106.922 52.2655 107.136 52.1657 107.369 52.1251C107.602 52.0847 107.844 52.1056 108.064 52.185C108.284 52.2644 108.471 52.3987 108.604 52.5715C108.736 52.744 108.806 52.9467 108.806 53.1544C108.806 53.4327 108.68 53.6997 108.454 53.8964C108.229 54.0931 107.923 54.2038 107.604 54.2038ZM107.604 52.7506C107.512 52.7506 107.423 52.7742 107.347 52.8187C107.271 52.863 107.211 52.9261 107.176 52.9998C107.141 53.0737 107.132 53.155 107.15 53.2333C107.168 53.3116 107.212 53.3835 107.277 53.4398C107.341 53.4964 107.424 53.5349 107.513 53.5506C107.603 53.5659 107.696 53.558 107.781 53.5275C107.865 53.497 107.938 53.4451 107.988 53.3789C108.039 53.3124 108.067 53.2344 108.067 53.1544C108.067 53.1009 108.056 53.0478 108.033 52.9981C108.01 52.9487 107.976 52.9033 107.933 52.8651C107.89 52.8272 107.839 52.797 107.782 52.7764C107.726 52.7558 107.665 52.7451 107.604 52.7451V52.7506Z" fill="#274B5B"/>
<path d="M107.604 42.6627C107.476 42.6627 107.35 42.6294 107.244 42.5673C107.137 42.505 107.054 42.4165 107.005 42.3132C106.956 42.2099 106.943 42.0959 106.968 41.9863C106.993 41.8764 107.054 41.7756 107.145 41.6965C107.236 41.6174 107.352 41.5635 107.477 41.5416C107.603 41.5198 107.734 41.5311 107.852 41.5737C107.971 41.6165 108.072 41.6891 108.143 41.7822C108.214 41.8753 108.252 41.9847 108.252 42.0967C108.252 42.2467 108.184 42.3907 108.062 42.4967C107.941 42.603 107.776 42.6627 107.604 42.6627ZM107.604 41.855C107.549 41.855 107.496 41.869 107.45 41.8957C107.405 41.9223 107.369 41.9599 107.348 42.0042C107.327 42.0484 107.321 42.097 107.332 42.1437C107.343 42.1907 107.369 42.2338 107.408 42.2676C107.447 42.3014 107.496 42.3245 107.55 42.3338C107.603 42.3432 107.659 42.3382 107.71 42.3201C107.761 42.3017 107.804 42.2706 107.834 42.2311C107.865 42.1912 107.881 42.1445 107.881 42.0967C107.88 42.033 107.851 41.9723 107.799 41.9275C107.747 41.8827 107.677 41.8577 107.604 41.8577V41.855Z" fill="#274B5B"/>
<path opacity="0.2" d="M107.604 43.1489C107.366 43.1489 107.133 43.0873 106.936 42.972C106.738 42.8566 106.584 42.6929 106.493 42.5011C106.402 42.3094 106.378 42.0981 106.424 41.8945C106.471 41.691 106.585 41.5042 106.753 41.3575C106.922 41.2105 107.136 41.1105 107.369 41.0701C107.602 41.0298 107.844 41.0504 108.064 41.1297C108.284 41.2094 108.471 41.3437 108.604 41.5163C108.736 41.6891 108.806 41.8918 108.806 42.0995C108.806 42.3778 108.68 42.6445 108.454 42.8415C108.229 43.0382 107.923 43.1489 107.604 43.1489ZM107.604 41.6957C107.512 41.6957 107.423 41.7193 107.347 41.7635C107.271 41.808 107.211 41.8712 107.176 41.9448C107.141 42.0187 107.132 42.0998 107.15 42.178C107.168 42.2566 107.212 42.3286 107.277 42.3849C107.341 42.4415 107.424 42.48 107.513 42.4953C107.603 42.511 107.696 42.503 107.781 42.4725C107.865 42.442 107.938 42.3901 107.988 42.3236C108.039 42.2574 108.067 42.1791 108.067 42.0995C108.067 41.9923 108.018 41.8896 107.931 41.8138C107.844 41.7382 107.726 41.6957 107.604 41.6957Z" fill="#274B5B"/>
<path d="M114.076 46.2144C113.948 46.2144 113.823 46.1814 113.716 46.1191C113.609 46.057 113.526 45.9685 113.477 45.8652C113.428 45.7617 113.415 45.6479 113.44 45.5381C113.465 45.4284 113.527 45.3276 113.618 45.2485C113.709 45.1694 113.824 45.1153 113.95 45.0936C114.076 45.0716 114.206 45.0829 114.325 45.1257C114.443 45.1686 114.544 45.2411 114.616 45.3342C114.687 45.4273 114.725 45.5367 114.725 45.6485C114.725 45.7229 114.708 45.7966 114.675 45.8652C114.643 45.9339 114.595 45.9963 114.535 46.0487C114.475 46.1012 114.403 46.143 114.325 46.1715C114.246 46.1998 114.162 46.2144 114.076 46.2144ZM114.076 45.4067C114.022 45.4067 113.968 45.421 113.922 45.4477C113.877 45.474 113.841 45.512 113.82 45.5562C113.8 45.6001 113.794 45.6488 113.805 45.6957C113.815 45.7427 113.842 45.7858 113.881 45.8196C113.919 45.8534 113.969 45.8765 114.023 45.8856C114.076 45.8949 114.132 45.8902 114.182 45.8718C114.233 45.8537 114.276 45.8227 114.307 45.7828C114.337 45.7433 114.353 45.6963 114.353 45.6485C114.353 45.5845 114.324 45.5229 114.272 45.4776C114.221 45.4323 114.15 45.4067 114.076 45.4067Z" fill="#274B5B"/>
<path opacity="0.2" d="M114.076 46.7006C113.838 46.7006 113.606 46.6391 113.408 46.524C113.211 46.4086 113.056 46.2446 112.965 46.0529C112.874 45.8611 112.85 45.6501 112.897 45.4466C112.943 45.243 113.058 45.0559 113.226 44.9092C113.394 44.7625 113.609 44.6625 113.842 44.6222C114.075 44.5815 114.317 44.6024 114.537 44.6818C114.756 44.7612 114.944 44.8958 115.076 45.0683C115.208 45.2408 115.279 45.4438 115.279 45.6512C115.279 45.9295 115.152 46.1965 114.927 46.3935C114.701 46.5902 114.395 46.7006 114.076 46.7006ZM114.076 45.2474C113.985 45.2474 113.895 45.2713 113.819 45.3155C113.743 45.36 113.684 45.4229 113.649 45.4968C113.614 45.5705 113.605 45.6518 113.622 45.7301C113.64 45.8084 113.684 45.8803 113.749 45.9369C113.814 45.9932 113.896 46.0317 113.986 46.0474C114.076 46.063 114.169 46.0551 114.254 46.0243C114.338 45.9938 114.41 45.9421 114.461 45.8757C114.512 45.8092 114.539 45.7312 114.539 45.6512C114.539 45.5444 114.49 45.4416 114.403 45.3658C114.317 45.29 114.199 45.2474 114.076 45.2474Z" fill="#274B5B"/>
<path d="M114.076 86.4049C113.948 86.4049 113.823 86.3717 113.716 86.3096C113.609 86.2475 113.526 86.159 113.477 86.0555C113.428 85.9522 113.415 85.8385 113.44 85.7286C113.465 85.619 113.527 85.5181 113.618 85.439C113.709 85.3596 113.824 85.3058 113.95 85.2841C114.076 85.2621 114.206 85.2734 114.325 85.3162C114.443 85.3591 114.544 85.4316 114.616 85.5247C114.687 85.6176 114.725 85.7272 114.725 85.839C114.725 85.9893 114.657 86.1329 114.535 86.2393C114.414 86.3453 114.249 86.4049 114.076 86.4049ZM114.076 85.5973C114.022 85.5973 113.968 85.6115 113.922 85.6379C113.877 85.6646 113.841 85.7025 113.82 85.7464C113.8 85.7907 113.794 85.8393 113.805 85.8863C113.815 85.9332 113.842 85.9761 113.881 86.0099C113.919 86.0437 113.969 86.0667 114.023 86.0761C114.076 86.0854 114.132 86.0807 114.182 86.0623C114.233 86.0442 114.276 86.0132 114.307 85.9733C114.337 85.9335 114.353 85.8868 114.353 85.839C114.353 85.7755 114.323 85.7146 114.271 85.6698C114.219 85.625 114.149 85.6 114.076 85.6V85.5973Z" fill="#274B5B"/>
<path opacity="0.2" d="M114.076 86.8911C113.838 86.8911 113.606 86.8296 113.408 86.7142C113.211 86.5991 113.056 86.4351 112.965 86.2434C112.874 86.0516 112.85 85.8406 112.897 85.6371C112.943 85.4335 113.058 85.2464 113.226 85.0997C113.394 84.9531 113.609 84.8531 113.842 84.8127C114.075 84.772 114.317 84.7929 114.537 84.8723C114.756 84.9517 114.944 85.0863 115.076 85.2588C115.208 85.4313 115.279 85.6343 115.279 85.8417C115.279 86.12 115.152 86.387 114.927 86.5837C114.701 86.7807 114.395 86.8911 114.076 86.8911ZM114.076 85.4379C113.985 85.4379 113.895 85.4615 113.819 85.506C113.743 85.5503 113.684 85.6135 113.649 85.6874C113.614 85.761 113.605 85.8423 113.622 85.9206C113.64 85.9989 113.684 86.0709 113.749 86.1274C113.814 86.1838 113.896 86.2222 113.986 86.2379C114.076 86.2535 114.169 86.2456 114.254 86.2148C114.338 86.1843 114.41 86.1327 114.461 86.0662C114.512 85.9997 114.539 85.9217 114.539 85.8417C114.539 85.7885 114.528 85.7357 114.505 85.6865C114.482 85.6371 114.448 85.5923 114.405 85.5544C114.362 85.5168 114.311 85.4868 114.254 85.4662C114.198 85.4459 114.137 85.4352 114.076 85.4352V85.4379Z" fill="#274B5B"/>
<path d="M114.278 94.6377C114.15 94.6377 114.024 94.6045 113.918 94.5424C113.811 94.48 113.728 94.3919 113.679 94.2883C113.63 94.185 113.617 94.0713 113.642 93.9614C113.667 93.8515 113.729 93.7507 113.819 93.6716C113.91 93.5924 114.026 93.5386 114.152 93.5166C114.277 93.4949 114.408 93.5062 114.526 93.549C114.645 93.5919 114.746 93.6644 114.817 93.7573C114.889 93.8504 114.926 93.9597 114.926 94.0718C114.926 94.2218 114.858 94.3658 114.737 94.4721C114.615 94.5781 114.45 94.6377 114.278 94.6377ZM114.278 93.8301C114.223 93.8301 114.17 93.8444 114.124 93.8707C114.079 93.8974 114.043 93.935 114.022 93.9792C114.001 94.0235 113.995 94.0721 114.006 94.1191C114.017 94.1658 114.043 94.2089 114.082 94.2427C114.121 94.2765 114.17 94.2996 114.224 94.3089C114.278 94.3182 114.333 94.3136 114.384 94.2952C114.435 94.2768 114.478 94.246 114.508 94.2062C114.539 94.1663 114.555 94.1196 114.555 94.0718C114.555 94.0078 114.526 93.9463 114.474 93.9009C114.422 93.8556 114.352 93.8301 114.278 93.8301Z" fill="#274B5B"/>
<path opacity="0.2" d="M114.278 95.1218C114.04 95.1218 113.807 95.0602 113.61 94.9449C113.412 94.8298 113.258 94.6658 113.167 94.474C113.076 94.2823 113.052 94.0713 113.099 93.8677C113.145 93.6642 113.259 93.4771 113.428 93.3304C113.596 93.1837 113.81 93.0837 114.043 93.043C114.277 93.0026 114.518 93.0235 114.738 93.1029C114.958 93.1823 115.146 93.3169 115.278 93.4894C115.41 93.662 115.48 93.865 115.48 94.0724C115.48 94.3507 115.354 94.6177 115.128 94.8144C114.903 95.0113 114.597 95.1218 114.278 95.1218ZM114.278 93.6685C114.186 93.6685 114.097 93.6922 114.021 93.7367C113.945 93.7809 113.885 93.8441 113.85 93.918C113.815 93.9916 113.806 94.0729 113.824 94.1512C113.842 94.2295 113.886 94.3015 113.951 94.3581C114.015 94.4144 114.098 94.4528 114.187 94.4685C114.278 94.4842 114.37 94.4759 114.455 94.4454C114.539 94.4149 114.612 94.3633 114.663 94.2968C114.714 94.2303 114.741 94.1523 114.741 94.0724C114.738 93.9666 114.688 93.8661 114.602 93.7922C114.515 93.7183 114.399 93.6768 114.278 93.6768V93.6685Z" fill="#274B5B"/>
<path d="M107.037 84.1471C106.909 84.1471 106.784 84.1141 106.677 84.0517C106.57 83.9896 106.487 83.9012 106.438 83.7979C106.389 83.6943 106.376 83.5806 106.401 83.471C106.426 83.3611 106.488 83.2603 106.579 83.1812C106.669 83.1021 106.785 83.0479 106.911 83.0262C107.037 83.0045 107.167 83.0155 107.286 83.0584C107.404 83.1012 107.505 83.1738 107.576 83.2669C107.648 83.36 107.686 83.4693 107.686 83.5812C107.686 83.7314 107.617 83.8754 107.496 83.9814C107.374 84.0874 107.209 84.1471 107.037 84.1471ZM107.037 83.3394C106.982 83.3394 106.929 83.3537 106.884 83.3803C106.838 83.4067 106.802 83.4446 106.781 83.4889C106.76 83.5328 106.755 83.5814 106.765 83.6284C106.776 83.6754 106.803 83.7185 106.841 83.7523C106.88 83.7861 106.929 83.8092 106.983 83.8185C107.037 83.8276 107.093 83.8229 107.143 83.8045C107.194 83.7864 107.237 83.7553 107.268 83.7155C107.298 83.6759 107.314 83.629 107.314 83.5812C107.314 83.5171 107.285 83.4556 107.233 83.4103C107.181 83.365 107.111 83.3394 107.037 83.3394Z" fill="#274B5B"/>
<path opacity="0.2" d="M107.037 84.6303C106.799 84.6303 106.567 84.5687 106.369 84.4533C106.171 84.338 106.017 84.1742 105.926 83.9825C105.835 83.7907 105.811 83.5795 105.858 83.3759C105.904 83.1724 106.019 82.9856 106.187 82.8389C106.355 82.6919 106.569 82.5919 106.803 82.5515C107.036 82.5111 107.278 82.5317 107.497 82.6111C107.717 82.6908 107.905 82.8251 108.037 82.9977C108.169 83.1705 108.24 83.3732 108.24 83.5809C108.24 83.8591 108.113 84.1259 107.887 84.3229C107.662 84.5196 107.356 84.6303 107.037 84.6303ZM107.037 83.177C106.945 83.177 106.856 83.2007 106.78 83.2449C106.704 83.2894 106.645 83.3526 106.61 83.4262C106.575 83.5001 106.566 83.5811 106.583 83.6594C106.601 83.738 106.645 83.81 106.71 83.8663C106.775 83.9229 106.857 83.9613 106.947 83.9767C107.037 83.9924 107.13 83.9844 107.214 83.9539C107.299 83.9234 107.371 83.8715 107.422 83.805C107.473 83.7388 107.5 83.6605 107.5 83.5809C107.5 83.4737 107.451 83.371 107.365 83.2952C107.278 83.2196 107.16 83.177 107.037 83.177Z" fill="#274B5B"/>
<path d="M107.037 92.3766C106.909 92.3766 106.784 92.3436 106.677 92.2813C106.57 92.2192 106.487 92.1307 106.438 92.0274C106.389 91.9239 106.376 91.8101 106.401 91.7005C106.426 91.5906 106.488 91.4898 106.579 91.4107C106.669 91.3316 106.785 91.2777 106.911 91.2558C107.037 91.2341 107.167 91.245 107.286 91.2879C107.404 91.3308 107.505 91.4033 107.576 91.4964C107.648 91.5895 107.686 91.6989 107.686 91.8107C107.686 91.9609 107.617 92.1049 107.496 92.2109C107.374 92.317 107.209 92.3766 107.037 92.3766ZM107.037 91.5689C106.982 91.5689 106.929 91.5832 106.884 91.6099C106.838 91.6362 106.802 91.6741 106.781 91.7184C106.76 91.7623 106.755 91.811 106.765 91.8579C106.776 91.9049 106.803 91.948 106.841 91.9818C106.88 92.0156 106.929 92.0387 106.983 92.048C107.037 92.0571 107.093 92.0524 107.143 92.034C107.194 92.0159 107.237 91.9848 107.268 91.945C107.298 91.9054 107.314 91.8585 107.314 91.8107C107.314 91.7472 107.284 91.6865 107.232 91.6417C107.18 91.5969 107.11 91.5717 107.037 91.5717V91.5689Z" fill="#274B5B"/>
<path opacity="0.2" d="M107.037 92.8521C106.799 92.8521 106.567 92.7906 106.369 92.6755C106.171 92.5601 106.017 92.3961 105.926 92.2043C105.835 92.0126 105.811 91.8016 105.858 91.598C105.904 91.3945 106.019 91.2074 106.187 91.0607C106.355 90.914 106.569 90.814 106.803 90.7736C107.036 90.733 107.278 90.7539 107.497 90.8333C107.717 90.9126 107.905 91.0473 108.037 91.2198C108.169 91.3923 108.24 91.5953 108.24 91.8027C108.24 92.081 108.113 92.348 107.887 92.545C107.662 92.7417 107.356 92.8521 107.037 92.8521ZM107.037 91.3989C106.945 91.3989 106.856 91.4228 106.78 91.467C106.704 91.5115 106.645 91.5744 106.61 91.6483C106.575 91.7219 106.566 91.8033 106.583 91.8816C106.601 91.9598 106.645 92.0318 106.71 92.0884C106.775 92.1447 106.857 92.1832 106.947 92.1988C107.037 92.2145 107.13 92.2065 107.214 92.1758C107.299 92.1453 107.371 92.0936 107.422 92.0272C107.473 91.9607 107.5 91.8826 107.5 91.8027C107.497 91.6975 107.446 91.5978 107.36 91.5244C107.274 91.4511 107.158 91.4099 107.037 91.4099V91.3989Z" fill="#274B5B"/>
<path d="M107.604 64.7769C107.476 64.7769 107.35 64.7437 107.244 64.6816C107.137 64.6192 107.054 64.5308 107.005 64.4275C106.956 64.3242 106.943 64.2102 106.968 64.1006C106.993 63.9907 107.054 63.8899 107.145 63.8107C107.236 63.7316 107.352 63.6778 107.477 63.6558C107.603 63.6341 107.734 63.6454 107.852 63.6879C107.971 63.7308 108.072 63.8033 108.143 63.8964C108.214 63.9896 108.252 64.0989 108.252 64.211C108.252 64.361 108.184 64.5049 108.062 64.611C107.941 64.7173 107.776 64.7769 107.604 64.7769ZM107.604 63.9692C107.549 63.9692 107.496 63.9833 107.45 64.0099C107.405 64.0365 107.369 64.0742 107.348 64.1184C107.327 64.1626 107.321 64.2113 107.332 64.258C107.343 64.3049 107.369 64.3481 107.408 64.3819C107.447 64.4156 107.496 64.4387 107.55 64.4481C107.603 64.4574 107.659 64.4525 107.71 64.4343C107.761 64.4159 107.804 64.3849 107.834 64.3453C107.865 64.3055 107.881 64.2588 107.881 64.211C107.881 64.1467 107.852 64.0852 107.8 64.0398C107.748 63.9945 107.677 63.9692 107.604 63.9692Z" fill="#274B5B"/>
<path opacity="0.2" d="M107.604 65.2609C107.366 65.2609 107.133 65.1994 106.936 65.084C106.738 64.9686 106.584 64.8049 106.493 64.6132C106.402 64.4214 106.378 64.2104 106.424 64.0069C106.471 63.8033 106.585 63.6162 106.753 63.4695C106.922 63.3226 107.136 63.2228 107.369 63.1822C107.602 63.1418 107.844 63.1627 108.064 63.2421C108.284 63.3215 108.471 63.4558 108.604 63.6286C108.736 63.8011 108.806 64.0039 108.806 64.2115C108.806 64.4898 108.68 64.7568 108.454 64.9535C108.229 65.1502 107.923 65.2609 107.604 65.2609ZM107.604 63.8077C107.512 63.8077 107.423 63.8313 107.347 63.8758C107.271 63.9201 107.211 63.9832 107.176 64.0569C107.141 64.1308 107.132 64.2121 107.15 64.2904C107.168 64.3687 107.212 64.4406 107.277 64.497C107.341 64.5536 107.424 64.592 107.513 64.6077C107.603 64.6231 107.696 64.6151 107.781 64.5846C107.865 64.5541 107.938 64.5022 107.988 64.436C108.039 64.3695 108.067 64.2915 108.067 64.2115C108.067 64.1044 108.018 64.0017 107.931 63.9258C107.844 63.8503 107.726 63.8077 107.604 63.8077Z" fill="#274B5B"/>
<path d="M122.4 31.0421C122.272 31.0421 122.147 31.0089 122.04 30.9468C121.933 30.8844 121.85 30.7962 121.801 30.6927C121.752 30.5894 121.739 30.4756 121.764 30.3658C121.789 30.2559 121.851 30.1551 121.942 30.0759C122.032 29.9968 122.148 29.943 122.274 29.921C122.399 29.8993 122.53 29.9106 122.648 29.9534C122.767 29.9963 122.868 30.0688 122.939 30.1616C123.01 30.2548 123.049 30.3641 123.049 30.4762C123.049 30.5504 123.032 30.624 122.999 30.6927C122.967 30.7613 122.919 30.8237 122.859 30.8764C122.799 30.9289 122.727 30.9707 122.648 30.999C122.57 31.0275 122.485 31.0421 122.4 31.0421ZM122.4 30.2344C122.345 30.2344 122.292 30.2487 122.246 30.2751C122.201 30.3017 122.165 30.3394 122.144 30.3836C122.123 30.4278 122.118 30.4765 122.128 30.5234C122.139 30.5701 122.166 30.6133 122.204 30.6471C122.243 30.6808 122.292 30.7039 122.346 30.7133C122.4 30.7226 122.455 30.7179 122.506 30.6995C122.557 30.6811 122.6 30.6504 122.631 30.6105C122.661 30.5707 122.677 30.524 122.677 30.4762C122.677 30.4122 122.648 30.3506 122.596 30.3053C122.544 30.26 122.474 30.2344 122.4 30.2344Z" fill="#274B5B"/>
<path opacity="0.2" d="M122.4 31.5261C122.162 31.5261 121.93 31.4646 121.732 31.3492C121.534 31.2341 121.38 31.0701 121.289 30.8784C121.198 30.6866 121.174 30.4756 121.221 30.2721C121.267 30.0685 121.382 29.8814 121.55 29.7347C121.718 29.588 121.932 29.488 122.166 29.4474C122.399 29.407 122.641 29.4279 122.86 29.5073C123.08 29.5867 123.268 29.7213 123.4 29.8938C123.532 30.0663 123.603 30.2693 123.603 30.4767C123.603 30.755 123.476 31.022 123.25 31.2187C123.025 31.4157 122.719 31.5261 122.4 31.5261ZM122.4 30.0729C122.308 30.0729 122.219 30.0965 122.143 30.141C122.067 30.1853 122.008 30.2484 121.973 30.3223C121.938 30.396 121.929 30.4773 121.946 30.5556C121.964 30.6339 122.008 30.7058 122.073 30.7624C122.138 30.8187 122.22 30.8572 122.31 30.8729C122.399 30.8885 122.493 30.8803 122.577 30.8498C122.662 30.8193 122.734 30.7676 122.785 30.7012C122.836 30.6347 122.863 30.5567 122.863 30.4767C122.863 30.3696 122.814 30.2668 122.727 30.1913C122.641 30.1155 122.523 30.0729 122.4 30.0729Z" fill="#274B5B"/>
<path d="M99.0943 31.0421C98.9662 31.0421 98.8405 31.0089 98.7338 30.9468C98.6274 30.8844 98.5443 30.7962 98.4952 30.6927C98.4461 30.5894 98.4332 30.4756 98.4584 30.3658C98.4832 30.2559 98.5449 30.1551 98.6356 30.0759C98.7263 29.9968 98.8418 29.943 98.9677 29.921C99.0937 29.8993 99.224 29.9106 99.3424 29.9534C99.461 29.9963 99.5621 30.0688 99.6336 30.1616C99.7047 30.2548 99.7428 30.3641 99.7428 30.4762C99.7428 30.5504 99.7261 30.624 99.6934 30.6927C99.661 30.7613 99.6131 30.8237 99.553 30.8764C99.4925 30.9289 99.4211 30.9707 99.3424 30.999C99.2637 31.0275 99.1793 31.0421 99.0943 31.0421ZM99.0943 30.2344C99.0395 30.2344 98.986 30.2487 98.9403 30.2751C98.8947 30.3017 98.8594 30.3394 98.8383 30.3836C98.8172 30.4278 98.8119 30.4765 98.8226 30.5234C98.8333 30.5701 98.8598 30.6133 98.8985 30.6471C98.9372 30.6808 98.9866 30.7039 99.0401 30.7133C99.094 30.7226 99.1497 30.7179 99.2004 30.6995C99.2511 30.6811 99.2942 30.6504 99.3247 30.6105C99.355 30.5707 99.3713 30.524 99.3713 30.4762C99.3713 30.4122 99.342 30.3506 99.2901 30.3053C99.2382 30.26 99.1676 30.2344 99.0943 30.2344Z" fill="#274B5B"/>
<path opacity="0.2" d="M99.0944 31.5261C98.8567 31.5261 98.624 31.4646 98.4263 31.3492C98.2286 31.2341 98.0744 31.0701 97.9834 30.8784C97.8924 30.6866 97.8685 30.4756 97.9151 30.2721C97.9613 30.0685 98.0759 29.8814 98.244 29.7347C98.4122 29.588 98.6265 29.488 98.8598 29.4474C99.0931 29.407 99.3349 29.4279 99.5546 29.5073C99.7744 29.5867 99.9623 29.7213 100.094 29.8938C100.226 30.0663 100.297 30.2693 100.297 30.4767C100.297 30.755 100.17 31.022 99.9447 31.2187C99.7193 31.4157 99.4133 31.5261 99.0944 31.5261ZM99.0944 30.0729C99.0027 30.0729 98.9133 30.0965 98.8372 30.141C98.7613 30.1853 98.7018 30.2484 98.6668 30.3223C98.6319 30.396 98.6228 30.4773 98.6404 30.5556C98.6583 30.6339 98.7024 30.7058 98.7673 30.7624C98.8318 30.8187 98.9143 30.8572 99.004 30.8729C99.094 30.8885 99.1869 30.8803 99.2716 30.8498C99.356 30.8193 99.4284 30.7676 99.4791 30.7012C99.5301 30.6347 99.5571 30.5567 99.5571 30.4767C99.5571 30.3696 99.5083 30.2668 99.4218 30.1913C99.3349 30.1155 99.2171 30.0729 99.0944 30.0729Z" fill="#274B5B"/>
<path d="M110.749 31.0421C110.621 31.0421 110.495 31.0089 110.389 30.9468C110.282 30.8844 110.199 30.7962 110.15 30.6927C110.101 30.5894 110.088 30.4756 110.113 30.3658C110.138 30.2559 110.199 30.1551 110.29 30.0759C110.381 29.9968 110.496 29.943 110.622 29.921C110.748 29.8993 110.878 29.9106 110.997 29.9534C111.115 29.9963 111.217 30.0688 111.288 30.1616C111.359 30.2548 111.397 30.3641 111.397 30.4762C111.397 30.5504 111.381 30.624 111.348 30.6927C111.315 30.7613 111.268 30.8237 111.207 30.8764C111.147 30.9289 111.075 30.9707 110.997 30.999C110.918 31.0275 110.834 31.0421 110.749 31.0421ZM110.749 30.2344C110.694 30.2344 110.64 30.2487 110.595 30.2751C110.549 30.3017 110.514 30.3394 110.493 30.3836C110.472 30.4278 110.466 30.4765 110.477 30.5234C110.488 30.5701 110.514 30.6133 110.553 30.6471C110.592 30.6808 110.641 30.7039 110.695 30.7133C110.748 30.7226 110.804 30.7179 110.855 30.6995C110.905 30.6811 110.949 30.6504 110.979 30.6105C111.009 30.5707 111.026 30.524 111.026 30.4762C111.026 30.4122 110.996 30.3506 110.945 30.3053C110.893 30.26 110.822 30.2344 110.749 30.2344Z" fill="#274B5B"/>
<path opacity="0.2" d="M110.749 31.5261C110.511 31.5261 110.278 31.4646 110.081 31.3492C109.883 31.2341 109.729 31.0701 109.638 30.8784C109.547 30.6866 109.523 30.4756 109.569 30.2721C109.616 30.0685 109.73 29.8814 109.898 29.7347C110.067 29.588 110.281 29.488 110.514 29.4474C110.748 29.407 110.989 29.4279 111.209 29.5073C111.429 29.5867 111.617 29.7213 111.749 29.8938C111.881 30.0663 111.951 30.2693 111.951 30.4767C111.951 30.755 111.825 31.022 111.599 31.2187C111.374 31.4157 111.068 31.5261 110.749 31.5261ZM110.749 30.0729C110.657 30.0729 110.568 30.0965 110.492 30.141C110.416 30.1853 110.356 30.2484 110.321 30.3223C110.286 30.396 110.277 30.4773 110.295 30.5556C110.313 30.6339 110.357 30.7058 110.422 30.7624C110.486 30.8187 110.569 30.8572 110.658 30.8729C110.748 30.8885 110.841 30.8803 110.926 30.8498C111.01 30.8193 111.083 30.7676 111.133 30.7012C111.184 30.6347 111.212 30.5567 111.212 30.4767C111.212 30.3696 111.163 30.2668 111.076 30.1913C110.989 30.1155 110.872 30.0729 110.749 30.0729Z" fill="#274B5B"/>
<path d="M107.604 104.645C107.476 104.645 107.35 104.612 107.244 104.55C107.137 104.488 107.054 104.399 107.005 104.296C106.956 104.193 106.943 104.079 106.968 103.969C106.993 103.859 107.054 103.758 107.145 103.679C107.236 103.6 107.352 103.546 107.477 103.524C107.603 103.503 107.734 103.514 107.852 103.556C107.971 103.599 108.072 103.672 108.143 103.765C108.214 103.858 108.252 103.967 108.252 104.08C108.252 104.23 108.184 104.373 108.062 104.48C107.941 104.586 107.776 104.645 107.604 104.645ZM107.604 103.838C107.549 103.838 107.496 103.852 107.45 103.878C107.405 103.905 107.369 103.943 107.348 103.987C107.327 104.031 107.321 104.08 107.332 104.127C107.343 104.174 107.369 104.217 107.408 104.25C107.447 104.284 107.496 104.307 107.55 104.317C107.603 104.326 107.659 104.321 107.71 104.303C107.761 104.284 107.804 104.253 107.834 104.214C107.865 104.174 107.881 104.127 107.881 104.08C107.88 104.016 107.851 103.955 107.799 103.91C107.747 103.866 107.677 103.841 107.604 103.841V103.838Z" fill="#274B5B"/>
<path opacity="0.2" d="M107.604 105.13C107.366 105.13 107.133 105.068 106.936 104.953C106.738 104.837 106.584 104.673 106.493 104.482C106.402 104.29 106.378 104.079 106.424 103.875C106.471 103.672 106.585 103.485 106.753 103.338C106.922 103.191 107.136 103.091 107.369 103.051C107.602 103.01 107.844 103.031 108.064 103.111C108.284 103.19 108.471 103.324 108.604 103.497C108.736 103.67 108.806 103.872 108.806 104.08C108.806 104.358 108.68 104.625 108.454 104.822C108.229 105.019 107.923 105.13 107.604 105.13ZM107.604 103.676C107.512 103.676 107.423 103.7 107.347 103.744C107.271 103.789 107.211 103.852 107.176 103.925C107.141 103.999 107.132 104.08 107.15 104.159C107.168 104.237 107.212 104.309 107.277 104.366C107.341 104.422 107.424 104.461 107.513 104.476C107.603 104.492 107.696 104.484 107.781 104.453C107.865 104.423 107.938 104.371 107.988 104.304C108.039 104.238 108.067 104.16 108.067 104.08C108.067 103.973 108.018 103.87 107.931 103.794C107.844 103.719 107.726 103.676 107.604 103.676Z" fill="#274B5B"/>
<path d="M107.604 116.477C107.476 116.477 107.35 116.444 107.244 116.382C107.137 116.32 107.054 116.231 107.005 116.128C106.956 116.025 106.943 115.911 106.968 115.801C106.993 115.691 107.054 115.59 107.145 115.511C107.236 115.432 107.352 115.378 107.477 115.356C107.603 115.334 107.734 115.346 107.852 115.389C107.971 115.431 108.072 115.504 108.143 115.597C108.214 115.69 108.252 115.799 108.252 115.911C108.252 116.061 108.184 116.205 108.062 116.312C107.941 116.418 107.776 116.477 107.604 116.477ZM107.604 115.67C107.549 115.67 107.496 115.684 107.45 115.71C107.405 115.737 107.369 115.775 107.348 115.819C107.327 115.863 107.321 115.912 107.332 115.959C107.343 116.005 107.369 116.048 107.408 116.082C107.447 116.116 107.496 116.139 107.55 116.148C107.603 116.158 107.659 116.153 107.71 116.135C107.761 116.116 107.804 116.086 107.834 116.046C107.865 116.006 107.881 115.959 107.881 115.911C107.879 115.848 107.849 115.788 107.798 115.744C107.746 115.7 107.676 115.675 107.604 115.675V115.67Z" fill="#274B5B"/>
<path opacity="0.2" d="M107.604 116.967C107.366 116.967 107.133 116.905 106.936 116.79C106.738 116.675 106.584 116.511 106.493 116.319C106.402 116.127 106.378 115.916 106.424 115.712C106.471 115.509 106.585 115.322 106.753 115.175C106.922 115.028 107.136 114.928 107.369 114.888C107.602 114.848 107.844 114.868 108.064 114.948C108.284 115.027 108.471 115.162 108.604 115.334C108.736 115.507 108.806 115.71 108.806 115.917C108.806 116.196 108.68 116.462 108.454 116.659C108.229 116.856 107.923 116.967 107.604 116.967ZM107.604 115.514C107.512 115.514 107.423 115.537 107.347 115.581C107.271 115.626 107.211 115.689 107.176 115.763C107.141 115.837 107.132 115.918 107.15 115.996C107.168 116.075 107.212 116.146 107.277 116.203C107.341 116.259 107.424 116.298 107.513 116.313C107.603 116.329 107.696 116.321 107.781 116.29C107.865 116.26 107.938 116.208 107.988 116.142C108.039 116.075 108.067 115.997 108.067 115.917C108.067 115.81 108.018 115.708 107.931 115.632C107.844 115.556 107.726 115.514 107.604 115.514Z" fill="#274B5B"/>
<path d="M107.604 128.32C107.476 128.32 107.35 128.287 107.244 128.224C107.137 128.162 107.054 128.074 107.005 127.971C106.956 127.867 106.943 127.753 106.968 127.643C106.993 127.534 107.054 127.433 107.145 127.354C107.236 127.275 107.352 127.221 107.477 127.199C107.603 127.177 107.734 127.188 107.852 127.231C107.971 127.274 108.072 127.346 108.143 127.44C108.214 127.533 108.252 127.642 108.252 127.754C108.252 127.904 108.184 128.048 108.062 128.154C107.941 128.26 107.776 128.32 107.604 128.32ZM107.604 127.512C107.549 127.512 107.496 127.526 107.45 127.553C107.405 127.579 107.369 127.617 107.348 127.662C107.327 127.706 107.321 127.754 107.332 127.801C107.343 127.848 107.369 127.891 107.408 127.925C107.447 127.959 107.496 127.982 107.55 127.991C107.603 128 107.659 127.996 107.71 127.977C107.761 127.959 107.804 127.928 107.834 127.888C107.865 127.848 107.881 127.802 107.881 127.754C107.881 127.69 107.852 127.628 107.8 127.583C107.748 127.538 107.677 127.512 107.604 127.512Z" fill="#274B5B"/>
<path opacity="0.2" d="M107.604 128.804C107.366 128.804 107.133 128.742 106.936 128.627C106.738 128.512 106.584 128.348 106.493 128.156C106.402 127.964 106.378 127.753 106.424 127.55C106.471 127.346 106.585 127.159 106.753 127.012C106.922 126.866 107.136 126.766 107.369 126.725C107.602 126.685 107.844 126.706 108.064 126.785C108.284 126.864 108.471 126.999 108.604 127.171C108.736 127.344 108.806 127.547 108.806 127.754C108.806 128.033 108.68 128.3 108.454 128.497C108.229 128.693 107.923 128.804 107.604 128.804ZM107.604 127.351C107.512 127.351 107.423 127.375 107.347 127.419C107.271 127.463 107.211 127.526 107.176 127.6C107.141 127.674 107.132 127.755 107.15 127.833C107.168 127.912 107.212 127.984 107.277 128.04C107.341 128.096 107.424 128.135 107.513 128.151C107.603 128.166 107.696 128.158 107.781 128.128C107.865 128.097 107.938 128.045 107.988 127.979C108.039 127.912 108.067 127.834 108.067 127.754C108.067 127.648 108.018 127.545 107.931 127.469C107.844 127.393 107.726 127.351 107.604 127.351Z" fill="#274B5B"/>
<path d="M107.604 140.155C107.476 140.155 107.35 140.122 107.244 140.06C107.137 139.997 107.054 139.909 107.005 139.806C106.956 139.702 106.943 139.588 106.968 139.479C106.993 139.369 107.054 139.268 107.145 139.189C107.236 139.11 107.352 139.056 107.477 139.034C107.603 139.012 107.734 139.023 107.852 139.066C107.971 139.109 108.072 139.182 108.143 139.275C108.214 139.368 108.252 139.477 108.252 139.589C108.252 139.739 108.184 139.883 108.062 139.989C107.941 140.095 107.776 140.155 107.604 140.155ZM107.604 139.347C107.549 139.347 107.496 139.362 107.45 139.388C107.405 139.415 107.369 139.452 107.348 139.497C107.327 139.541 107.321 139.589 107.332 139.636C107.343 139.683 107.369 139.726 107.408 139.76C107.447 139.794 107.496 139.817 107.55 139.826C107.603 139.835 107.659 139.831 107.71 139.812C107.761 139.794 107.804 139.763 107.834 139.723C107.865 139.683 107.881 139.637 107.881 139.589C107.881 139.525 107.852 139.463 107.8 139.418C107.748 139.373 107.677 139.347 107.604 139.347Z" fill="#274B5B"/>
<path opacity="0.2" d="M107.604 140.652C107.366 140.652 107.133 140.59 106.936 140.475C106.738 140.36 106.584 140.196 106.493 140.004C106.402 139.812 106.378 139.601 106.424 139.398C106.471 139.194 106.585 139.007 106.753 138.86C106.922 138.714 107.136 138.614 107.369 138.573C107.602 138.533 107.844 138.554 108.064 138.633C108.284 138.712 108.471 138.847 108.604 139.02C108.736 139.192 108.806 139.395 108.806 139.602C108.806 139.881 108.68 140.148 108.454 140.345C108.229 140.541 107.923 140.652 107.604 140.652ZM107.604 139.199C107.512 139.199 107.423 139.223 107.347 139.267C107.271 139.311 107.211 139.374 107.176 139.448C107.141 139.522 107.132 139.603 107.15 139.681C107.168 139.76 107.212 139.832 107.277 139.888C107.341 139.944 107.424 139.983 107.513 139.999C107.603 140.014 107.696 140.006 107.781 139.975C107.865 139.945 107.938 139.893 107.988 139.827C108.039 139.76 108.067 139.682 108.067 139.602C108.068 139.549 108.057 139.495 108.035 139.445C108.012 139.394 107.979 139.349 107.936 139.31C107.892 139.271 107.841 139.24 107.784 139.219C107.727 139.199 107.665 139.188 107.604 139.188V139.199Z" fill="#274B5B"/>
<path opacity="0.6" d="M111.857 81.0783C120.489 81.0783 127.487 74.9717 127.487 67.4389C127.487 59.906 120.489 53.7994 111.857 53.7994C103.224 53.7994 96.2263 59.906 96.2263 67.4389C96.2263 74.9717 103.224 81.0783 111.857 81.0783Z" fill="#5C7869"/>
<path d="M112.043 76.0755C120.675 76.0755 127.673 69.9689 127.673 62.4361C127.673 54.9032 120.675 48.7967 112.043 48.7967C103.41 48.7967 96.4121 54.9032 96.4121 62.4361C96.4121 69.9689 103.41 76.0755 112.043 76.0755Z" fill="#94E0F7"/>
<path opacity="0.2" d="M111.857 75.2711C109.168 75.2711 106.539 74.5753 104.303 73.2715C102.067 71.9677 100.324 70.1148 99.2951 67.9468C98.266 65.7788 97.9968 63.3932 98.5213 61.0916C99.0461 58.7901 100.341 56.6759 102.242 55.0167C104.144 53.3574 106.567 52.2273 109.204 51.7696C111.842 51.3119 114.576 51.5468 117.06 52.4448C119.545 53.3429 121.668 54.8634 123.162 56.8147C124.656 58.7659 125.454 61.0598 125.454 63.4064C125.451 66.5524 124.017 69.5684 121.468 71.7927C118.918 74.0174 115.462 75.2684 111.857 75.2711ZM111.857 52.352C109.351 52.352 106.901 53.0006 104.817 54.2154C102.733 55.4304 101.109 57.1572 100.15 59.1777C99.1912 61.1982 98.94 63.4215 99.4292 65.5661C99.9181 67.7111 101.125 69.6813 102.897 71.2277C104.669 72.774 106.927 73.8273 109.385 74.2539C111.843 74.6805 114.39 74.4616 116.706 73.6245C119.021 72.7877 121 71.3705 122.393 69.5522C123.785 67.7339 124.528 65.5961 124.528 63.4091C124.526 60.4771 123.19 57.6654 120.814 55.5919C118.439 53.5184 115.217 52.3523 111.857 52.3492V52.352Z" fill="#274B5B"/>
<path d="M117.272 50.2721L108.353 76.4109C106.077 75.8774 103.969 74.8997 102.189 73.5512L110.327 49.7227C112.66 49.4488 115.033 49.6365 117.272 50.2721Z" fill="white"/>
<path d="M122.236 52.6379L113.985 76.8125C113.462 76.859 112.937 76.882 112.411 76.8812C111.78 76.8815 111.149 76.8485 110.522 76.7823L119.315 51.0062C120.355 51.4539 121.335 52.0012 122.236 52.6379Z" fill="white"/>
<path opacity="0.8" d="M100.851 66.2826C100.763 66.2823 100.678 66.2543 100.611 66.204C100.544 66.1537 100.499 66.0842 100.486 66.0079C99.9519 63.0531 100.595 60.0277 102.309 57.4369C103.278 55.9864 104.418 55.1156 105.699 54.8546C105.748 54.8411 105.8 54.8365 105.851 54.8409C105.902 54.8455 105.951 54.8593 105.995 54.8812C106.04 54.9032 106.079 54.9332 106.11 54.9689C106.14 55.0046 106.162 55.0455 106.174 55.0889C106.186 55.1326 106.187 55.1777 106.178 55.2216C106.169 55.2656 106.149 55.3073 106.121 55.3444C106.092 55.3815 106.055 55.4131 106.012 55.437C105.968 55.4609 105.92 55.4768 105.869 55.4837C104.796 55.7035 103.813 56.4727 102.951 57.7638C101.323 60.2263 100.712 63.1012 101.219 65.909C101.227 65.9513 101.225 65.9944 101.213 66.0359C101.201 66.0774 101.18 66.1167 101.151 66.1507C101.121 66.1851 101.085 66.2139 101.042 66.2356C101 66.2573 100.953 66.2713 100.905 66.2771L100.851 66.2826Z" fill="white"/>
<path d="M122.586 64.2821C122.458 64.2821 122.332 64.2489 122.226 64.1868C122.119 64.1244 122.036 64.0363 121.987 63.9327C121.938 63.8294 121.925 63.7157 121.95 63.6058C121.975 63.4959 122.036 63.3951 122.127 63.316C122.218 63.2369 122.334 63.183 122.459 63.161C122.585 63.1393 122.715 63.1506 122.834 63.1934C122.953 63.2363 123.054 63.3088 123.125 63.4017C123.196 63.4948 123.234 63.6041 123.234 63.7162C123.234 63.8662 123.166 64.0102 123.044 64.1165C122.923 64.2225 122.758 64.2821 122.586 64.2821ZM122.586 63.4745C122.531 63.4745 122.477 63.4888 122.432 63.5151C122.386 63.5418 122.351 63.5794 122.33 63.6236C122.309 63.6679 122.303 63.7165 122.314 63.7635C122.325 63.8102 122.351 63.8533 122.39 63.8871C122.429 63.9209 122.478 63.944 122.532 63.9533C122.585 63.9626 122.641 63.958 122.692 63.9396C122.743 63.9212 122.786 63.8904 122.816 63.8506C122.846 63.8107 122.863 63.764 122.863 63.7162C122.86 63.6541 122.829 63.5954 122.777 63.5522C122.726 63.5094 122.657 63.4855 122.586 63.4855V63.4745Z" fill="#274B5B"/>
<path opacity="0.2" d="M122.586 64.7769C122.348 64.7769 122.115 64.7154 121.918 64.6C121.72 64.4849 121.566 64.3209 121.475 64.1291C121.384 63.9374 121.36 63.7264 121.407 63.5228C121.453 63.3193 121.567 63.1322 121.735 62.9855C121.904 62.8388 122.118 62.7388 122.351 62.6984C122.585 62.6578 122.826 62.6787 123.046 62.758C123.266 62.8374 123.454 62.972 123.586 63.1446C123.718 63.3171 123.788 63.5201 123.788 63.7275C123.788 64.0058 123.662 64.2728 123.436 64.4695C123.211 64.6665 122.905 64.7769 122.586 64.7769ZM122.586 63.3237C122.495 63.3237 122.405 63.3473 122.329 63.3918C122.253 63.436 122.193 63.4992 122.158 63.5731C122.123 63.6467 122.114 63.7281 122.132 63.8063C122.15 63.8846 122.194 63.9566 122.259 64.0132C122.323 64.0695 122.406 64.108 122.496 64.1236C122.585 64.1393 122.678 64.1313 122.763 64.1006C122.847 64.0701 122.92 64.0184 122.971 63.9519C123.022 63.8855 123.049 63.8074 123.049 63.7275C123.049 63.6745 123.037 63.622 123.013 63.5731C122.99 63.5239 122.956 63.4794 122.913 63.4421C122.87 63.4044 122.819 63.3748 122.763 63.3544C122.707 63.3341 122.647 63.3237 122.586 63.3237Z" fill="#274B5B"/>
<path d="M111.857 78.7377C108.381 78.7377 104.984 77.8386 102.094 76.1535C99.2041 74.4687 96.9516 72.0738 95.6215 69.2717C94.2914 66.4697 93.9436 63.3866 94.6217 60.412C95.2998 57.4374 96.9733 54.7049 99.4311 52.5605C101.889 50.4158 105.02 48.9554 108.429 48.3637C111.837 47.772 115.371 48.0758 118.582 49.2365C121.793 50.3969 124.537 52.3624 126.468 54.8843C128.399 57.4058 129.43 60.3705 129.43 63.4033C129.425 67.4691 127.572 71.3669 124.277 74.2418C120.983 77.1166 116.516 78.7336 111.857 78.7377ZM111.857 51.4589C109.15 51.4589 106.503 52.1597 104.252 53.472C102.001 54.7845 100.247 56.6498 99.2107 58.8324C98.1747 61.015 97.9036 63.4168 98.4319 65.7337C98.9598 68.0506 100.263 70.1791 102.178 71.8496C104.092 73.5198 106.531 74.6574 109.187 75.1184C111.842 75.5794 114.594 75.3428 117.095 74.4388C119.596 73.5347 121.734 72.0037 123.238 70.0395C124.742 68.0751 125.545 65.7659 125.545 63.4033C125.54 60.2373 124.096 57.202 121.53 54.9634C118.964 52.7248 115.485 51.4655 111.857 51.4616V51.4589Z" fill="#274B5B"/>
<path d="M101.94 141.446V117.892C101.929 109.926 105.369 102.25 111.57 96.4044C117.659 102.234 121.027 109.84 121.015 117.727V141.416" fill="#ECF2FA"/>
<path d="M112.877 99.5556C107.39 105.133 104.374 112.242 104.377 119.593V142.74H102.157V119.593C102.157 111.738 105.603 104.181 111.788 98.4732C112.159 98.8284 112.522 99.1894 112.877 99.5556Z" fill="white"/>
<path d="M119.164 119.136V142.415L111.507 142.429C118.632 129.935 116.371 113.101 114.926 104.519C117.708 109.009 119.164 114.033 119.164 119.136Z" fill="#8BBACC"/>
<g opacity="0.4">
<path opacity="0.4" d="M94.4886 99.6325C95.6786 97.9513 96.5223 96.5255 96.6513 96.575C96.7804 96.6244 96.0973 98.1408 94.8884 99.8468C93.6795 101.553 92.436 102.767 92.3384 102.698C92.2408 102.63 93.308 101.316 94.4886 99.6325Z" fill="#426270"/>
<path opacity="0.4" d="M96.3755 100.698C97.1412 99.5616 97.6707 98.5933 97.558 98.5359C97.4456 98.4782 96.7341 99.3529 95.9685 100.49C95.2032 101.626 94.6736 102.594 94.786 102.652C94.8984 102.71 95.6102 101.835 96.3755 100.698Z" fill="#426270"/>
<path opacity="0.4" d="M94.9577 100.748C96.6954 101.36 98.1467 101.783 98.1058 101.896C98.0649 102.009 96.5317 101.756 94.7751 101.13C93.0184 100.503 91.6993 99.7561 91.7623 99.6682C91.8253 99.5803 93.2167 100.141 94.9577 100.748Z" fill="#426270"/>
<path opacity="0.4" d="M96.601 100.338C98.1751 100.984 99.5067 101.39 99.469 101.503C99.4312 101.616 98.0145 101.368 96.4027 100.712C94.7908 100.055 93.6606 99.2586 93.733 99.1762C93.8054 99.0938 95.0269 99.7037 96.601 100.338Z" fill="#426270"/>
</g>
<path d="M107.789 112.231C107.661 112.231 107.536 112.198 107.429 112.136C107.323 112.073 107.239 111.985 107.19 111.882C107.141 111.778 107.128 111.665 107.154 111.555C107.178 111.445 107.24 111.344 107.331 111.265C107.422 111.186 107.537 111.132 107.663 111.11C107.789 111.088 107.919 111.1 108.038 111.142C108.156 111.185 108.258 111.258 108.329 111.351C108.4 111.444 108.438 111.553 108.438 111.665C108.438 111.815 108.37 111.959 108.248 112.065C108.126 112.171 107.961 112.231 107.789 112.231ZM107.789 111.423C107.735 111.423 107.681 111.437 107.636 111.464C107.59 111.491 107.555 111.528 107.534 111.573C107.512 111.617 107.507 111.665 107.518 111.712C107.528 111.759 107.555 111.802 107.594 111.836C107.632 111.87 107.682 111.893 107.735 111.902C107.789 111.912 107.845 111.907 107.896 111.888C107.946 111.87 107.989 111.839 108.02 111.799C108.05 111.76 108.067 111.713 108.067 111.665C108.066 111.601 108.036 111.541 107.984 111.496C107.932 111.451 107.863 111.426 107.789 111.426V111.423Z" fill="#274B5B"/>
<path opacity="0.2" d="M107.79 112.717C107.552 112.717 107.319 112.656 107.122 112.54C106.924 112.425 106.77 112.261 106.679 112.07C106.588 111.878 106.564 111.667 106.61 111.463C106.657 111.26 106.771 111.073 106.939 110.926C107.107 110.779 107.322 110.679 107.555 110.639C107.788 110.598 108.03 110.619 108.25 110.698C108.47 110.778 108.657 110.912 108.79 111.085C108.922 111.257 108.992 111.46 108.992 111.668C108.992 111.946 108.866 112.213 108.64 112.41C108.414 112.607 108.108 112.717 107.79 112.717ZM107.79 111.264C107.698 111.264 107.609 111.288 107.533 111.332C107.456 111.376 107.397 111.44 107.362 111.513C107.327 111.587 107.318 111.668 107.336 111.747C107.354 111.825 107.398 111.897 107.462 111.953C107.527 112.01 107.609 112.048 107.7 112.064C107.789 112.079 107.882 112.071 107.967 112.041C108.051 112.01 108.124 111.959 108.175 111.892C108.225 111.826 108.252 111.748 108.252 111.668C108.253 111.614 108.242 111.561 108.219 111.512C108.196 111.462 108.162 111.417 108.119 111.379C108.076 111.341 108.025 111.31 107.968 111.29C107.912 111.269 107.851 111.259 107.79 111.259V111.264Z" fill="#274B5B"/>
<path d="M107.789 135.798C107.661 135.798 107.536 135.765 107.429 135.703C107.323 135.641 107.239 135.552 107.19 135.449C107.141 135.346 107.128 135.232 107.154 135.122C107.178 135.012 107.24 134.911 107.331 134.832C107.422 134.753 107.537 134.699 107.663 134.677C107.789 134.655 107.919 134.667 108.038 134.71C108.156 134.752 108.258 134.825 108.329 134.918C108.4 135.011 108.438 135.121 108.438 135.232C108.438 135.382 108.37 135.526 108.248 135.633C108.126 135.739 107.961 135.798 107.789 135.798ZM107.789 134.991C107.735 134.991 107.681 135.005 107.636 135.031C107.59 135.058 107.555 135.096 107.534 135.14C107.512 135.184 107.507 135.233 107.518 135.28C107.528 135.326 107.555 135.369 107.594 135.403C107.632 135.437 107.682 135.46 107.735 135.469C107.789 135.479 107.845 135.474 107.896 135.456C107.946 135.437 107.989 135.407 108.02 135.367C108.05 135.327 108.067 135.28 108.067 135.232C108.067 135.168 108.037 135.107 107.985 135.061C107.933 135.016 107.863 134.991 107.789 134.991Z" fill="#274B5B"/>
<path opacity="0.2" d="M107.79 136.281C107.552 136.281 107.319 136.22 107.122 136.104C106.924 135.989 106.77 135.825 106.679 135.633C106.588 135.442 106.564 135.231 106.61 135.027C106.657 134.824 106.771 134.636 106.939 134.49C107.107 134.343 107.322 134.243 107.555 134.203C107.788 134.162 108.03 134.183 108.25 134.262C108.47 134.342 108.657 134.476 108.79 134.649C108.922 134.821 108.992 135.024 108.992 135.232C108.992 135.51 108.866 135.777 108.64 135.974C108.414 136.171 108.108 136.281 107.79 136.281ZM107.79 134.828C107.698 134.828 107.609 134.852 107.533 134.896C107.456 134.94 107.397 135.004 107.362 135.077C107.327 135.151 107.318 135.232 107.336 135.311C107.354 135.389 107.398 135.461 107.462 135.517C107.527 135.574 107.609 135.612 107.7 135.628C107.789 135.644 107.882 135.636 107.967 135.605C108.051 135.574 108.124 135.523 108.175 135.456C108.225 135.39 108.252 135.312 108.252 135.232C108.252 135.125 108.204 135.022 108.117 134.946C108.03 134.871 107.912 134.828 107.79 134.828Z" fill="#274B5B"/>
<path d="M107.789 124.016C107.661 124.016 107.536 123.982 107.429 123.92C107.323 123.858 107.239 123.77 107.19 123.666C107.141 123.563 107.128 123.449 107.154 123.339C107.178 123.23 107.24 123.129 107.331 123.05C107.422 122.971 107.537 122.916 107.663 122.895C107.789 122.873 107.919 122.884 108.038 122.927C108.156 122.97 108.258 123.042 108.329 123.135C108.4 123.229 108.438 123.338 108.438 123.45C108.438 123.6 108.37 123.744 108.248 123.85C108.126 123.956 107.961 124.016 107.789 124.016ZM107.789 123.208C107.735 123.208 107.681 123.222 107.636 123.249C107.59 123.275 107.555 123.313 107.534 123.357C107.512 123.401 107.507 123.45 107.518 123.497C107.528 123.544 107.555 123.587 107.594 123.621C107.632 123.655 107.682 123.677 107.735 123.687C107.789 123.696 107.845 123.691 107.896 123.673C107.946 123.655 107.989 123.624 108.02 123.584C108.05 123.544 108.067 123.498 108.067 123.45C108.067 123.386 108.037 123.324 107.985 123.279C107.933 123.234 107.863 123.208 107.789 123.208Z" fill="#274B5B"/>
<path opacity="0.2" d="M107.79 124.499C107.552 124.499 107.319 124.437 107.122 124.322C106.924 124.207 106.77 124.043 106.679 123.851C106.588 123.659 106.564 123.448 106.61 123.244C106.657 123.041 106.771 122.854 106.939 122.707C107.107 122.56 107.322 122.46 107.555 122.42C107.788 122.38 108.03 122.4 108.25 122.48C108.47 122.559 108.657 122.694 108.79 122.866C108.922 123.039 108.992 123.242 108.992 123.449C108.992 123.728 108.866 123.994 108.64 124.191C108.414 124.388 108.108 124.499 107.79 124.499ZM107.79 123.046C107.698 123.046 107.609 123.069 107.533 123.113C107.456 123.158 107.397 123.221 107.362 123.295C107.327 123.369 107.318 123.45 107.336 123.528C107.354 123.607 107.398 123.678 107.462 123.735C107.527 123.791 107.609 123.83 107.7 123.845C107.789 123.861 107.882 123.853 107.967 123.822C108.051 123.792 108.124 123.74 108.175 123.674C108.225 123.607 108.252 123.529 108.252 123.449C108.252 123.342 108.204 123.24 108.117 123.164C108.03 123.088 107.912 123.046 107.79 123.046Z" fill="#274B5B"/>
<path d="M113.708 112.231C113.58 112.231 113.455 112.198 113.348 112.136C113.241 112.073 113.158 111.985 113.109 111.882C113.06 111.778 113.047 111.665 113.072 111.555C113.097 111.445 113.159 111.344 113.25 111.265C113.34 111.186 113.456 111.132 113.581 111.11C113.707 111.088 113.838 111.1 113.956 111.142C114.075 111.185 114.176 111.258 114.247 111.351C114.319 111.444 114.357 111.553 114.357 111.665C114.357 111.815 114.288 111.959 114.167 112.065C114.045 112.171 113.88 112.231 113.708 112.231ZM113.708 111.423C113.653 111.423 113.6 111.437 113.554 111.464C113.509 111.491 113.473 111.528 113.452 111.573C113.431 111.617 113.426 111.665 113.436 111.712C113.447 111.759 113.474 111.802 113.512 111.836C113.551 111.87 113.6 111.893 113.654 111.902C113.708 111.912 113.763 111.907 113.814 111.888C113.865 111.87 113.908 111.839 113.938 111.799C113.969 111.76 113.985 111.713 113.985 111.665C113.984 111.601 113.955 111.541 113.903 111.496C113.851 111.451 113.781 111.426 113.708 111.426V111.423Z" fill="#274B5B"/>
<path opacity="0.2" d="M113.708 112.717C113.47 112.717 113.238 112.656 113.04 112.54C112.842 112.425 112.688 112.261 112.597 112.07C112.506 111.878 112.482 111.667 112.529 111.463C112.575 111.26 112.69 111.073 112.858 110.926C113.026 110.779 113.24 110.679 113.473 110.639C113.707 110.598 113.949 110.619 114.168 110.698C114.388 110.778 114.576 110.912 114.708 111.085C114.84 111.257 114.911 111.46 114.911 111.668C114.911 111.946 114.784 112.213 114.558 112.41C114.333 112.607 114.027 112.717 113.708 112.717ZM113.708 111.264C113.616 111.264 113.527 111.288 113.451 111.332C113.375 111.376 113.315 111.44 113.28 111.513C113.246 111.587 113.236 111.668 113.254 111.747C113.272 111.825 113.316 111.897 113.381 111.953C113.445 112.01 113.528 112.048 113.618 112.064C113.708 112.079 113.801 112.071 113.885 112.041C113.97 112.01 114.042 111.959 114.093 111.892C114.144 111.826 114.171 111.748 114.171 111.668C114.172 111.614 114.16 111.561 114.137 111.512C114.114 111.462 114.08 111.417 114.038 111.379C113.994 111.341 113.943 111.31 113.886 111.29C113.83 111.269 113.769 111.259 113.708 111.259V111.264Z" fill="#274B5B"/>
<path d="M113.708 135.798C113.58 135.798 113.455 135.765 113.348 135.703C113.241 135.641 113.158 135.552 113.109 135.449C113.06 135.346 113.047 135.232 113.072 135.122C113.097 135.012 113.159 134.911 113.25 134.832C113.34 134.753 113.456 134.699 113.581 134.677C113.707 134.655 113.838 134.667 113.956 134.71C114.075 134.752 114.176 134.825 114.247 134.918C114.319 135.011 114.357 135.121 114.357 135.232C114.357 135.382 114.288 135.526 114.167 135.633C114.045 135.739 113.88 135.798 113.708 135.798ZM113.708 134.991C113.653 134.991 113.6 135.005 113.554 135.031C113.509 135.058 113.473 135.096 113.452 135.14C113.431 135.184 113.426 135.233 113.436 135.28C113.447 135.326 113.474 135.369 113.512 135.403C113.551 135.437 113.6 135.46 113.654 135.469C113.708 135.479 113.763 135.474 113.814 135.456C113.865 135.437 113.908 135.407 113.938 135.367C113.969 135.327 113.985 135.28 113.985 135.232C113.985 135.168 113.956 135.107 113.904 135.061C113.852 135.016 113.782 134.991 113.708 134.991Z" fill="#274B5B"/>
<path opacity="0.2" d="M113.708 136.281C113.47 136.281 113.238 136.22 113.04 136.104C112.842 135.989 112.688 135.825 112.597 135.633C112.506 135.442 112.482 135.231 112.529 135.027C112.575 134.824 112.69 134.636 112.858 134.49C113.026 134.343 113.24 134.243 113.473 134.203C113.707 134.162 113.949 134.183 114.168 134.262C114.388 134.342 114.576 134.476 114.708 134.649C114.84 134.821 114.911 135.024 114.911 135.232C114.911 135.51 114.784 135.777 114.558 135.974C114.333 136.171 114.027 136.281 113.708 136.281ZM113.708 134.828C113.616 134.828 113.527 134.852 113.451 134.896C113.375 134.94 113.315 135.004 113.28 135.077C113.246 135.151 113.236 135.232 113.254 135.311C113.272 135.389 113.316 135.461 113.381 135.517C113.445 135.574 113.528 135.612 113.618 135.628C113.708 135.644 113.801 135.636 113.885 135.605C113.97 135.574 114.042 135.523 114.093 135.456C114.144 135.39 114.171 135.312 114.171 135.232C114.171 135.179 114.159 135.126 114.136 135.077C114.112 135.028 114.078 134.984 114.035 134.946C113.992 134.909 113.941 134.879 113.885 134.859C113.829 134.838 113.769 134.828 113.708 134.828Z" fill="#274B5B"/>
<path d="M113.708 124.016C113.58 124.016 113.455 123.982 113.348 123.92C113.241 123.858 113.158 123.77 113.109 123.666C113.06 123.563 113.047 123.449 113.072 123.339C113.097 123.23 113.159 123.129 113.25 123.05C113.34 122.971 113.456 122.916 113.581 122.895C113.707 122.873 113.838 122.884 113.956 122.927C114.075 122.97 114.176 123.042 114.247 123.135C114.319 123.229 114.357 123.338 114.357 123.45C114.357 123.6 114.288 123.744 114.167 123.85C114.045 123.956 113.88 124.016 113.708 124.016ZM113.708 123.208C113.653 123.208 113.6 123.222 113.554 123.249C113.509 123.275 113.473 123.313 113.452 123.357C113.431 123.401 113.426 123.45 113.436 123.497C113.447 123.544 113.474 123.587 113.512 123.621C113.551 123.655 113.6 123.677 113.654 123.687C113.708 123.696 113.763 123.691 113.814 123.673C113.865 123.655 113.908 123.624 113.938 123.584C113.969 123.544 113.985 123.498 113.985 123.45C113.985 123.386 113.956 123.324 113.904 123.279C113.852 123.234 113.782 123.208 113.708 123.208Z" fill="#274B5B"/>
<path opacity="0.2" d="M113.708 124.499C113.47 124.499 113.238 124.437 113.04 124.322C112.842 124.207 112.688 124.043 112.597 123.851C112.506 123.659 112.482 123.448 112.529 123.244C112.575 123.041 112.69 122.854 112.858 122.707C113.026 122.56 113.24 122.46 113.473 122.42C113.707 122.38 113.949 122.4 114.168 122.48C114.388 122.559 114.576 122.694 114.708 122.866C114.84 123.039 114.911 123.242 114.911 123.449C114.911 123.728 114.784 123.994 114.558 124.191C114.333 124.388 114.027 124.499 113.708 124.499ZM113.708 123.046C113.616 123.046 113.527 123.069 113.451 123.113C113.375 123.158 113.315 123.221 113.28 123.295C113.246 123.369 113.236 123.45 113.254 123.528C113.272 123.607 113.316 123.678 113.381 123.735C113.445 123.791 113.528 123.83 113.618 123.845C113.708 123.861 113.801 123.853 113.885 123.822C113.97 123.792 114.042 123.74 114.093 123.674C114.144 123.607 114.171 123.529 114.171 123.449C114.171 123.396 114.159 123.344 114.136 123.295C114.112 123.246 114.078 123.201 114.035 123.164C113.992 123.126 113.941 123.096 113.885 123.076C113.829 123.056 113.769 123.046 113.708 123.046Z" fill="#274B5B"/>
<path d="M111.211 98.0279H110.472V141.77H111.211V98.0279Z" fill="#274B5B"/>
<path opacity="0.2" d="M110.654 99.6408H109.915V141.284H110.654V99.6408Z" fill="#274B5B"/>
<path opacity="0.8" d="M112.134 99.6408H111.394V141.122H112.134V99.6408Z" fill="white"/>
<path d="M122.495 151.534H99.0031C96.4282 151.532 93.9594 150.638 92.1385 149.049C90.3176 147.46 89.2935 145.306 89.291 143.059V141.848H132.207V143.059C132.204 145.306 131.18 147.46 129.359 149.049C127.538 150.638 125.07 151.532 122.495 151.534ZM92.2062 144.271C92.5279 145.637 93.3795 146.865 94.6177 147.747C95.8558 148.629 97.4047 149.112 99.0031 149.114H122.495C124.093 149.112 125.642 148.629 126.88 147.747C128.118 146.865 128.97 145.637 129.291 144.271H92.2062Z" fill="#274B5B"/>
<path opacity="0.15" d="M130.481 43.6568C131.772 43.3854 133.134 43.5725 134.266 44.1769C135.399 44.7809 136.211 45.7531 136.523 46.8792L137.713 51.1812C138.024 52.3075 137.809 53.4953 137.117 54.484C136.424 55.4724 135.311 56.1806 134.02 56.4529C132.729 56.724 131.368 56.5372 130.235 55.9328C129.102 55.3285 128.291 54.3565 127.979 53.2305L126.789 48.9285C126.478 47.8022 126.692 46.6141 127.385 45.6257C128.077 44.6373 129.191 43.9291 130.481 43.6568Z" fill="white"/>
<path opacity="0.15" d="M126.036 41.7564C127.136 41.1067 128.486 40.8647 129.79 41.0836C131.095 41.3026 132.246 41.9646 132.99 42.9239C133.735 43.8835 134.012 45.0617 133.761 46.1998C133.51 47.3377 132.752 48.342 131.652 48.9923C130.553 49.642 129.203 49.8837 127.898 49.6648C126.594 49.4458 125.443 48.784 124.698 47.8247C123.954 46.8652 123.677 45.6867 123.928 44.5488C124.178 43.4107 124.937 42.4063 126.036 41.7564Z" fill="white"/>
<g opacity="0.4">
<path opacity="0.4" d="M130.189 74.9354C131.379 73.2542 132.222 71.8284 132.351 71.8779C132.48 71.9273 131.797 73.4438 130.588 75.1497C129.38 76.8557 128.136 78.0699 128.038 78.0012C127.941 77.9325 129.008 76.6222 130.189 74.9354Z" fill="#426270"/>
<path opacity="0.4" d="M132.075 76.0032C132.841 74.8665 133.37 73.8984 133.258 73.8407C133.145 73.783 132.434 74.6577 131.668 75.7945C130.903 76.9312 130.373 77.8996 130.486 77.957C130.598 78.0147 131.31 77.14 132.075 76.0032Z" fill="#426270"/>
<path opacity="0.4" d="M130.648 76.0538C132.386 76.6664 133.837 77.0895 133.796 77.2021C133.755 77.3147 132.222 77.062 130.466 76.4356C128.709 75.8093 127.39 75.0621 127.453 74.9742C127.516 74.8863 128.917 75.4439 130.648 76.0538Z" fill="#426270"/>
<path opacity="0.4" d="M132.301 75.6412C133.875 76.2867 135.207 76.6933 135.169 76.806C135.131 76.9186 133.714 76.6713 132.103 76.0148C130.491 75.3582 129.361 74.5616 129.433 74.4792C129.505 74.3967 130.727 74.9956 132.301 75.6412Z" fill="#426270"/>
</g>
<g opacity="0.4">
<path opacity="0.4" d="M115.207 25.2213C116.397 23.5401 117.24 22.1143 117.369 22.1638C117.498 22.2132 116.815 23.7296 115.606 25.4356C114.398 27.1416 113.154 28.3557 113.056 28.287C112.959 28.2183 114.023 26.908 115.207 25.2213Z" fill="#426270"/>
<path opacity="0.4" d="M117.091 26.2913C117.856 25.1546 118.386 24.1864 118.274 24.1287C118.161 24.0711 117.449 24.9458 116.684 26.0825C115.918 27.2192 115.389 28.1876 115.501 28.245C115.614 28.3027 116.325 27.428 117.091 26.2913Z" fill="#426270"/>
<path opacity="0.4" d="M115.673 26.3397C117.41 26.9523 118.862 27.3754 118.821 27.4879C118.78 27.6005 117.247 27.3479 115.49 26.7216C113.733 26.0952 112.414 25.348 112.477 25.2601C112.54 25.1722 113.935 25.7298 115.673 26.3397Z" fill="#426270"/>
<path opacity="0.4" d="M117.319 25.9268C118.893 26.5724 120.225 26.979 120.187 27.0916C120.149 27.2042 118.733 26.957 117.121 26.3004C115.509 25.6439 114.379 24.8472 114.451 24.7648C114.523 24.6824 115.745 25.2922 117.319 25.9268Z" fill="#426270"/>
</g>
<path d="M132.575 32.9H86.3318V33.7076H132.575V32.9Z" fill="#8BBACC"/>
<path d="M136.683 35.8556H85.0221L85.6517 33.4354H136.368L136.683 35.8556Z" fill="#274B5B"/>
<path d="M129.814 143.303H91.3719C88.9699 143.303 86.8166 142.372 85.7525 140.872C81.6819 135.103 72.2155 117.549 72.2155 78.9795C72.2155 41.1792 95.0364 13.502 104.849 3.35689C105.555 2.62664 106.436 2.03971 107.428 1.63709C108.421 1.23447 109.503 1.02588 110.598 1.02588C111.693 1.02588 112.774 1.23447 113.767 1.63709C114.76 2.03971 115.64 2.62664 116.346 3.35689C126.156 13.502 148.98 41.1792 148.97 78.9795C148.97 117.541 139.504 135.108 135.433 140.872C134.385 142.369 132.222 143.303 129.814 143.303ZM110.588 3.44755C109.47 3.44689 108.388 3.79247 107.535 4.42277C107.33 4.57339 107.14 4.7388 106.968 4.91725C97.3534 14.859 74.989 41.9759 74.989 78.9795C74.989 95.5198 76.7456 109.928 80.2086 121.807C83.064 131.598 86.3853 137.158 88.1136 139.6C88.6551 140.366 89.9679 140.88 91.3719 140.88H129.814C131.227 140.88 132.534 140.366 133.069 139.603C134.797 137.155 138.106 131.592 140.977 121.804C144.44 109.926 146.197 95.5171 146.197 78.9767C146.197 41.9759 123.845 14.859 114.224 4.91725C113.823 4.50068 113.332 4.15756 112.778 3.90766C112.224 3.65778 111.619 3.50606 110.997 3.46128C110.861 3.45213 110.725 3.44755 110.588 3.44755Z" fill="#274B5B"/>
<path d="M102.586 141.8H99.8121V118.653C99.7957 110.485 103.379 102.625 109.82 96.6983L110.837 95.7616L111.844 96.7038C118.17 102.612 121.684 110.4 121.673 118.486V141.765H118.899V118.491C118.908 111.471 116.041 104.68 110.815 99.3438C105.49 104.702 102.565 111.559 102.579 118.651L102.586 141.8Z" fill="#274B5B"/>
<path d="M156.62 128.694C156.492 128.694 156.367 128.661 156.26 128.599C156.154 128.537 156.07 128.448 156.021 128.345C155.972 128.241 155.96 128.128 155.984 128.018C156.01 127.908 156.071 127.807 156.162 127.728C156.253 127.649 156.368 127.595 156.494 127.573C156.62 127.552 156.75 127.563 156.869 127.606C156.987 127.648 157.089 127.721 157.16 127.814C157.231 127.907 157.269 128.017 157.269 128.129C157.269 128.279 157.201 128.423 157.079 128.529C156.958 128.635 156.793 128.694 156.62 128.694ZM156.62 127.887C156.566 127.887 156.512 127.901 156.467 127.927C156.421 127.954 156.386 127.992 156.364 128.036C156.344 128.08 156.338 128.129 156.349 128.176C156.359 128.223 156.386 128.266 156.425 128.299C156.463 128.333 156.513 128.356 156.567 128.366C156.62 128.375 156.676 128.37 156.726 128.352C156.777 128.334 156.82 128.302 156.851 128.263C156.881 128.223 156.897 128.176 156.897 128.129C156.897 128.065 156.867 128.004 156.815 127.959C156.763 127.915 156.693 127.89 156.62 127.89V127.887Z" fill="#274B5B"/>
<path opacity="0.2" d="M156.62 129.181C156.383 129.181 156.15 129.119 155.952 129.004C155.755 128.888 155.6 128.724 155.51 128.533C155.419 128.341 155.395 128.13 155.441 127.926C155.487 127.723 155.602 127.536 155.77 127.389C155.938 127.242 156.153 127.142 156.386 127.102C156.619 127.062 156.861 127.082 157.081 127.162C157.3 127.241 157.488 127.376 157.62 127.548C157.753 127.721 157.823 127.924 157.823 128.131C157.823 128.41 157.697 128.676 157.471 128.873C157.245 129.07 156.939 129.181 156.62 129.181ZM156.62 127.728C156.529 127.728 156.439 127.751 156.364 127.795C156.287 127.84 156.228 127.903 156.193 127.977C156.158 128.051 156.149 128.132 156.167 128.21C156.184 128.288 156.229 128.36 156.293 128.417C156.358 128.473 156.44 128.512 156.53 128.527C156.62 128.543 156.713 128.535 156.798 128.504C156.882 128.474 156.954 128.422 157.005 128.355C157.056 128.289 157.083 128.211 157.083 128.131C157.083 128.024 157.034 127.921 156.948 127.846C156.861 127.77 156.743 127.728 156.62 127.728Z" fill="#274B5B"/>
</g>
</g>
<defs>
<linearGradient id="paint0_linear_599_90" x1="0.000111453" y1="75.3533" x2="237.965" y2="75.3533" gradientUnits="userSpaceOnUse">
<stop stop-color="#C3F6EE"/>
<stop offset="0.38" stop-color="#C6EBFD"/>
</linearGradient>
<clipPath id="clip0_599_90">
<rect width="238" height="214" fill="white"/>
</clipPath>
</defs>
</svg>
