<svg width="360" height="200" viewBox="0 0 360 200" fill="none" xmlns="http://www.w3.org/2000/svg">
<mask id="mask0_902_2065" style="mask-type:luminance" maskUnits="userSpaceOnUse" x="0" y="0" width="360" height="200">
<path d="M359.731 0H0V199.901H359.731V0Z" fill="white"/>
</mask>
<g mask="url(#mask0_902_2065)">
<path d="M340.75 120.498C328.036 152.048 304.134 179.688 270.934 191.836C266.616 193.413 262.207 194.752 257.729 195.844C234.042 201.632 208.129 199.619 186.294 189.072C177.027 184.592 168.576 178.672 159.275 174.257C149.975 169.841 139.354 166.951 129.231 169.131C120.515 171.008 113.161 176.386 105.757 181.176C88.3021 192.471 67.3147 201.41 46.6461 197.53C37.1357 195.747 27.7705 190.809 23.3538 182.554C13.5915 164.305 32.0028 142.608 28.2741 122.426C25.888 109.509 14.9901 99.8359 8.21529 88.4365C-3.37911 68.9378 -2.00848 43.037 11.5859 24.7663C25.1803 6.49553 50.2769 -3.19616 73.2867 0.948615C101.345 6.00492 122.559 28.7635 149.843 36.8172C166.906 41.8493 185.432 40.348 201.729 33.7207C228.059 23.0103 264.232 6.584 293.863 9.25961C309.62 10.6832 325.074 17.3856 335.474 28.8306C348.621 43.2783 352.562 63.7904 350.369 82.8413C348.864 95.7375 345.631 108.394 340.75 120.498Z" fill="url(#paint0_linear_902_2065)"/>
<path d="M349.208 145.453C348.624 145.453 348.042 145.385 347.474 145.252C345.678 144.829 344.12 143.765 343.116 142.278C342.112 140.791 341.737 138.992 342.067 137.249C342.4 135.506 343.415 133.95 344.903 132.899C346.392 131.849 348.243 131.382 350.078 131.595C351.913 131.807 353.594 132.684 354.778 134.044C355.964 135.405 356.559 137.147 356.45 138.916C356.338 140.685 355.527 142.346 354.182 143.561C352.836 144.776 351.057 145.453 349.208 145.453ZM349.189 134.681C348.227 134.684 347.298 135.024 346.579 135.639C345.86 136.253 345.401 137.098 345.287 138.014C345.175 138.931 345.415 139.855 345.964 140.613C346.512 141.371 347.331 141.91 348.269 142.129C349.284 142.365 350.355 142.205 351.248 141.684C352.14 141.162 352.778 140.323 353.024 139.35C353.273 138.377 353.105 137.35 352.559 136.495C352.017 135.64 351.141 135.027 350.126 134.791C349.818 134.718 349.505 134.68 349.189 134.678V134.681Z" fill="#E7F6FF"/>
<path d="M342.587 152.828C342.999 151.198 341.955 149.555 340.252 149.16C338.551 148.765 336.839 149.766 336.425 151.396C336.014 153.027 337.057 154.669 338.758 155.064C340.462 155.459 342.173 154.458 342.587 152.828Z" fill="#E7F6FF"/>
<path d="M15.4377 144.791C13.5157 144.75 11.6878 143.985 10.3509 142.661C9.01397 141.337 8.2759 139.561 8.29688 137.719C8.31789 135.876 9.09627 134.116 10.463 132.82C11.8298 131.524 13.6747 130.798 15.5972 130.798C17.5196 130.798 19.3645 131.524 20.7313 132.82C22.0981 134.116 22.8764 135.876 22.8974 137.719C22.9184 139.561 22.1803 141.337 20.8434 142.661C19.5064 143.985 17.6786 144.75 15.7566 144.791H15.4377ZM15.4377 134.021H15.2727C14.2344 134.043 13.247 134.457 12.5249 135.172C11.8028 135.887 11.4042 136.847 11.4156 137.842C11.427 138.837 11.8475 139.788 12.5859 140.488C13.3243 141.188 14.3209 141.58 15.3594 141.58C16.3979 141.58 17.3945 141.188 18.1329 140.488C18.8713 139.788 19.2918 138.837 19.3032 137.842C19.3146 136.847 18.916 135.887 18.1939 135.172C17.4717 134.457 16.4844 134.043 15.4461 134.021H15.4377Z" fill="#E7F6FF"/>
<path d="M10.2347 156.528C11.9834 156.456 13.3399 155.039 13.2644 153.362C13.189 151.687 11.7102 150.386 9.96154 150.459C8.21287 150.531 6.85642 151.948 6.93183 153.624C7.00727 155.3 8.48601 156.601 10.2347 156.528Z" fill="#E7F6FF"/>
<path d="M198.344 31.7043C196.602 31.7059 194.917 31.1099 193.593 30.0236C192.27 28.9375 191.396 27.4332 191.13 25.783C190.864 24.1328 191.223 22.4458 192.142 21.0273C193.061 19.6088 194.48 18.5527 196.141 18.05C197.803 17.5473 199.597 17.6313 201.199 18.2869C202.802 18.9424 204.106 20.1261 204.877 21.6237C205.648 23.1213 205.833 24.8338 205.4 26.4513C204.968 28.0686 203.945 29.4842 202.517 30.4415C201.294 31.2622 199.837 31.7029 198.344 31.7043ZM198.322 20.9376C197.304 20.9366 196.324 21.3123 195.588 21.9864C194.851 22.6604 194.415 23.5808 194.369 24.5557C194.324 25.5306 194.672 26.4848 195.342 27.2196C196.013 27.9541 196.953 28.4126 197.967 28.4989C198.981 28.5855 199.991 28.2938 200.787 27.6842C201.582 27.0748 202.101 26.1946 202.236 25.2272C202.37 24.2599 202.111 23.2801 201.51 22.4919C200.91 21.7038 200.015 21.1681 199.013 20.9966C198.785 20.9576 198.553 20.9378 198.322 20.9376Z" fill="#E7F6FF"/>
<path d="M183.464 31.3225C184.897 30.3593 185.245 28.4652 184.239 27.0914C183.234 25.718 181.258 25.3854 179.825 26.3485C178.392 27.3118 178.045 29.2059 179.05 30.5796C180.055 31.9531 182.031 32.2858 183.464 31.3225Z" fill="#E7F6FF"/>
<path d="M359.72 67.7365C359.72 64.7888 358.498 61.9614 356.324 59.877C354.148 57.7923 351.2 56.6212 348.123 56.6212C347.866 56.6212 347.611 56.6212 347.359 56.6453C347.376 56.4041 347.385 56.1601 347.385 55.9134C347.385 54.3338 347.032 52.7721 346.352 51.333C345.673 49.8936 344.683 48.6097 343.443 47.5668C342.204 46.5239 340.75 45.7459 339.172 45.2848C337.597 44.8234 335.936 44.6896 334.302 44.892C332.666 45.0947 331.097 45.6287 329.692 46.4587C328.291 47.289 327.088 48.3963 326.168 49.7065C325.248 51.0169 324.629 52.5003 324.352 54.0577C324.078 55.6153 324.151 57.2113 324.571 58.7392C323.169 57.7652 321.558 57.1041 319.855 56.8046C318.151 56.5051 316.4 56.5751 314.73 57.0091C313.057 57.4429 311.51 58.2301 310.196 59.3126C308.884 60.3952 307.843 61.7456 307.144 63.2646C306.448 64.7839 306.115 66.4333 306.171 68.092C306.227 69.7507 306.669 71.3762 307.466 72.8499C308.26 74.3234 309.39 75.6073 310.772 76.6073C312.154 77.6075 313.751 78.2984 315.449 78.6292C316.143 80.3901 317.29 81.9536 318.786 83.1732C320.28 84.3925 322.076 85.2282 323.997 85.6016C325.922 85.9751 327.916 85.8743 329.787 85.3086C331.659 84.7427 333.351 83.7303 334.705 82.3665C336.09 83.3681 337.69 84.0593 339.39 84.389C341.091 84.7191 342.845 84.6794 344.526 84.273C346.21 83.8665 347.773 83.1035 349.108 82.0408C350.442 80.9778 351.508 79.6416 352.232 78.1306C354.434 77.3309 356.327 75.9083 357.667 74.0518C359.004 72.1952 359.72 69.9928 359.72 67.7365Z" fill="white"/>
<path d="M53.5525 41.0183C53.5539 39.5579 53.2551 38.1116 52.673 36.762C52.0912 35.4124 51.2372 34.1858 50.1606 33.1526C49.0839 32.1193 47.8053 31.2995 46.3978 30.7402C44.9902 30.1807 43.4817 29.8925 41.9581 29.8923C41.7007 29.8923 41.4462 29.8923 41.1944 29.9164C41.2112 29.6751 41.2196 29.4311 41.2196 29.1845C41.2193 27.6049 40.8674 26.0432 40.188 24.6039C39.5083 23.1646 38.5164 21.8807 37.2783 20.8378C36.0403 19.7949 34.5846 19.0169 33.0081 18.5557C31.4316 18.0944 29.7706 17.9606 28.136 18.1631C26.5013 18.3655 24.9304 18.8997 23.528 19.7298C22.1257 20.56 20.9241 21.6672 20.0033 22.9775C19.0826 24.2878 18.4638 25.7712 18.1883 27.3287C17.9128 28.8864 17.9868 30.4823 18.4056 32.0102C17.0039 31.036 15.3925 30.3748 13.6895 30.0756C11.9865 29.7762 10.2351 29.8461 8.56401 30.2799C6.89285 30.714 5.34432 31.5011 4.03201 32.5837C2.71969 33.6662 1.67692 35.0166 0.980216 36.5357C0.283511 38.055 -0.0494453 39.7043 0.00577912 41.363C0.0610036 43.0215 0.503008 44.6472 1.29935 46.1207C2.0957 47.5944 3.2262 48.8783 4.60785 49.8783C5.9895 50.8783 7.58726 51.5695 9.28387 51.9003C9.97722 53.6595 11.125 55.2215 12.6197 56.4397C14.1144 57.6582 15.9071 58.4931 17.8302 58.8665C19.7532 59.24 21.7437 59.1394 23.6153 58.5748C25.4868 58.0102 27.1783 56.9995 28.5315 55.6376C29.9158 56.6392 31.5167 57.3303 33.2168 57.6601C34.9167 57.9901 36.6719 57.9504 38.3539 57.5437C40.0355 57.1373 41.6009 56.3746 42.9343 55.3116C44.2677 54.2486 45.3354 52.9126 46.0588 51.4016C48.259 50.6035 50.1541 49.1829 51.4926 47.3284C52.8308 45.474 53.5494 43.2732 53.5525 41.0183Z" fill="white"/>
<path d="M266.904 199.177H100.05V195.692H266.904C267.386 195.692 267.848 195.875 268.189 196.202C268.53 196.529 268.722 196.972 268.722 197.434C268.722 197.897 268.53 198.34 268.189 198.667C267.848 198.993 267.386 199.177 266.904 199.177Z" fill="#426572"/>
<path d="M92.5875 199.177H82.3861C81.9038 199.177 81.4414 198.993 81.1005 198.667C80.7595 198.34 80.5679 197.897 80.5679 197.434C80.5679 196.972 80.7595 196.529 81.1005 196.202C81.4414 195.875 81.9038 195.692 82.3861 195.692H92.5875C93.0697 195.692 93.5321 195.875 93.873 196.202C94.214 196.529 94.4056 196.972 94.4056 197.434C94.4056 197.897 94.214 198.34 93.873 198.667C93.5321 198.993 93.0697 199.177 92.5875 199.177Z" fill="#426572"/>
<path d="M75.7651 199.177H72.5147C72.0325 199.177 71.5701 198.993 71.2291 198.667C70.8881 198.34 70.6965 197.897 70.6965 197.434C70.6965 196.972 70.8881 196.529 71.2291 196.202C71.5701 195.875 72.0325 195.692 72.5147 195.692H75.7651C76.2473 195.692 76.7097 195.875 77.0507 196.202C77.3916 196.529 77.5832 196.972 77.5832 197.434C77.5832 197.897 77.3916 198.34 77.0507 198.667C76.7097 198.993 76.2473 199.177 75.7651 199.177Z" fill="#426572"/>
<path d="M325.41 199.177H274.126V195.692H325.41C325.891 195.692 326.355 195.875 326.696 196.202C327.038 196.529 327.228 196.972 327.228 197.434C327.228 197.897 327.038 198.34 326.696 198.667C326.355 198.993 325.891 199.177 325.41 199.177Z" fill="#426572"/>
<path d="M63.2168 199.177H11.9301V195.692H63.2168C63.699 195.692 64.1614 195.875 64.5024 196.202C64.8434 196.529 65.035 196.972 65.035 197.434C65.035 197.897 64.8434 198.34 64.5024 198.667C64.1614 198.993 63.699 199.177 63.2168 199.177Z" fill="#426572"/>
<path d="M79.4685 63.1526H266.271C269.643 63.1526 272.876 64.4357 275.261 66.7201C277.645 69.0049 278.986 72.1033 278.987 75.3349V191.222H66.7524V75.3349C66.7538 72.1033 68.0943 69.0049 70.4789 66.7201C72.8632 64.4357 76.0968 63.1526 79.4685 63.1526Z" fill="#EBF0F9"/>
<path d="M271.611 72.0394H74.9706V179.707H271.611V72.0394Z" fill="#637F91"/>
<path d="M73.4965 179.506H272.448C272.448 180.361 272.094 181.181 271.465 181.787C270.836 182.393 269.983 182.735 269.091 182.74H76.8671C75.9723 182.74 75.1144 182.399 74.4817 181.793C73.849 181.186 73.4937 180.364 73.4937 179.506H73.4965Z" fill="white"/>
<g opacity="0.5">
<path opacity="0.5" d="M133.731 71.6373L104.33 180.313H89.5245L118.926 71.6373H133.731Z" fill="#A7BCD5"/>
<path opacity="0.5" d="M171.469 71.6373L142.07 180.313H111.021L140.422 71.6373H171.469Z" fill="#A7BCD5"/>
</g>
<path d="M280.666 192.831H65.0742V70.1392C65.077 67.8604 66.0227 65.6759 67.7041 64.0644C69.3852 62.4531 71.6644 61.5467 74.042 61.544H271.698C274.075 61.5467 276.355 62.4531 278.036 64.0644C279.717 65.6759 280.663 67.8604 280.666 70.1392V192.831ZM68.4308 189.614H277.309V70.1392C277.307 68.7132 276.716 67.3461 275.664 66.3378C274.612 65.3295 273.185 64.7625 271.698 64.7612H74.042C72.5542 64.7625 71.1279 65.3295 70.0758 66.3378C69.0238 67.3461 68.4322 68.7132 68.4308 70.1392V189.614Z" fill="#426572"/>
<path d="M39.986 187.386H311.446V188.241C311.446 191.014 310.297 193.673 308.252 195.634C306.204 197.595 303.429 198.697 300.537 198.697H50.8951C48.0017 198.697 45.2269 197.595 43.1813 195.634C41.1354 193.673 39.986 191.014 39.986 188.241V187.386Z" fill="#EBF0F9"/>
<path opacity="0.5" d="M310.056 192.839C309.46 194.326 308.406 195.605 307.035 196.507C305.664 197.409 304.039 197.891 302.378 197.89H47.3622C45.7004 197.89 44.0778 197.407 42.708 196.505C41.3385 195.604 40.2859 194.325 39.6895 192.839H310.056Z" fill="#A7BCD5"/>
<path d="M299.27 199.9H49.628C46.2907 199.897 43.0912 198.624 40.7315 196.363C38.3715 194.101 37.0442 191.034 37.0406 187.836V185.372H311.857V187.836C311.855 191.034 310.526 194.101 308.168 196.363C305.807 198.624 302.607 199.897 299.27 199.9ZM40.4308 188.589C40.6277 190.797 41.682 192.854 43.3849 194.353C45.0881 195.851 47.3158 196.683 49.628 196.683H299.27C301.583 196.683 303.81 195.851 305.513 194.353C307.217 192.854 308.271 190.797 308.467 188.589H40.4308Z" fill="#426572"/>
<path d="M272.867 180.71H72.8671V70.4308H272.867V180.71ZM76.2238 177.493H269.51V73.648H76.2238V177.493Z" fill="#426572"/>
<path d="M241.552 37.477V179.102H107.508V37.477C107.513 36.8386 107.78 36.2276 108.251 35.7762C108.722 35.3247 109.359 35.0689 110.025 35.0641H239.024C239.176 35.0641 239.328 35.0778 239.477 35.1043C240.057 35.207 240.581 35.5 240.959 35.933C241.338 36.366 241.548 36.9121 241.552 37.477Z" fill="white"/>
<path d="M109.617 46.7695H241.975V38.2494L239.443 35.0536H123.527H112.145L107.93 38.2494V46.7695H109.617Z" fill="#E2F2FF"/>
<path d="M243.65 180.71H106.252V37.477C106.256 36.4118 106.7 35.3914 107.485 34.6381C108.271 33.8847 109.336 33.4598 110.448 33.4555H239.441C240.552 33.4598 241.617 33.8847 242.403 34.6381C243.188 35.3914 243.632 36.4118 243.636 37.477L243.65 180.71ZM109.606 177.493H240.294V37.477C240.288 37.2654 240.198 37.0638 240.042 36.9142C239.885 36.7646 239.675 36.678 239.455 36.6727H110.459C110.238 36.678 110.028 36.7646 109.872 36.9142C109.715 37.0638 109.625 37.2654 109.62 37.477L109.606 177.493Z" fill="#426572"/>
<path d="M233.729 40.0188H115.815C114.884 40.0188 114.129 40.7424 114.129 41.6354C114.129 42.5282 114.884 43.252 115.815 43.252H233.729C234.66 43.252 235.415 42.5282 235.415 41.6354C235.415 40.7424 234.66 40.0188 233.729 40.0188Z" fill="#CADCE8"/>
<path d="M87.0546 171.431H47.0378C46.3788 171.436 45.7295 171.281 45.1497 170.981C44.3105 170.541 43.7734 169.82 43.7734 169.008L43.7958 116.284C43.7964 115.939 43.8929 115.6 44.0755 115.303C44.5846 114.456 45.7343 113.86 47.0602 113.86H87.0769C88.4755 113.86 89.6532 114.509 90.1231 115.415C90.266 115.683 90.3407 115.98 90.3413 116.281L90.3217 169.008C90.3217 170.225 89.0937 171.241 87.5077 171.407C87.3572 171.424 87.2059 171.432 87.0546 171.431Z" fill="white"/>
<path d="M88.1427 171.027L48.1119 171.019C47.4529 171.023 46.8034 170.868 46.2238 170.568C45.3847 170.129 44.8476 169.408 44.8476 168.595L44.87 115.871C44.8705 115.526 44.967 115.188 45.1497 114.89C45.6588 114.043 46.8084 113.448 48.1343 113.448H48.6798L48.6714 165.362C48.6714 166.166 49.214 166.895 50.0476 167.335C50.6272 167.635 51.2767 167.79 51.9357 167.786H91.4098V168.59C91.4098 169.807 90.1819 170.823 88.5958 170.989C88.4456 171.01 88.2943 171.023 88.1427 171.027Z" fill="#D6DEE9"/>
<path d="M87.5972 172.635H47.5776C46.6338 172.64 45.7043 172.416 44.8755 171.984C43.4769 171.241 42.6378 169.976 42.6378 168.603L42.6601 115.879C42.6638 115.25 42.8403 114.634 43.172 114.091C44.0112 112.71 45.6895 111.85 47.6056 111.85H87.6252C89.5832 111.85 91.3315 112.775 92.1259 114.212L92.3496 114.541V114.691C92.4943 115.074 92.5681 115.478 92.5678 115.884L92.5455 168.606C92.5455 170.627 90.6909 172.359 88.235 172.603C88.0232 172.625 87.8101 172.636 87.5972 172.635ZM47.5972 115.053C46.8448 115.053 46.2573 115.372 46.0699 115.689C46.0333 115.742 46.0129 115.805 46.0112 115.868L45.9888 168.59C45.9888 168.766 46.193 168.992 46.4979 169.155C46.8302 169.324 47.2014 169.411 47.5776 169.407H87.5944C87.6822 169.408 87.7701 169.403 87.8573 169.394C88.6965 169.308 89.1832 168.858 89.1832 168.59L89.2056 115.866C89.2059 115.834 89.2 115.802 89.1888 115.772L89.0322 115.541C88.6453 115.207 88.1373 115.031 87.6168 115.051H47.5972V115.053Z" fill="#426572"/>
<path d="M82.9818 136.675H55.8434V139.892H82.9818V136.675Z" fill="#426572"/>
<path d="M82.9818 129.962H55.8434V133.179H82.9818V129.962Z" fill="#426572"/>
<path d="M82.9818 144.281H55.8434V147.498H82.9818V144.281Z" fill="#426572"/>
<path opacity="0.2" d="M299.86 76.1394C301.815 72.6223 303.015 68.7654 303.39 64.7965C303.765 60.8274 303.306 56.8268 302.042 53.0303C300.778 49.2341 298.73 45.719 296.025 42.6925C293.32 39.6662 290.011 37.1898 286.291 35.4094C282.571 33.629 278.516 32.5807 274.367 32.3266C270.217 32.0724 266.057 32.6174 262.131 33.9292C258.204 35.2413 254.592 37.2938 251.507 39.9654C248.422 42.6373 245.926 45.874 244.168 49.4853C241.739 53.8566 240.483 58.7384 240.514 63.6906C240.544 68.6432 241.86 73.5105 244.343 77.8539C246.825 82.1973 250.396 85.8804 254.734 88.5713C259.072 91.2622 264.041 92.8764 269.192 93.2681C268.293 93.4719 267.38 93.637 266.453 93.7641C271.329 94.4378 276.303 93.993 280.965 92.4662C285.625 90.9394 289.843 88.3743 293.27 84.9813C296.011 82.4443 298.246 79.4475 299.86 76.1394Z" fill="#606060"/>
<path d="M268.185 86.2995C285.379 86.2995 299.318 72.9399 299.318 56.4603C299.318 39.9807 285.379 26.6212 268.185 26.6212C250.99 26.6212 237.052 39.9807 237.052 56.4603C237.052 72.9399 250.99 86.2995 268.185 86.2995Z" fill="#A8EF9E"/>
<path d="M297.832 58.5925C297.832 62.8708 296.87 67.0987 295.015 70.9898C293.161 74.881 290.453 78.3443 287.08 81.1451C283.706 83.9459 279.743 86.0185 275.459 87.2225C271.176 88.4266 266.672 88.7338 262.255 88.1234C269.663 87.0971 276.437 83.5467 281.337 78.1231C286.235 72.6995 288.934 65.7654 288.934 58.5912C288.934 51.4169 286.235 44.4829 281.337 39.0593C276.437 33.6357 269.663 30.0856 262.255 29.059C266.673 28.4483 271.177 28.7553 275.46 29.9593C279.745 31.1633 283.709 33.236 287.082 36.037C290.456 38.8381 293.164 42.3019 295.018 46.1936C296.873 50.0853 297.835 54.314 297.835 58.5925H297.832Z" fill="#A7E59C"/>
<path d="M267.443 89.3271C260.954 89.3271 254.61 87.4826 249.214 84.0271C243.818 80.5716 239.613 75.6601 237.13 69.914C234.646 64.1676 233.996 57.8445 235.263 51.7443C236.529 45.644 239.653 40.0405 244.242 35.6424C248.831 31.2445 254.677 28.2494 261.042 27.036C267.407 25.8225 274.004 26.4453 280 28.8255C285.994 31.2057 291.119 35.2365 294.724 40.4081C298.33 45.5794 300.255 51.6595 300.255 57.8794C300.246 66.2169 296.786 74.2105 290.635 80.1062C284.481 86.0016 276.142 89.3177 267.443 89.3271ZM267.443 29.6515C261.618 29.6515 255.923 31.3073 251.079 34.4091C246.236 37.5113 242.46 41.9201 240.231 47.0786C238.001 52.237 237.418 57.9134 238.555 63.3896C239.691 68.8657 242.497 73.896 246.616 77.844C250.735 81.7923 255.983 84.481 261.697 85.5703C267.411 86.6595 273.333 86.1003 278.715 83.9636C284.098 81.8268 288.697 78.2086 291.933 73.566C295.169 68.9236 296.898 63.4654 296.898 57.8821C296.89 50.3973 293.785 43.2212 288.263 37.9287C282.738 32.636 275.253 29.6593 267.443 29.6515Z" fill="#426572"/>
<path d="M196.643 133.803H153.687C150.925 133.801 148.277 132.748 146.324 130.876C144.371 129.004 143.273 126.466 143.27 123.82V67.6614C143.273 65.0142 144.371 62.4764 146.324 60.6048C148.277 58.733 150.925 57.6802 153.687 57.6775H196.643C199.405 57.6802 202.053 58.733 204.006 60.6048C205.959 62.4764 207.057 65.0142 207.06 67.6614V123.82C207.057 126.466 205.959 129.004 204.006 130.876C202.053 132.748 199.405 133.801 196.643 133.803ZM156.28 121.324H194.042V70.1574H156.28V121.324Z" fill="#FBC907"/>
<path opacity="0.6" d="M207.141 88.2542V126.324C207.138 128.971 206.04 131.509 204.087 133.38C202.134 135.252 199.486 136.305 196.725 136.308H153.754C150.992 136.305 148.344 135.252 146.391 133.38C144.438 131.509 143.34 128.971 143.337 126.324V88.2542H156.364V123.82H194.126V88.2542H207.141Z" fill="#F3A70F"/>
<path d="M196.643 136.973H153.687C150.48 136.97 147.406 135.747 145.138 133.574C142.871 131.401 141.595 128.454 141.592 125.381V69.2225C141.598 66.1509 142.875 63.2072 145.142 61.0362C147.409 58.8654 150.482 57.6442 153.687 57.6407H196.643C199.85 57.6442 202.924 58.8668 205.192 61.0399C207.459 63.2134 208.735 66.1598 208.738 69.2332V125.381C208.735 128.454 207.459 131.401 205.192 133.574C202.924 135.747 199.85 136.97 196.643 136.973ZM153.687 60.8579C151.37 60.8609 149.149 61.744 147.511 63.3142C145.873 64.8842 144.951 67.0129 144.948 69.2332V125.381C144.95 127.601 145.872 129.73 147.51 131.301C149.149 132.871 151.37 133.754 153.687 133.756H196.643C198.96 133.754 201.182 132.871 202.82 131.301C204.458 129.73 205.38 127.601 205.382 125.381V69.2225C205.376 67.004 204.453 64.878 202.815 63.3105C201.177 61.7426 198.958 60.8609 196.643 60.8579H153.687ZM195.729 124.504H154.61V70.1099H195.729V124.504ZM157.966 121.287H192.372V73.3271H157.966V121.287Z" fill="#426572"/>
<path d="M211.718 95.2089H137.969C136.115 95.2089 134.613 96.6491 134.613 98.426V161.064C134.613 162.841 136.115 164.281 137.969 164.281H211.718C213.571 164.281 215.074 162.841 215.074 161.064V98.426C215.074 96.6491 213.571 95.2089 211.718 95.2089Z" fill="#FBC907"/>
<path opacity="0.6" d="M215.729 98.8955V160.794C215.726 161.744 215.33 162.655 214.629 163.327C213.928 163.999 212.978 164.378 211.986 164.381H176.145V95.3083H211.986C212.978 95.3113 213.928 95.6901 214.629 96.3622C215.33 97.0344 215.726 97.9451 215.729 98.8955Z" fill="#F3A70F"/>
<path d="M211.717 165.22H137.969C136.634 165.22 135.353 164.711 134.409 163.806C133.465 162.901 132.934 161.674 132.934 160.394V97.7558C132.934 96.4759 133.465 95.2486 134.409 94.3435C135.353 93.4384 136.634 92.9301 137.969 92.9301H211.717C213.053 92.9301 214.333 93.4384 215.278 94.3435C216.222 95.2486 216.752 96.4759 216.752 97.7558V160.394C216.752 161.674 216.222 162.901 215.278 163.806C214.333 164.711 213.053 165.22 211.717 165.22ZM137.969 96.1472C137.524 96.1472 137.097 96.3166 136.782 96.6183C136.468 96.9199 136.291 97.3292 136.291 97.7558V160.394C136.291 160.82 136.468 161.23 136.782 161.531C137.097 161.833 137.524 162.002 137.969 162.002H211.717C212.163 162.002 212.589 161.833 212.904 161.531C213.219 161.23 213.396 160.82 213.396 160.394V97.7558C213.396 97.3292 213.219 96.9199 212.904 96.6183C212.589 96.3166 212.163 96.1472 211.717 96.1472H137.969Z" fill="#426572"/>
<path d="M283.729 46.4826C283.057 46.1228 282.266 46.0263 281.522 46.2131C280.778 46.4 280.137 46.856 279.737 47.485L274.347 55.93L265.734 69.4099L265.494 69.7879L255.55 62.1633L253.737 60.7748C252.548 59.8633 250.755 59.5764 249.611 60.7748C248.638 61.7909 248.338 63.7531 249.611 64.729L262.397 74.5306L264.21 75.9193C264.962 76.4984 265.678 76.8148 266.66 76.6887C267.099 76.6373 267.519 76.4893 267.889 76.2568C268.258 76.0244 268.568 75.7137 268.792 75.3483L274.182 66.9032L282.797 53.426L284.786 50.311C285.572 49.0617 285.102 47.185 283.729 46.4826Z" fill="white"/>
</g>
<defs>
<linearGradient id="paint0_linear_902_2065" x1="0.369146" y1="99.5142" x2="350.937" y2="99.5142" gradientUnits="userSpaceOnUse">
<stop stop-color="#C5E9FA"/>
<stop offset="1" stop-color="#C4F4EA"/>
</linearGradient>
</defs>
</svg>
