<svg width="210" height="39" viewBox="0 0 210 39" fill="none" xmlns="http://www.w3.org/2000/svg">
<path d="M28.5859 26.4414C28.5859 26.806 28.5208 27.1445 28.3906 27.457C28.2604 27.7695 28.0781 28.043 27.8438 28.2773C27.6224 28.4987 27.3555 28.6745 27.043 28.8047C26.7305 28.9349 26.3919 29 26.0273 29H7.70703C7.23828 29 6.73047 28.9479 6.18359 28.8438C5.64974 28.7266 5.11589 28.5508 4.58203 28.3164C4.0612 28.082 3.5599 27.7826 3.07812 27.418C2.59635 27.0404 2.16667 26.5911 1.78906 26.0703C1.42448 25.5365 1.13151 24.9245 0.910156 24.2344C0.688802 23.5312 0.578125 22.7435 0.578125 21.8711V8.12109C0.578125 7.65234 0.630208 7.15104 0.734375 6.61719C0.851562 6.07031 1.02734 5.53646 1.26172 5.01562C1.49609 4.48177 1.80208 3.97396 2.17969 3.49219C2.55729 3.01042 3.00651 2.58724 3.52734 2.22266C4.0612 1.84505 4.67318 1.54557 5.36328 1.32422C6.05339 1.10286 6.83464 0.992188 7.70703 0.992188H28.3516V6.07031H7.70703C7.04297 6.07031 6.53516 6.24609 6.18359 6.59766C5.83203 6.94922 5.65625 7.47005 5.65625 8.16016V21.8711C5.65625 22.5221 5.83203 23.0299 6.18359 23.3945C6.54818 23.7461 7.05599 23.9219 7.70703 23.9219H23.5078V17.5547H9.99219V12.4375H26.0273C26.3919 12.4375 26.7305 12.5091 27.043 12.6523C27.3555 12.7826 27.6224 12.9648 27.8438 13.1992C28.0781 13.4336 28.2604 13.707 28.3906 14.0195C28.5208 14.319 28.5859 14.6445 28.5859 14.9961V26.4414ZM160.695 31.0312C160.695 31.9036 160.585 32.6849 160.363 33.375C160.142 34.0781 159.849 34.6901 159.484 35.2109C159.12 35.7448 158.697 36.194 158.215 36.5586C157.733 36.9362 157.225 37.2422 156.691 37.4766C156.171 37.7109 155.643 37.8802 155.109 37.9844C154.576 38.1016 154.068 38.1602 153.586 38.1602H144.426V33.082H153.586C154.263 33.082 154.771 32.9062 155.109 32.5547C155.448 32.2031 155.617 31.6953 155.617 31.0312V7.88672H160.695V31.0312ZM153.586 29H144.426C143.697 29 142.915 28.8763 142.082 28.6289C141.262 28.3815 140.493 27.9779 139.777 27.418C139.061 26.8451 138.469 26.1094 138 25.2109C137.531 24.2995 137.297 23.1862 137.297 21.8711V7.88672H142.375V21.8711C142.375 22.5352 142.551 23.043 142.902 23.3945C143.254 23.7461 143.775 23.9219 144.465 23.9219H153.586V29Z" fill="#38AA93"/>
<path d="M56.0273 14.8789C56.0273 15.582 55.9036 16.3438 55.6562 17.1641C55.4089 17.9714 55.0052 18.7266 54.4453 19.4297C53.8984 20.1198 53.1758 20.6992 52.2773 21.168C51.3919 21.6367 50.3112 21.8711 49.0352 21.8711H39.875V17.0469H49.0352C49.7253 17.0469 50.2591 16.8385 50.6367 16.4219C51.0143 15.9922 51.2031 15.4648 51.2031 14.8398C51.2031 14.1758 50.9883 13.6549 50.5586 13.2773C50.1419 12.8997 49.6341 12.7109 49.0352 12.7109H39.875C39.1849 12.7109 38.651 12.9258 38.2734 13.3555C37.8958 13.7721 37.707 14.293 37.707 14.918V22.0078C37.707 22.6849 37.9154 23.2122 38.332 23.5898C38.7617 23.9674 39.2891 24.1562 39.9141 24.1562H49.0352V29H39.875C39.1719 29 38.4102 28.8763 37.5898 28.6289C36.7826 28.3815 36.0273 27.9844 35.3242 27.4375C34.6341 26.8776 34.0547 26.1549 33.5859 25.2695C33.1172 24.3711 32.8828 23.2839 32.8828 22.0078V14.8789C32.8828 14.1758 33.0065 13.4206 33.2539 12.6133C33.5013 11.793 33.8984 11.0378 34.4453 10.3477C35.0052 9.64453 35.7279 9.05859 36.6133 8.58984C37.5117 8.12109 38.599 7.88672 39.875 7.88672H49.0352C49.7383 7.88672 50.4935 8.01042 51.3008 8.25781C52.1211 8.50521 52.8763 8.90885 53.5664 9.46875C54.2695 10.0156 54.8555 10.7383 55.3242 11.6367C55.793 12.5221 56.0273 13.6029 56.0273 14.8789ZM82.8438 29H77.7656V17.2812C77.7656 16.6172 77.6484 16.0247 77.4141 15.5039C77.1927 14.9701 76.8867 14.5143 76.4961 14.1367C76.1055 13.7591 75.6432 13.4727 75.1094 13.2773C74.5885 13.069 74.0221 12.9648 73.4102 12.9648H64.5234V29H59.4453V10.4062C59.4453 10.0547 59.5104 9.72917 59.6406 9.42969C59.7708 9.11719 59.9531 8.85026 60.1875 8.62891C60.4219 8.39453 60.6953 8.21224 61.0078 8.08203C61.3203 7.95182 61.6523 7.88672 62.0039 7.88672H73.4492C74.0872 7.88672 74.7578 7.95833 75.4609 8.10156C76.1771 8.24479 76.8802 8.47917 77.5703 8.80469C78.2734 9.11719 78.9375 9.52083 79.5625 10.0156C80.2005 10.4974 80.7604 11.0898 81.2422 11.793C81.737 12.4831 82.1276 13.2839 82.4141 14.1953C82.7005 15.1068 82.8438 16.1354 82.8438 17.2812V29ZM110.012 14.8789C110.012 15.582 109.888 16.3438 109.641 17.1641C109.393 17.9714 108.99 18.7266 108.43 19.4297C107.883 20.1198 107.16 20.6992 106.262 21.168C105.376 21.6367 104.296 21.8711 103.02 21.8711H93.8594V17.0469H103.02C103.71 17.0469 104.243 16.8385 104.621 16.4219C104.999 15.9922 105.188 15.4648 105.188 14.8398C105.188 14.1758 104.973 13.6549 104.543 13.2773C104.126 12.8997 103.618 12.7109 103.02 12.7109H93.8594C93.1693 12.7109 92.6354 12.9258 92.2578 13.3555C91.8802 13.7721 91.6914 14.293 91.6914 14.918V22.0078C91.6914 22.6849 91.8997 23.2122 92.3164 23.5898C92.7461 23.9674 93.2734 24.1562 93.8984 24.1562H103.02V29H93.8594C93.1562 29 92.3945 28.8763 91.5742 28.6289C90.7669 28.3815 90.0117 27.9844 89.3086 27.4375C88.6185 26.8776 88.0391 26.1549 87.5703 25.2695C87.1016 24.3711 86.8672 23.2839 86.8672 22.0078V14.8789C86.8672 14.1758 86.9909 13.4206 87.2383 12.6133C87.4857 11.793 87.8828 11.0378 88.4297 10.3477C88.9896 9.64453 89.7122 9.05859 90.5977 8.58984C91.4961 8.12109 92.5833 7.88672 93.8594 7.88672H103.02C103.723 7.88672 104.478 8.01042 105.285 8.25781C106.105 8.50521 106.861 8.90885 107.551 9.46875C108.254 10.0156 108.84 10.7383 109.309 11.6367C109.777 12.5221 110.012 13.6029 110.012 14.8789ZM133.84 21.8711C133.84 22.7435 133.729 23.5312 133.508 24.2344C133.286 24.9245 132.993 25.5365 132.629 26.0703C132.264 26.5911 131.841 27.0404 131.359 27.418C130.878 27.7826 130.37 28.082 129.836 28.3164C129.315 28.5508 128.781 28.7266 128.234 28.8438C127.701 28.9479 127.193 29 126.711 29H112.961V23.9219H126.672C127.362 23.9219 127.883 23.7461 128.234 23.3945C128.586 23.043 128.762 22.5352 128.762 21.8711C128.697 20.5169 128.013 19.8398 126.711 19.8398H118.84C117.72 19.8398 116.77 19.6445 115.988 19.2539C115.207 18.8633 114.569 18.375 114.074 17.7891C113.592 17.2031 113.241 16.5716 113.02 15.8945C112.811 15.2174 112.707 14.5859 112.707 14C112.707 12.8672 112.909 11.9167 113.312 11.1484C113.716 10.3672 114.224 9.73568 114.836 9.25391C115.448 8.77214 116.112 8.42708 116.828 8.21875C117.544 7.9974 118.215 7.88672 118.84 7.88672H131.32V12.9648H118.879C118.618 12.9648 118.41 12.9974 118.254 13.0625C118.111 13.1146 118 13.1927 117.922 13.2969C117.857 13.388 117.818 13.4922 117.805 13.6094C117.792 13.7135 117.785 13.8177 117.785 13.9219C117.798 14.1302 117.837 14.293 117.902 14.4102C117.967 14.5273 118.046 14.612 118.137 14.6641C118.241 14.7161 118.352 14.7487 118.469 14.7617C118.599 14.7617 118.723 14.7617 118.84 14.7617H126.711C128.013 14.7617 129.12 14.9961 130.031 15.4648C130.943 15.9336 131.678 16.526 132.238 17.2422C132.798 17.9453 133.202 18.7135 133.449 19.5469C133.71 20.3802 133.84 21.1549 133.84 21.8711ZM185.949 21.8711C185.949 22.7435 185.839 23.5312 185.617 24.2344C185.396 24.9245 185.103 25.5365 184.738 26.0703C184.374 26.5911 183.951 27.0404 183.469 27.418C182.987 27.7826 182.479 28.082 181.945 28.3164C181.424 28.5508 180.891 28.7266 180.344 28.8438C179.81 28.9479 179.302 29 178.82 29H165.07V23.9219H178.781C179.471 23.9219 179.992 23.7461 180.344 23.3945C180.695 23.043 180.871 22.5352 180.871 21.8711C180.806 20.5169 180.122 19.8398 178.82 19.8398H170.949C169.829 19.8398 168.879 19.6445 168.098 19.2539C167.316 18.8633 166.678 18.375 166.184 17.7891C165.702 17.2031 165.35 16.5716 165.129 15.8945C164.921 15.2174 164.816 14.5859 164.816 14C164.816 12.8672 165.018 11.9167 165.422 11.1484C165.826 10.3672 166.333 9.73568 166.945 9.25391C167.557 8.77214 168.221 8.42708 168.938 8.21875C169.654 7.9974 170.324 7.88672 170.949 7.88672H183.43V12.9648H170.988C170.728 12.9648 170.52 12.9974 170.363 13.0625C170.22 13.1146 170.109 13.1927 170.031 13.2969C169.966 13.388 169.927 13.4922 169.914 13.6094C169.901 13.7135 169.895 13.8177 169.895 13.9219C169.908 14.1302 169.947 14.293 170.012 14.4102C170.077 14.5273 170.155 14.612 170.246 14.6641C170.35 14.7161 170.461 14.7487 170.578 14.7617C170.708 14.7617 170.832 14.7617 170.949 14.7617H178.82C180.122 14.7617 181.229 14.9961 182.141 15.4648C183.052 15.9336 183.788 16.526 184.348 17.2422C184.908 17.9453 185.311 18.7135 185.559 19.5469C185.819 20.3802 185.949 21.1549 185.949 21.8711ZM209.934 21.8711C209.934 22.7435 209.823 23.5312 209.602 24.2344C209.38 24.9245 209.087 25.5365 208.723 26.0703C208.358 26.5911 207.935 27.0404 207.453 27.418C206.971 27.7826 206.464 28.082 205.93 28.3164C205.409 28.5508 204.875 28.7266 204.328 28.8438C203.794 28.9479 203.286 29 202.805 29H189.055V23.9219H202.766C203.456 23.9219 203.977 23.7461 204.328 23.3945C204.68 23.043 204.855 22.5352 204.855 21.8711C204.79 20.5169 204.107 19.8398 202.805 19.8398H194.934C193.814 19.8398 192.863 19.6445 192.082 19.2539C191.301 18.8633 190.663 18.375 190.168 17.7891C189.686 17.2031 189.335 16.5716 189.113 15.8945C188.905 15.2174 188.801 14.5859 188.801 14C188.801 12.8672 189.003 11.9167 189.406 11.1484C189.81 10.3672 190.318 9.73568 190.93 9.25391C191.542 8.77214 192.206 8.42708 192.922 8.21875C193.638 7.9974 194.309 7.88672 194.934 7.88672H207.414V12.9648H194.973C194.712 12.9648 194.504 12.9974 194.348 13.0625C194.204 13.1146 194.094 13.1927 194.016 13.2969C193.951 13.388 193.911 13.4922 193.898 13.6094C193.885 13.7135 193.879 13.8177 193.879 13.9219C193.892 14.1302 193.931 14.293 193.996 14.4102C194.061 14.5273 194.139 14.612 194.23 14.6641C194.335 14.7161 194.445 14.7487 194.562 14.7617C194.693 14.7617 194.816 14.7617 194.934 14.7617H202.805C204.107 14.7617 205.214 14.9961 206.125 15.4648C207.036 15.9336 207.772 16.526 208.332 17.2422C208.892 17.9453 209.296 18.7135 209.543 19.5469C209.803 20.3802 209.934 21.1549 209.934 21.8711Z" fill="black"/>
</svg>
